<svg width="400" height="343" viewBox="0 0 400 343" fill="none" xmlns="http://www.w3.org/2000/svg">
<rect x="81.4111" y="-0.00012207" width="268.127" height="217.632" rx="3.01266" fill="#F3F1FF"/>
<rect x="93.4629" y="36.2728" width="244.025" height="169.27" rx="3.01266" fill="white"/>
<rect x="105.513" y="48.3634" width="219.924" height="145.088" rx="3.01266" fill="#F3F1FF"/>
<rect x="117.562" y="60.4545" width="61.0063" height="6.04535" rx="3.02267" fill="white"/>
<rect x="117.562" y="72.5439" width="61.0063" height="6.04535" rx="3.02267" fill="white"/>
<rect x="117.562" y="84.635" width="39.1646" height="6.04535" rx="3.02267" fill="white"/>
<rect x="179.323" y="151.134" width="61.0063" height="6.02532" rx="3.01266" fill="white"/>
<rect x="179.323" y="163.184" width="61.0063" height="6.02532" rx="3.01266" fill="white"/>
<rect x="179.323" y="175.235" width="39.1646" height="6.02532" rx="3.01266" fill="white"/>
<rect x="252.381" y="151.134" width="61.0063" height="6.02532" rx="3.01266" fill="white"/>
<rect x="252.381" y="163.185" width="61.0063" height="6.02532" rx="3.01266" fill="white"/>
<rect x="252.381" y="175.235" width="39.1646" height="6.02532" rx="3.01266" fill="white"/>
<circle cx="99.4882" cy="18.1359" r="6.02532" fill="#C4C4C4"/>
<circle cx="118.318" cy="18.1359" r="6.02532" fill="#C4C4C4"/>
<circle cx="137.146" cy="18.1359" r="6.02532" fill="#C4C4C4"/>
<rect x="305.855" y="12.8638" width="31.6329" height="10.5443" rx="5.27215" fill="#D9D9D9"/>
<rect x="213.215" y="62.7208" width="186.785" height="36.2721" rx="2.84529" fill="#FF007A"/>
<rect x="220.746" y="74.7715" width="12.0506" height="12.0506" fill="#F3F1FF"/>
<rect x="274.221" y="77.7842" width="25.6076" height="6.02532" rx="3.01266" fill="white"/>
<rect x="305.854" y="77.7842" width="25.6076" height="6.02532" rx="3.01266" fill="white"/>
<rect x="337.486" y="77.7841" width="25.6076" height="6.02532" rx="3.01266" fill="white"/>
<rect x="381.17" y="77.7842" width="11.2975" height="6.02532" rx="3.01266" fill="white"/>
<g filter="url(#filter0_d_3_67)">
<rect x="43" y="145.844" width="124.272" height="154.156" rx="3.01266" fill="white" shape-rendering="crispEdges"/>
<path d="M56.8618 168.9C57.0423 168.9 57.1972 168.843 57.3267 168.73C57.46 168.616 57.5267 168.457 57.5267 168.253V165.352H59.2802C59.7627 165.352 60.1883 165.311 60.557 165.228C60.9258 165.142 61.2513 165.007 61.5338 164.822C61.8162 164.634 62.03 164.379 62.1751 164.058C62.3242 163.736 62.3987 163.351 62.3987 162.904C62.3987 162.041 62.1418 161.42 61.6279 161.039C61.114 160.655 60.3707 160.462 59.3979 160.462H56.8677C56.6794 160.462 56.5186 160.527 56.3852 160.657C56.2557 160.786 56.191 160.943 56.191 161.127V168.253C56.191 168.457 56.2577 168.616 56.3911 168.73C56.5245 168.843 56.6814 168.9 56.8618 168.9ZM57.5267 164.334V161.522H59.3037C59.9235 161.522 60.3746 161.622 60.657 161.822C60.9395 162.022 61.0807 162.383 61.0807 162.904C61.0807 163.438 60.9336 163.81 60.6394 164.022C60.3452 164.23 59.8823 164.334 59.2508 164.334H57.5267ZM64.932 168.988C65.7557 168.988 66.3422 168.63 66.6913 167.912V168.347C66.6913 168.465 66.7188 168.567 66.7737 168.653C66.8325 168.735 66.9031 168.798 66.9855 168.841C67.0718 168.881 67.166 168.9 67.268 168.9C67.4249 168.9 67.5622 168.851 67.6798 168.753C67.7975 168.651 67.8564 168.512 67.8564 168.335V165.017C67.8564 164.303 67.6485 163.777 67.2326 163.44C66.8168 163.102 66.248 162.934 65.5263 162.934C64.6907 162.934 63.9689 163.098 63.3609 163.428C63.2942 163.463 63.2452 163.508 63.2138 163.563C63.1824 163.614 63.1667 163.673 63.1667 163.74C63.1667 163.775 63.1707 163.81 63.1785 163.846C63.1903 163.881 63.204 163.916 63.2197 163.952C63.2393 163.983 63.2609 164.014 63.2844 164.046C63.3119 164.073 63.3413 164.099 63.3727 164.122C63.4041 164.142 63.4374 164.158 63.4727 164.169C63.508 164.181 63.5453 164.187 63.5845 164.187C63.6355 164.187 63.6845 164.177 63.7316 164.158C63.9356 164.071 64.0984 164.005 64.22 163.958C64.3455 163.91 64.5299 163.861 64.7731 163.81C65.0163 163.756 65.2536 163.728 65.4851 163.728C66.2775 163.728 66.6737 164.124 66.6737 164.917V165.493C66.25 165.493 65.8911 165.499 65.5969 165.511C65.3066 165.519 65.0163 165.538 64.726 165.57C64.4397 165.597 64.2043 165.638 64.0199 165.693C63.8395 165.748 63.6688 165.821 63.508 165.911C63.3472 165.997 63.2236 166.105 63.1373 166.235C63.051 166.36 62.9824 166.511 62.9314 166.688C62.8843 166.86 62.8608 167.062 62.8608 167.294C62.8608 167.835 63.053 168.253 63.4374 168.547C63.8218 168.841 64.32 168.988 64.932 168.988ZM65.0496 168.212C64.7241 168.212 64.4652 168.133 64.2729 167.976C64.0807 167.819 63.9846 167.576 63.9846 167.247C63.9846 167.09 64.0003 166.956 64.0317 166.847C64.0631 166.733 64.1219 166.635 64.2082 166.552C64.2984 166.47 64.4044 166.405 64.526 166.358C64.6476 166.311 64.8143 166.274 65.0261 166.246C65.2419 166.215 65.4753 166.195 65.7263 166.188C65.9774 166.176 66.2912 166.17 66.6678 166.17V166.335C66.6678 166.88 66.505 167.329 66.1794 167.682C65.8538 168.035 65.4772 168.212 65.0496 168.212ZM69.3775 168.347C69.7973 168.645 70.3151 168.845 70.9309 168.947C71.1584 168.983 71.382 169 71.6017 169C71.9391 169 72.247 168.963 72.5255 168.888C72.8079 168.814 73.0551 168.704 73.2669 168.559C73.4787 168.41 73.6435 168.218 73.7612 167.982C73.8789 167.747 73.9377 167.478 73.9377 167.176C73.9377 166.745 73.8043 166.394 73.5376 166.123C73.2708 165.852 72.8374 165.64 72.2372 165.487L71.2487 165.246C70.8525 165.148 70.5916 165.052 70.4661 164.958C70.3445 164.864 70.2837 164.705 70.2837 164.481C70.2837 164.305 70.3425 164.158 70.4602 164.04C70.5818 163.918 70.7367 163.834 70.925 163.787C71.1172 163.736 71.3369 163.71 71.5841 163.71C71.6664 163.71 71.7508 163.714 71.8371 163.722C71.9234 163.73 72.0018 163.74 72.0724 163.752C72.143 163.763 72.2176 163.779 72.296 163.799C72.3745 163.814 72.4412 163.832 72.4961 163.852C72.5549 163.867 72.6177 163.887 72.6844 163.91C72.755 163.93 72.8099 163.948 72.8491 163.963C72.8884 163.979 72.9354 163.999 72.9904 164.022C73.0492 164.042 73.0884 164.056 73.108 164.063C73.1786 164.087 73.2434 164.099 73.3022 164.099C73.3571 164.099 73.4081 164.089 73.4552 164.069C73.5023 164.05 73.5415 164.024 73.5729 163.993C73.6043 163.958 73.6278 163.918 73.6435 163.875C73.6592 163.828 73.667 163.781 73.667 163.734C73.667 163.565 73.5827 163.44 73.414 163.357C73.1865 163.24 72.906 163.138 72.5726 163.051C72.2392 162.961 71.8802 162.916 71.4958 162.916C70.6406 162.916 70.0091 163.112 69.6011 163.504C69.3226 163.775 69.1833 164.118 69.1833 164.534C69.1833 164.687 69.1971 164.826 69.2245 164.952C69.2559 165.077 69.2951 165.187 69.3422 165.281C69.3893 165.376 69.456 165.462 69.5423 165.54C69.6286 165.619 69.7149 165.685 69.8012 165.74C69.8914 165.795 70.0071 165.85 70.1483 165.905C70.2896 165.956 70.421 166.001 70.5426 166.04C70.6681 166.076 70.823 166.117 71.0074 166.164L72.0077 166.417C72.3294 166.499 72.5628 166.607 72.7079 166.741C72.8531 166.874 72.9256 167.049 72.9256 167.264C72.9256 167.578 72.7962 167.814 72.5373 167.97C72.2823 168.127 71.9528 168.206 71.5488 168.206C70.9721 168.206 70.4112 168.039 69.8659 167.706C69.7718 167.651 69.6796 167.623 69.5893 167.623C69.4756 167.623 69.3814 167.663 69.3069 167.741C69.2324 167.819 69.1951 167.91 69.1951 168.012C69.1951 168.149 69.2559 168.261 69.3775 168.347ZM75.1646 168.347C75.5844 168.645 76.1022 168.845 76.718 168.947C76.9456 168.983 77.1692 169 77.3888 169C77.7262 169 78.0341 168.963 78.3126 168.888C78.5951 168.814 78.8422 168.704 79.054 168.559C79.2659 168.41 79.4306 168.218 79.5483 167.982C79.666 167.747 79.7248 167.478 79.7248 167.176C79.7248 166.745 79.5914 166.394 79.3247 166.123C79.058 165.852 78.6245 165.64 78.0243 165.487L77.0358 165.246C76.6396 165.148 76.3787 165.052 76.2532 164.958C76.1316 164.864 76.0708 164.705 76.0708 164.481C76.0708 164.305 76.1296 164.158 76.2473 164.04C76.3689 163.918 76.5239 163.834 76.7122 163.787C76.9044 163.736 77.1241 163.71 77.3712 163.71C77.4536 163.71 77.5379 163.714 77.6242 163.722C77.7105 163.73 77.789 163.74 77.8596 163.752C77.9302 163.763 78.0047 163.779 78.0832 163.799C78.1616 163.814 78.2283 163.832 78.2832 163.852C78.3421 163.867 78.4048 163.887 78.4715 163.91C78.5421 163.93 78.597 163.948 78.6363 163.963C78.6755 163.979 78.7226 163.999 78.7775 164.022C78.8363 164.042 78.8755 164.056 78.8952 164.063C78.9658 164.087 79.0305 164.099 79.0893 164.099C79.1443 164.099 79.1953 164.089 79.2423 164.069C79.2894 164.05 79.3286 164.024 79.36 163.993C79.3914 163.958 79.4149 163.918 79.4306 163.875C79.4463 163.828 79.4542 163.781 79.4542 163.734C79.4542 163.565 79.3698 163.44 79.2011 163.357C78.9736 163.24 78.6931 163.138 78.3597 163.051C78.0263 162.961 77.6673 162.916 77.2829 162.916C76.4278 162.916 75.7962 163.112 75.3882 163.504C75.1097 163.775 74.9705 164.118 74.9705 164.534C74.9705 164.687 74.9842 164.826 75.0117 164.952C75.043 165.077 75.0823 165.187 75.1293 165.281C75.1764 165.376 75.2431 165.462 75.3294 165.54C75.4157 165.619 75.502 165.685 75.5883 165.74C75.6785 165.795 75.7942 165.85 75.9355 165.905C76.0767 165.956 76.2081 166.001 76.3297 166.04C76.4552 166.076 76.6102 166.117 76.7945 166.164L77.7948 166.417C78.1165 166.499 78.3499 166.607 78.495 166.741C78.6402 166.874 78.7128 167.049 78.7128 167.264C78.7128 167.578 78.5833 167.814 78.3244 167.97C78.0694 168.127 77.7399 168.206 77.3359 168.206C76.7592 168.206 76.1983 168.039 75.653 167.706C75.5589 167.651 75.4667 167.623 75.3765 167.623C75.2627 167.623 75.1686 167.663 75.094 167.741C75.0195 167.819 74.9822 167.91 74.9822 168.012C74.9822 168.149 75.043 168.261 75.1646 168.347ZM87.4243 168.894C87.793 168.894 88.05 168.675 88.1951 168.235L89.7132 163.746C89.7367 163.679 89.7485 163.612 89.7485 163.546C89.7485 163.502 89.7426 163.461 89.7308 163.422C89.7191 163.379 89.7034 163.342 89.6838 163.31C89.6642 163.275 89.6406 163.244 89.6132 163.216C89.5896 163.189 89.5602 163.165 89.5249 163.146C89.4935 163.122 89.4582 163.102 89.419 163.087C89.3837 163.071 89.3464 163.059 89.3072 163.051C89.268 163.044 89.2287 163.04 89.1895 163.04C89.0758 163.04 88.9718 163.071 88.8777 163.134C88.7874 163.197 88.7227 163.291 88.6835 163.416L87.3243 167.653L85.9415 163.663C85.7963 163.24 85.5394 163.028 85.1707 163.028C84.798 163.028 84.5391 163.24 84.394 163.663L83.0112 167.653L81.6579 163.416C81.6186 163.291 81.552 163.197 81.4578 163.134C81.3637 163.071 81.2597 163.04 81.1459 163.04C81.1067 163.04 81.0675 163.044 81.0283 163.051C80.989 163.059 80.9518 163.071 80.9165 163.087C80.8812 163.102 80.8459 163.122 80.8106 163.146C80.7792 163.165 80.7498 163.189 80.7223 163.216C80.6988 163.244 80.6772 163.275 80.6576 163.31C80.638 163.342 80.6223 163.379 80.6105 163.422C80.5987 163.461 80.5928 163.502 80.5928 163.546C80.5928 163.612 80.6046 163.679 80.6281 163.746L82.1462 168.235C82.2875 168.675 82.5444 168.894 82.9171 168.894C83.3172 168.894 83.5996 168.653 83.7644 168.171L85.1707 164.158L86.5711 168.171C86.7398 168.653 87.0242 168.894 87.4243 168.894ZM93.488 168.182C92.9231 168.182 92.4798 167.984 92.1582 167.588C91.8365 167.192 91.6757 166.65 91.6757 165.964C91.6757 165.274 91.8345 164.73 92.1523 164.334C92.4739 163.938 92.9192 163.74 93.488 163.74C94.0528 163.74 94.4961 163.94 94.8178 164.34C95.1394 164.736 95.3003 165.278 95.3003 165.964C95.3003 166.654 95.1414 167.196 94.8237 167.588C94.5059 167.98 94.0607 168.178 93.488 168.182ZM93.488 168.988C93.9626 168.988 94.3921 168.908 94.7766 168.747C95.161 168.582 95.4748 168.361 95.718 168.082C95.9612 167.804 96.1476 167.484 96.277 167.123C96.4065 166.758 96.4712 166.372 96.4712 165.964C96.4712 165.399 96.3574 164.891 96.1299 164.44C95.9063 163.985 95.565 163.62 95.1061 163.346C94.651 163.071 94.1117 162.934 93.488 162.934C93.0133 162.934 92.5838 163.014 92.1993 163.175C91.8188 163.336 91.505 163.555 91.2579 163.834C91.0147 164.112 90.8283 164.434 90.6989 164.799C90.5694 165.16 90.5047 165.548 90.5047 165.964C90.5047 166.376 90.5694 166.762 90.6989 167.123C90.8283 167.484 91.0147 167.804 91.2579 168.082C91.5011 168.361 91.8149 168.582 92.1993 168.747C92.5838 168.908 93.0133 168.988 93.488 168.988ZM98.2571 168.894C98.418 168.894 98.5592 168.845 98.6808 168.747C98.8024 168.649 98.8632 168.512 98.8632 168.335V165.458C98.8632 164.96 99.0103 164.589 99.3045 164.346C99.6026 164.103 100.013 163.981 100.534 163.981C100.664 163.981 100.764 163.934 100.834 163.84C100.905 163.746 100.94 163.634 100.94 163.504C100.94 163.363 100.901 163.242 100.823 163.14C100.744 163.038 100.634 162.987 100.493 162.987C100.097 162.987 99.7478 163.11 99.4457 163.357C99.1476 163.604 98.9495 163.91 98.8514 164.275L98.8632 163.552C98.8632 163.485 98.8514 163.424 98.8279 163.369C98.8083 163.31 98.7789 163.261 98.7396 163.222C98.7043 163.183 98.6612 163.149 98.6102 163.122C98.5631 163.091 98.5102 163.069 98.4513 163.057C98.3964 163.042 98.3376 163.034 98.2748 163.034C98.114 163.034 97.9727 163.083 97.8511 163.181C97.7335 163.275 97.6746 163.408 97.6746 163.581V168.335C97.6746 168.516 97.7315 168.655 97.8453 168.753C97.959 168.847 98.0963 168.894 98.2571 168.894ZM104.074 168.988C105.011 168.988 105.674 168.628 106.063 167.906V168.324C106.063 168.508 106.114 168.649 106.216 168.747C106.317 168.841 106.463 168.888 106.651 168.888C106.812 168.888 106.951 168.839 107.069 168.741C107.186 168.639 107.245 168.5 107.245 168.324V161.021C107.245 160.845 107.186 160.71 107.069 160.615C106.955 160.517 106.818 160.468 106.657 160.468C106.496 160.468 106.357 160.517 106.239 160.615C106.121 160.71 106.063 160.845 106.063 161.021V163.963C105.682 163.277 105.048 162.934 104.162 162.934C103.354 162.934 102.714 163.212 102.244 163.769C101.773 164.326 101.538 165.044 101.538 165.923C101.538 166.335 101.593 166.723 101.702 167.088C101.812 167.453 101.969 167.778 102.173 168.065C102.381 168.347 102.648 168.573 102.973 168.741C103.299 168.906 103.666 168.988 104.074 168.988ZM104.315 168.182C104.021 168.178 103.764 168.108 103.544 167.97C103.328 167.829 103.164 167.645 103.05 167.417C102.936 167.186 102.852 166.949 102.797 166.705C102.746 166.458 102.72 166.203 102.72 165.94C102.72 165.67 102.748 165.411 102.803 165.164C102.862 164.917 102.95 164.683 103.068 164.464C103.189 164.244 103.36 164.069 103.579 163.94C103.799 163.807 104.058 163.74 104.356 163.74C104.595 163.74 104.811 163.781 105.003 163.863C105.2 163.946 105.36 164.058 105.486 164.199C105.615 164.336 105.723 164.501 105.809 164.693C105.9 164.881 105.962 165.079 105.998 165.287C106.037 165.495 106.057 165.713 106.057 165.94C106.057 166.286 106.027 166.59 105.968 166.853C105.91 167.115 105.815 167.349 105.686 167.553C105.556 167.757 105.376 167.914 105.145 168.023C104.917 168.129 104.641 168.182 104.315 168.182Z" fill="#393333"/>
<rect x="55.1357" y="183.945" width="94.5869" height="16.5696" rx="8.28481" fill="#F3F1FF"/>
<path d="M62.8734 193.789L63.4912 192.665L64.1208 193.789C64.1483 193.84 64.1797 193.883 64.215 193.918C64.2542 193.95 64.2934 193.973 64.3327 193.989C64.3719 194.005 64.4111 194.013 64.4503 194.013C64.5523 194.013 64.6426 193.973 64.721 193.895C64.7995 193.816 64.8387 193.722 64.8387 193.612C64.8387 193.573 64.8328 193.534 64.821 193.495C64.8093 193.452 64.7916 193.41 64.7681 193.371L64.1208 192.33L65.4565 192.371C65.5821 192.371 65.6782 192.334 65.7448 192.259C65.8155 192.185 65.8508 192.096 65.8508 191.994C65.8508 191.892 65.8155 191.804 65.7448 191.73C65.6782 191.655 65.5821 191.618 65.4565 191.618L64.1326 191.665L64.7975 190.582C64.8171 190.547 64.8308 190.512 64.8387 190.476C64.8505 190.441 64.8563 190.406 64.8563 190.37C64.8563 190.3 64.8387 190.233 64.8034 190.17C64.7681 190.108 64.721 190.058 64.6622 190.023C64.6073 189.988 64.5465 189.97 64.4798 189.97C64.417 189.97 64.3542 189.99 64.2915 190.029C64.2287 190.068 64.1738 190.127 64.1267 190.206L63.4912 191.353L62.8558 190.188C62.8479 190.172 62.8381 190.157 62.8263 190.141C62.8146 190.125 62.8028 190.111 62.791 190.1C62.7832 190.088 62.7734 190.078 62.7616 190.07C62.7498 190.058 62.7381 190.049 62.7263 190.041C62.7145 190.029 62.7008 190.021 62.6851 190.017C62.6733 190.009 62.6596 190.004 62.6439 190C62.6322 189.992 62.6204 189.988 62.6086 189.988C62.5969 189.984 62.5831 189.982 62.5674 189.982C62.5557 189.978 62.5419 189.976 62.5262 189.976C62.4243 189.976 62.3321 190.015 62.2497 190.094C62.1712 190.168 62.132 190.26 62.132 190.37C62.132 190.449 62.1555 190.525 62.2026 190.6L62.8558 191.665L61.5495 191.618C61.4671 191.618 61.3945 191.637 61.3318 191.677C61.2729 191.712 61.2298 191.757 61.2023 191.812C61.1749 191.867 61.1611 191.928 61.1611 191.994C61.1611 192.096 61.1945 192.185 61.2612 192.259C61.3318 192.334 61.4279 192.371 61.5495 192.371L62.8734 192.33L62.2026 193.407C62.1869 193.43 62.1732 193.456 62.1614 193.483C62.1536 193.507 62.1477 193.53 62.1438 193.554C62.1399 193.573 62.1379 193.595 62.1379 193.618C62.1379 193.728 62.1771 193.822 62.2556 193.901C62.338 193.975 62.4301 194.013 62.5321 194.013C62.5988 194.013 62.6616 193.995 62.7204 193.96C62.7793 193.924 62.8303 193.867 62.8734 193.789Z" fill="#FF007A"/>
<path d="M75.848 193.789L76.4658 192.665L77.0954 193.789C77.1229 193.84 77.1543 193.883 77.1896 193.918C77.2288 193.95 77.268 193.973 77.3073 193.989C77.3465 194.005 77.3857 194.013 77.425 194.013C77.5269 194.013 77.6172 193.973 77.6956 193.895C77.7741 193.816 77.8133 193.722 77.8133 193.612C77.8133 193.573 77.8074 193.534 77.7957 193.495C77.7839 193.452 77.7662 193.41 77.7427 193.371L77.0954 192.33L78.4311 192.371C78.5567 192.371 78.6528 192.334 78.7195 192.259C78.7901 192.185 78.8254 192.096 78.8254 191.994C78.8254 191.892 78.7901 191.804 78.7195 191.73C78.6528 191.655 78.5567 191.618 78.4311 191.618L77.1072 191.665L77.7721 190.582C77.7917 190.547 77.8055 190.512 77.8133 190.476C77.8251 190.441 77.831 190.406 77.831 190.37C77.831 190.3 77.8133 190.233 77.778 190.17C77.7427 190.108 77.6956 190.058 77.6368 190.023C77.5819 189.988 77.5211 189.97 77.4544 189.97C77.3916 189.97 77.3288 189.99 77.2661 190.029C77.2033 190.068 77.1484 190.127 77.1013 190.206L76.4658 191.353L75.8304 190.188C75.8225 190.172 75.8127 190.157 75.8009 190.141C75.7892 190.125 75.7774 190.111 75.7656 190.1C75.7578 190.088 75.748 190.078 75.7362 190.07C75.7244 190.058 75.7127 190.049 75.7009 190.041C75.6891 190.029 75.6754 190.021 75.6597 190.017C75.648 190.009 75.6342 190.004 75.6185 190C75.6068 189.992 75.595 189.988 75.5832 189.988C75.5715 189.984 75.5577 189.982 75.542 189.982C75.5303 189.978 75.5165 189.976 75.5009 189.976C75.3989 189.976 75.3067 190.015 75.2243 190.094C75.1458 190.168 75.1066 190.26 75.1066 190.37C75.1066 190.449 75.1302 190.525 75.1772 190.6L75.8304 191.665L74.5241 191.618C74.4417 191.618 74.3691 191.637 74.3064 191.677C74.2475 191.712 74.2044 191.757 74.1769 191.812C74.1495 191.867 74.1357 191.928 74.1357 191.994C74.1357 192.096 74.1691 192.185 74.2358 192.259C74.3064 192.334 74.4025 192.371 74.5241 192.371L75.848 192.33L75.1772 193.407C75.1615 193.43 75.1478 193.456 75.136 193.483C75.1282 193.507 75.1223 193.53 75.1184 193.554C75.1145 193.573 75.1125 193.595 75.1125 193.618C75.1125 193.728 75.1517 193.822 75.2302 193.901C75.3126 193.975 75.4047 194.013 75.5067 194.013C75.5734 194.013 75.6362 193.995 75.695 193.96C75.7539 193.924 75.8049 193.867 75.848 193.789Z" fill="#FF007A"/>
<path d="M88.8226 193.789L89.4405 192.665L90.0701 193.789C90.0975 193.84 90.1289 193.883 90.1642 193.918C90.2034 193.95 90.2427 193.973 90.2819 193.989C90.3211 194.005 90.3603 194.013 90.3996 194.013C90.5016 194.013 90.5918 193.973 90.6702 193.895C90.7487 193.816 90.7879 193.722 90.7879 193.612C90.7879 193.573 90.782 193.534 90.7703 193.495C90.7585 193.452 90.7408 193.41 90.7173 193.371L90.0701 192.33L91.4057 192.371C91.5313 192.371 91.6274 192.334 91.6941 192.259C91.7647 192.185 91.8 192.096 91.8 191.994C91.8 191.892 91.7647 191.804 91.6941 191.73C91.6274 191.655 91.5313 191.618 91.4057 191.618L90.0818 191.665L90.7467 190.582C90.7663 190.547 90.7801 190.512 90.7879 190.476C90.7997 190.441 90.8056 190.406 90.8056 190.37C90.8056 190.3 90.7879 190.233 90.7526 190.17C90.7173 190.108 90.6702 190.058 90.6114 190.023C90.5565 189.988 90.4957 189.97 90.429 189.97C90.3662 189.97 90.3035 189.99 90.2407 190.029C90.1779 190.068 90.123 190.127 90.0759 190.206L89.4405 191.353L88.805 190.188C88.7971 190.172 88.7873 190.157 88.7756 190.141C88.7638 190.125 88.752 190.111 88.7402 190.1C88.7324 190.088 88.7226 190.078 88.7108 190.07C88.6991 190.058 88.6873 190.049 88.6755 190.041C88.6638 190.029 88.65 190.021 88.6343 190.017C88.6226 190.009 88.6088 190.004 88.5931 190C88.5814 189.992 88.5696 189.988 88.5578 189.988C88.5461 189.984 88.5323 189.982 88.5167 189.982C88.5049 189.978 88.4912 189.976 88.4755 189.976C88.3735 189.976 88.2813 190.015 88.1989 190.094C88.1205 190.168 88.0812 190.26 88.0812 190.37C88.0812 190.449 88.1048 190.525 88.1518 190.6L88.805 191.665L87.4987 191.618C87.4163 191.618 87.3438 191.637 87.281 191.677C87.2221 191.712 87.179 191.757 87.1515 191.812C87.1241 191.867 87.1104 191.928 87.1104 191.994C87.1104 192.096 87.1437 192.185 87.2104 192.259C87.281 192.334 87.3771 192.371 87.4987 192.371L88.8226 192.33L88.1518 193.407C88.1361 193.43 88.1224 193.456 88.1106 193.483C88.1028 193.507 88.0969 193.53 88.093 193.554C88.0891 193.573 88.0871 193.595 88.0871 193.618C88.0871 193.728 88.1263 193.822 88.2048 193.901C88.2872 193.975 88.3794 194.013 88.4813 194.013C88.548 194.013 88.6108 193.995 88.6696 193.96C88.7285 193.924 88.7795 193.867 88.8226 193.789Z" fill="#FF007A"/>
<path d="M101.797 193.789L102.415 192.665L103.045 193.789C103.072 193.84 103.104 193.883 103.139 193.918C103.178 193.95 103.217 193.973 103.256 193.989C103.296 194.005 103.335 194.013 103.374 194.013C103.476 194.013 103.566 193.973 103.645 193.895C103.723 193.816 103.763 193.722 103.763 193.612C103.763 193.573 103.757 193.534 103.745 193.495C103.733 193.452 103.715 193.41 103.692 193.371L103.045 192.33L104.38 192.371C104.506 192.371 104.602 192.334 104.669 192.259C104.739 192.185 104.775 192.096 104.775 191.994C104.775 191.892 104.739 191.804 104.669 191.73C104.602 191.655 104.506 191.618 104.38 191.618L103.056 191.665L103.721 190.582C103.741 190.547 103.755 190.512 103.763 190.476C103.774 190.441 103.78 190.406 103.78 190.37C103.78 190.3 103.763 190.233 103.727 190.17C103.692 190.108 103.645 190.058 103.586 190.023C103.531 189.988 103.47 189.97 103.404 189.97C103.341 189.97 103.278 189.99 103.215 190.029C103.153 190.068 103.098 190.127 103.051 190.206L102.415 191.353L101.78 190.188C101.772 190.172 101.762 190.157 101.75 190.141C101.738 190.125 101.727 190.111 101.715 190.1C101.707 190.088 101.697 190.078 101.685 190.07C101.674 190.058 101.662 190.049 101.65 190.041C101.638 190.029 101.625 190.021 101.609 190.017C101.597 190.009 101.583 190.004 101.568 190C101.556 189.992 101.544 189.988 101.532 189.988C101.521 189.984 101.507 189.982 101.491 189.982C101.479 189.978 101.466 189.976 101.45 189.976C101.348 189.976 101.256 190.015 101.174 190.094C101.095 190.168 101.056 190.26 101.056 190.37C101.056 190.449 101.079 190.525 101.126 190.6L101.78 191.665L100.473 191.618C100.391 191.618 100.318 191.637 100.256 191.677C100.197 191.712 100.154 191.757 100.126 191.812C100.099 191.867 100.085 191.928 100.085 191.994C100.085 192.096 100.118 192.185 100.185 192.259C100.256 192.334 100.352 192.371 100.473 192.371L101.797 192.33L101.126 193.407C101.111 193.43 101.097 193.456 101.085 193.483C101.077 193.507 101.072 193.53 101.068 193.554C101.064 193.573 101.062 193.595 101.062 193.618C101.062 193.728 101.101 193.822 101.179 193.901C101.262 193.975 101.354 194.013 101.456 194.013C101.523 194.013 101.585 193.995 101.644 193.96C101.703 193.924 101.754 193.867 101.797 193.789Z" fill="#FF007A"/>
<path d="M114.771 193.789L115.389 192.665L116.018 193.789C116.046 193.84 116.077 193.883 116.112 193.918C116.152 193.95 116.191 193.973 116.23 193.989C116.269 194.005 116.309 194.013 116.348 194.013C116.45 194.013 116.54 193.973 116.618 193.895C116.697 193.816 116.736 193.722 116.736 193.612C116.736 193.573 116.73 193.534 116.719 193.495C116.707 193.452 116.689 193.41 116.666 193.371L116.018 192.33L117.354 192.371C117.48 192.371 117.576 192.334 117.642 192.259C117.713 192.185 117.748 192.096 117.748 191.994C117.748 191.892 117.713 191.804 117.642 191.73C117.576 191.655 117.48 191.618 117.354 191.618L116.03 191.665L116.695 190.582C116.715 190.547 116.728 190.512 116.736 190.476C116.748 190.441 116.754 190.406 116.754 190.37C116.754 190.3 116.736 190.233 116.701 190.17C116.666 190.108 116.618 190.058 116.56 190.023C116.505 189.988 116.444 189.97 116.377 189.97C116.314 189.97 116.252 189.99 116.189 190.029C116.126 190.068 116.071 190.127 116.024 190.206L115.389 191.353L114.753 190.188C114.745 190.172 114.736 190.157 114.724 190.141C114.712 190.125 114.7 190.111 114.688 190.1C114.681 190.088 114.671 190.078 114.659 190.07C114.647 190.058 114.636 190.049 114.624 190.041C114.612 190.029 114.598 190.021 114.583 190.017C114.571 190.009 114.557 190.004 114.541 190C114.53 189.992 114.518 189.988 114.506 189.988C114.494 189.984 114.481 189.982 114.465 189.982C114.453 189.978 114.439 189.976 114.424 189.976C114.322 189.976 114.23 190.015 114.147 190.094C114.069 190.168 114.029 190.26 114.029 190.37C114.029 190.449 114.053 190.525 114.1 190.6L114.753 191.665L113.447 191.618C113.365 191.618 113.292 191.637 113.229 191.677C113.17 191.712 113.127 191.757 113.1 191.812C113.072 191.867 113.059 191.928 113.059 191.994C113.059 192.096 113.092 192.185 113.159 192.259C113.229 192.334 113.325 192.371 113.447 192.371L114.771 192.33L114.1 193.407C114.084 193.43 114.071 193.456 114.059 193.483C114.051 193.507 114.045 193.53 114.041 193.554C114.037 193.573 114.035 193.595 114.035 193.618C114.035 193.728 114.075 193.822 114.153 193.901C114.235 193.975 114.328 194.013 114.43 194.013C114.496 194.013 114.559 193.995 114.618 193.96C114.677 193.924 114.728 193.867 114.771 193.789Z" fill="#FF007A"/>
<path d="M127.745 193.789L128.363 192.665L128.993 193.789C129.02 193.84 129.052 193.883 129.087 193.918C129.126 193.95 129.166 193.973 129.205 193.989C129.244 194.005 129.283 194.013 129.322 194.013C129.424 194.013 129.515 193.973 129.593 193.895C129.672 193.816 129.711 193.722 129.711 193.612C129.711 193.573 129.705 193.534 129.693 193.495C129.681 193.452 129.664 193.41 129.64 193.371L128.993 192.33L130.329 192.371C130.454 192.371 130.55 192.334 130.617 192.259C130.688 192.185 130.723 192.096 130.723 191.994C130.723 191.892 130.688 191.804 130.617 191.73C130.55 191.655 130.454 191.618 130.329 191.618L129.005 191.665L129.67 190.582C129.689 190.547 129.703 190.512 129.711 190.476C129.723 190.441 129.728 190.406 129.728 190.37C129.728 190.3 129.711 190.233 129.675 190.17C129.64 190.108 129.593 190.058 129.534 190.023C129.479 189.988 129.419 189.97 129.352 189.97C129.289 189.97 129.226 189.99 129.164 190.029C129.101 190.068 129.046 190.127 128.999 190.206L128.363 191.353L127.728 190.188C127.72 190.172 127.71 190.157 127.698 190.141C127.687 190.125 127.675 190.111 127.663 190.1C127.655 190.088 127.645 190.078 127.634 190.07C127.622 190.058 127.61 190.049 127.598 190.041C127.587 190.029 127.573 190.021 127.557 190.017C127.545 190.009 127.532 190.004 127.516 190C127.504 189.992 127.492 189.988 127.481 189.988C127.469 189.984 127.455 189.982 127.44 189.982C127.428 189.978 127.414 189.976 127.398 189.976C127.296 189.976 127.204 190.015 127.122 190.094C127.043 190.168 127.004 190.26 127.004 190.37C127.004 190.449 127.028 190.525 127.075 190.6L127.728 191.665L126.422 191.618C126.339 191.618 126.267 191.637 126.204 191.677C126.145 191.712 126.102 191.757 126.074 191.812C126.047 191.867 126.033 191.928 126.033 191.994C126.033 192.096 126.067 192.185 126.133 192.259C126.204 192.334 126.3 192.371 126.422 192.371L127.745 192.33L127.075 193.407C127.059 193.43 127.045 193.456 127.033 193.483C127.026 193.507 127.02 193.53 127.016 193.554C127.012 193.573 127.01 193.595 127.01 193.618C127.01 193.728 127.049 193.822 127.128 193.901C127.21 193.975 127.302 194.013 127.404 194.013C127.471 194.013 127.534 193.995 127.592 193.96C127.651 193.924 127.702 193.867 127.745 193.789Z" fill="#FF007A"/>
<path d="M140.72 193.789L141.338 192.665L141.968 193.789C141.995 193.84 142.026 193.883 142.062 193.918C142.101 193.95 142.14 193.973 142.179 193.989C142.219 194.005 142.258 194.013 142.297 194.013C142.399 194.013 142.489 193.973 142.568 193.895C142.646 193.816 142.685 193.722 142.685 193.612C142.685 193.573 142.679 193.534 142.668 193.495C142.656 193.452 142.638 193.41 142.615 193.371L141.968 192.33L143.303 192.371C143.429 192.371 143.525 192.334 143.592 192.259C143.662 192.185 143.697 192.096 143.697 191.994C143.697 191.892 143.662 191.804 143.592 191.73C143.525 191.655 143.429 191.618 143.303 191.618L141.979 191.665L142.644 190.582C142.664 190.547 142.678 190.512 142.685 190.476C142.697 190.441 142.703 190.406 142.703 190.37C142.703 190.3 142.685 190.233 142.65 190.17C142.615 190.108 142.568 190.058 142.509 190.023C142.454 189.988 142.393 189.97 142.326 189.97C142.264 189.97 142.201 189.99 142.138 190.029C142.075 190.068 142.02 190.127 141.973 190.206L141.338 191.353L140.702 190.188C140.695 190.172 140.685 190.157 140.673 190.141C140.661 190.125 140.649 190.111 140.638 190.1C140.63 190.088 140.62 190.078 140.608 190.07C140.597 190.058 140.585 190.049 140.573 190.041C140.561 190.029 140.547 190.021 140.532 190.017C140.52 190.009 140.506 190.004 140.491 190C140.479 189.992 140.467 189.988 140.455 189.988C140.444 189.984 140.43 189.982 140.414 189.982C140.402 189.978 140.389 189.976 140.373 189.976C140.271 189.976 140.179 190.015 140.096 190.094C140.018 190.168 139.979 190.26 139.979 190.37C139.979 190.449 140.002 190.525 140.049 190.6L140.702 191.665L139.396 191.618C139.314 191.618 139.241 191.637 139.178 191.677C139.12 191.712 139.076 191.757 139.049 191.812C139.022 191.867 139.008 191.928 139.008 191.994C139.008 192.096 139.041 192.185 139.108 192.259C139.178 192.334 139.275 192.371 139.396 192.371L140.72 192.33L140.049 193.407C140.034 193.43 140.02 193.456 140.008 193.483C140 193.507 139.994 193.53 139.99 193.554C139.987 193.573 139.985 193.595 139.985 193.618C139.985 193.728 140.024 193.822 140.102 193.901C140.185 193.975 140.277 194.013 140.379 194.013C140.445 194.013 140.508 193.995 140.567 193.96C140.626 193.924 140.677 193.867 140.72 193.789Z" fill="#FF007A"/>
<path d="M59.9965 219.176C60.9105 219.176 61.7048 218.962 62.3795 218.534C62.5796 218.405 62.6796 218.24 62.6796 218.04C62.6796 217.903 62.6325 217.783 62.5384 217.681C62.4443 217.575 62.3305 217.522 62.1971 217.522C62.1187 217.522 62.0402 217.544 61.9618 217.587C61.7578 217.697 61.5871 217.783 61.4498 217.846C61.3165 217.909 61.136 217.969 60.9085 218.028C60.6849 218.083 60.4554 218.111 60.2201 218.111C59.7611 218.111 59.3551 218.03 59.0021 217.869C58.649 217.705 58.3627 217.475 58.143 217.181C57.9233 216.883 57.7586 216.536 57.6487 216.139C57.5389 215.743 57.484 215.304 57.484 214.821C57.484 214.339 57.5389 213.9 57.6487 213.503C57.7586 213.103 57.9213 212.754 58.1371 212.456C58.3528 212.158 58.6333 211.926 58.9785 211.762C59.3237 211.593 59.7199 211.509 60.1671 211.509C60.3436 211.509 60.5104 211.518 60.6673 211.538C60.8242 211.558 60.9673 211.589 61.0968 211.632C61.2262 211.671 61.3282 211.705 61.4028 211.732C61.4773 211.76 61.5675 211.801 61.6734 211.856C61.7794 211.907 61.8402 211.936 61.8558 211.944C61.8872 211.96 61.9186 211.971 61.95 211.979C61.9853 211.983 62.0186 211.985 62.05 211.985C62.1402 211.985 62.2246 211.96 62.303 211.909C62.3854 211.858 62.4501 211.791 62.4972 211.709C62.5443 211.622 62.5678 211.534 62.5678 211.444C62.5678 211.354 62.5423 211.269 62.4913 211.191C62.4403 211.108 62.3619 211.04 62.256 210.985C61.5852 210.624 60.8732 210.444 60.12 210.444C59.3159 210.444 58.6039 210.634 57.9841 211.014C57.3682 211.391 56.8956 211.911 56.566 212.574C56.2365 213.237 56.0718 213.992 56.0718 214.839C56.0718 215.667 56.2287 216.408 56.5425 217.063C56.8563 217.718 57.3133 218.234 57.9135 218.611C58.5137 218.987 59.208 219.176 59.9965 219.176ZM66.6956 218.334C66.1308 218.334 65.6875 218.136 65.3658 217.74C65.0442 217.344 64.8833 216.802 64.8833 216.116C64.8833 215.425 65.0422 214.882 65.3599 214.486C65.6816 214.09 66.1268 213.892 66.6956 213.892C67.2605 213.892 67.7038 214.092 68.0254 214.492C68.3471 214.888 68.5079 215.429 68.5079 216.116C68.5079 216.806 68.3491 217.348 68.0313 217.74C67.7136 218.132 67.2684 218.33 66.6956 218.334ZM66.6956 219.14C67.1703 219.14 67.5998 219.06 67.9843 218.899C68.3687 218.734 68.6825 218.513 68.9257 218.234C69.1689 217.956 69.3552 217.636 69.4847 217.275C69.6141 216.91 69.6789 216.524 69.6789 216.116C69.6789 215.551 69.5651 215.043 69.3376 214.592C69.114 214.137 68.7727 213.772 68.3138 213.497C67.8587 213.223 67.3194 213.086 66.6956 213.086C66.221 213.086 65.7914 213.166 65.407 213.327C65.0265 213.488 64.7127 213.707 64.4656 213.986C64.2224 214.264 64.036 214.586 63.9066 214.951C63.7771 215.312 63.7124 215.7 63.7124 216.116C63.7124 216.528 63.7771 216.914 63.9066 217.275C64.036 217.636 64.2224 217.956 64.4656 218.234C64.7088 218.513 65.0226 218.734 65.407 218.899C65.7914 219.06 66.221 219.14 66.6956 219.14ZM71.4589 219.046C71.6198 219.046 71.759 218.997 71.8767 218.899C71.9944 218.797 72.0532 218.658 72.0532 218.481V215.686C72.0689 215.137 72.2297 214.702 72.5357 214.38C72.8417 214.054 73.2124 213.892 73.6478 213.892C74.0362 213.892 74.3441 214.015 74.5716 214.262C74.7991 214.51 74.9129 214.868 74.9129 215.339V218.481C74.9129 218.658 74.9698 218.797 75.0835 218.899C75.2012 218.997 75.3405 219.046 75.5013 219.046C75.6621 219.046 75.8014 218.997 75.9191 218.899C76.0407 218.797 76.1015 218.658 76.1015 218.481V215.351C76.1015 214.967 76.0466 214.627 75.9367 214.333C75.8269 214.035 75.6719 213.798 75.4719 213.621C75.2757 213.441 75.0502 213.307 74.7952 213.221C74.5442 213.131 74.2676 213.086 73.9656 213.086C73.5184 213.086 73.1261 213.176 72.7887 213.356C72.4553 213.537 72.2101 213.798 72.0532 214.139V213.721C72.0532 213.552 71.9944 213.421 71.8767 213.327C71.7629 213.233 71.6256 213.186 71.4648 213.186C71.304 213.186 71.1647 213.235 71.047 213.333C70.9294 213.427 70.8705 213.562 70.8705 213.739V218.481C70.8705 218.658 70.9274 218.797 71.0412 218.899C71.1588 218.997 71.2981 219.046 71.4589 219.046ZM78.723 219.046C78.8838 219.046 79.0231 218.995 79.1407 218.893C79.2584 218.791 79.3173 218.648 79.3173 218.464V214.009H80.2528C80.3941 214.009 80.498 213.974 80.5647 213.903C80.6353 213.833 80.6706 213.741 80.6706 213.627C80.6706 213.521 80.6353 213.431 80.5647 213.356C80.4941 213.278 80.3901 213.239 80.2528 213.239H79.3173V212.75C79.3173 212.46 79.331 212.23 79.3585 212.062C79.3859 211.889 79.4349 211.758 79.5056 211.667C79.5762 211.577 79.6566 211.52 79.7468 211.497C79.837 211.469 79.9626 211.456 80.1234 211.456H80.6235C80.753 211.456 80.853 211.413 80.9236 211.326C80.9942 211.236 81.0295 211.13 81.0295 211.008C81.0295 210.887 80.9923 210.779 80.9177 210.685C80.8471 210.591 80.7491 210.544 80.6235 210.544H79.8998C78.719 210.544 78.1287 211.203 78.1287 212.521V213.239H77.4167C77.2755 213.239 77.1676 213.278 77.0931 213.356C77.0225 213.431 76.9872 213.521 76.9872 213.627C76.9872 213.737 77.0225 213.829 77.0931 213.903C77.1676 213.974 77.2755 214.009 77.4167 214.009H78.1287V218.464C78.1287 218.648 78.1875 218.791 78.3052 218.893C78.4229 218.995 78.5621 219.046 78.723 219.046ZM82.333 219.046C82.4938 219.046 82.6331 218.993 82.7508 218.887C82.8724 218.781 82.9332 218.636 82.9332 218.452V213.774C82.9332 213.59 82.8743 213.444 82.7566 213.339C82.639 213.233 82.5017 213.18 82.3447 213.18C82.1839 213.18 82.0427 213.233 81.9211 213.339C81.8034 213.444 81.7446 213.59 81.7446 213.774V218.452C81.7446 218.644 81.8014 218.791 81.9152 218.893C82.029 218.995 82.1682 219.046 82.333 219.046ZM82.3389 211.891C82.5585 211.891 82.7351 211.828 82.8684 211.703C83.0057 211.573 83.0744 211.405 83.0744 211.197C83.0744 210.989 83.0077 210.82 82.8743 210.691C82.7409 210.561 82.5644 210.497 82.3447 210.497C82.1212 210.497 81.9407 210.561 81.8034 210.691C81.6661 210.82 81.5975 210.989 81.5975 211.197C81.5975 211.405 81.6661 211.573 81.8034 211.703C81.9407 211.828 82.1192 211.891 82.3389 211.891ZM85.0839 219.046C85.2447 219.046 85.386 218.997 85.5076 218.899C85.6292 218.801 85.69 218.664 85.69 218.487V215.61C85.69 215.112 85.8371 214.741 86.1313 214.498C86.4294 214.255 86.8393 214.133 87.3611 214.133C87.4905 214.133 87.5905 214.086 87.6611 213.992C87.7318 213.898 87.7671 213.786 87.7671 213.656C87.7671 213.515 87.7278 213.393 87.6494 213.291C87.5709 213.19 87.4611 213.139 87.3199 213.139C86.9237 213.139 86.5746 213.262 86.2725 213.509C85.9744 213.756 85.7763 214.062 85.6782 214.427L85.69 213.703C85.69 213.637 85.6782 213.576 85.6547 213.521C85.6351 213.462 85.6056 213.413 85.5664 213.374C85.5311 213.335 85.488 213.301 85.437 213.274C85.3899 213.242 85.3369 213.221 85.2781 213.209C85.2232 213.193 85.1643 213.186 85.1016 213.186C84.9407 213.186 84.7995 213.235 84.6779 213.333C84.5602 213.427 84.5014 213.56 84.5014 213.733V218.487C84.5014 218.668 84.5583 218.807 84.672 218.905C84.7858 218.999 84.9231 219.046 85.0839 219.046ZM89.3176 219.046C89.4824 219.046 89.6236 218.997 89.7413 218.899C89.8629 218.801 89.9237 218.662 89.9237 218.481V215.698C89.9237 215.133 90.0688 214.69 90.3591 214.368C90.6533 214.047 91.0436 213.886 91.5301 213.886C91.9223 213.886 92.2244 214.009 92.4362 214.256C92.652 214.504 92.7598 214.882 92.7598 215.392V218.475C92.7598 218.656 92.8167 218.797 92.9305 218.899C93.0482 218.997 93.1874 219.046 93.3482 219.046C93.513 219.046 93.6542 218.997 93.7719 218.899C93.8896 218.797 93.9484 218.656 93.9484 218.475V215.775C93.9484 215.17 94.0995 214.706 94.4015 214.38C94.7036 214.051 95.0899 213.886 95.5607 213.886C95.9569 213.886 96.2609 214.003 96.4727 214.239C96.6845 214.474 96.7904 214.827 96.7904 215.298V218.481C96.7904 218.662 96.8473 218.801 96.9611 218.899C97.0788 218.997 97.218 219.046 97.3789 219.046C97.5436 219.046 97.6848 218.997 97.8025 218.899C97.9202 218.801 97.979 218.662 97.979 218.481V215.327C97.979 214.943 97.9222 214.606 97.8084 214.315C97.6986 214.021 97.5436 213.786 97.3436 213.609C97.1474 213.433 96.9219 213.301 96.6669 213.215C96.4119 213.129 96.1334 213.086 95.8313 213.086C95.3292 213.086 94.8977 213.197 94.5368 213.421C94.1799 213.645 93.917 213.98 93.7484 214.427C93.6268 214.015 93.3953 213.69 93.054 213.45C92.7167 213.207 92.3028 213.086 91.8125 213.086C91.3928 213.086 91.0181 213.176 90.6886 213.356C90.363 213.537 90.1081 213.809 89.9237 214.174V213.703C89.9237 213.539 89.8629 213.411 89.7413 213.321C89.6236 213.227 89.4863 213.18 89.3294 213.18C89.1686 213.18 89.0293 213.229 88.9116 213.327C88.794 213.425 88.7351 213.56 88.7351 213.733V218.481C88.7351 218.662 88.792 218.801 88.9058 218.899C89.0195 218.997 89.1568 219.046 89.3176 219.046ZM103.646 219.052C103.826 219.052 103.981 218.995 104.11 218.881C104.244 218.768 104.311 218.609 104.311 218.405V215.504H106.064C106.547 215.504 106.972 215.463 107.341 215.38C107.71 215.294 108.035 215.159 108.318 214.974C108.6 214.786 108.814 214.531 108.959 214.209C109.108 213.888 109.183 213.503 109.183 213.056C109.183 212.193 108.926 211.571 108.412 211.191C107.898 210.806 107.155 210.614 106.182 210.614H103.652C103.463 210.614 103.302 210.679 103.169 210.808C103.04 210.938 102.975 211.095 102.975 211.279V218.405C102.975 218.609 103.042 218.768 103.175 218.881C103.308 218.995 103.465 219.052 103.646 219.052ZM104.311 214.486V211.673H106.088C106.707 211.673 107.158 211.773 107.441 211.973C107.723 212.174 107.865 212.534 107.865 213.056C107.865 213.59 107.717 213.962 107.423 214.174C107.129 214.382 106.666 214.486 106.035 214.486H104.311ZM111.716 219.14C112.54 219.14 113.126 218.781 113.475 218.063V218.499C113.475 218.617 113.503 218.719 113.558 218.805C113.616 218.887 113.687 218.95 113.769 218.993C113.856 219.032 113.95 219.052 114.052 219.052C114.209 219.052 114.346 219.003 114.464 218.905C114.581 218.803 114.64 218.664 114.64 218.487V215.169C114.64 214.455 114.432 213.929 114.016 213.592C113.601 213.254 113.032 213.086 112.31 213.086C111.475 213.086 110.753 213.25 110.145 213.58C110.078 213.615 110.029 213.66 109.998 213.715C109.966 213.766 109.951 213.825 109.951 213.892C109.951 213.927 109.955 213.962 109.962 213.998C109.974 214.033 109.988 214.068 110.004 214.104C110.023 214.135 110.045 214.166 110.068 214.198C110.096 214.225 110.125 214.251 110.157 214.274C110.188 214.294 110.221 214.309 110.257 214.321C110.292 214.333 110.329 214.339 110.368 214.339C110.419 214.339 110.468 214.329 110.515 214.309C110.719 214.223 110.882 214.156 111.004 214.109C111.129 214.062 111.314 214.013 111.557 213.962C111.8 213.907 112.037 213.88 112.269 213.88C113.061 213.88 113.458 214.276 113.458 215.068V215.645C113.034 215.645 112.675 215.651 112.381 215.663C112.09 215.671 111.8 215.69 111.51 215.722C111.224 215.749 110.988 215.79 110.804 215.845C110.623 215.9 110.453 215.973 110.292 216.063C110.131 216.149 110.007 216.257 109.921 216.387C109.835 216.512 109.766 216.663 109.715 216.84C109.668 217.012 109.645 217.214 109.645 217.446C109.645 217.987 109.837 218.405 110.221 218.699C110.606 218.993 111.104 219.14 111.716 219.14ZM111.833 218.364C111.508 218.364 111.249 218.285 111.057 218.128C110.865 217.971 110.768 217.728 110.768 217.399C110.768 217.242 110.784 217.108 110.816 216.998C110.847 216.885 110.906 216.787 110.992 216.704C111.082 216.622 111.188 216.557 111.31 216.51C111.431 216.463 111.598 216.426 111.81 216.398C112.026 216.367 112.259 216.347 112.51 216.339C112.761 216.328 113.075 216.322 113.452 216.322V216.487C113.452 217.032 113.289 217.481 112.963 217.834C112.638 218.187 112.261 218.364 111.833 218.364ZM116.161 218.499C116.581 218.797 117.099 218.997 117.715 219.099C117.942 219.134 118.166 219.152 118.386 219.152C118.723 219.152 119.031 219.115 119.309 219.04C119.592 218.966 119.839 218.856 120.051 218.711C120.263 218.562 120.427 218.369 120.545 218.134C120.663 217.899 120.722 217.63 120.722 217.328C120.722 216.896 120.588 216.545 120.321 216.275C120.055 216.004 119.621 215.792 119.021 215.639L118.033 215.398C117.636 215.3 117.375 215.204 117.25 215.11C117.128 215.016 117.068 214.857 117.068 214.633C117.068 214.457 117.126 214.309 117.244 214.192C117.366 214.07 117.521 213.986 117.709 213.939C117.901 213.888 118.121 213.862 118.368 213.862C118.45 213.862 118.535 213.866 118.621 213.874C118.707 213.882 118.786 213.892 118.856 213.903C118.927 213.915 119.001 213.931 119.08 213.951C119.158 213.966 119.225 213.984 119.28 214.003C119.339 214.019 119.402 214.039 119.468 214.062C119.539 214.082 119.594 214.1 119.633 214.115C119.672 214.131 119.719 214.151 119.774 214.174C119.833 214.194 119.872 214.207 119.892 214.215C119.962 214.239 120.027 214.251 120.086 214.251C120.141 214.251 120.192 214.241 120.239 214.221C120.286 214.202 120.325 214.176 120.357 214.145C120.388 214.109 120.412 214.07 120.427 214.027C120.443 213.98 120.451 213.933 120.451 213.886C120.451 213.717 120.367 213.592 120.198 213.509C119.97 213.392 119.69 213.29 119.356 213.203C119.023 213.113 118.664 213.068 118.28 213.068C117.424 213.068 116.793 213.264 116.385 213.656C116.106 213.927 115.967 214.27 115.967 214.686C115.967 214.839 115.981 214.978 116.008 215.104C116.04 215.229 116.079 215.339 116.126 215.433C116.173 215.527 116.24 215.614 116.326 215.692C116.412 215.771 116.499 215.837 116.585 215.892C116.675 215.947 116.791 216.002 116.932 216.057C117.073 216.108 117.205 216.153 117.326 216.192C117.452 216.228 117.607 216.269 117.791 216.316L118.792 216.569C119.113 216.651 119.347 216.759 119.492 216.893C119.637 217.026 119.709 217.2 119.709 217.416C119.709 217.73 119.58 217.965 119.321 218.122C119.066 218.279 118.737 218.358 118.333 218.358C117.756 218.358 117.195 218.191 116.65 217.858C116.556 217.803 116.463 217.775 116.373 217.775C116.259 217.775 116.165 217.814 116.091 217.893C116.016 217.971 115.979 218.062 115.979 218.164C115.979 218.301 116.04 218.413 116.161 218.499ZM121.948 218.499C122.368 218.797 122.886 218.997 123.502 219.099C123.729 219.134 123.953 219.152 124.173 219.152C124.51 219.152 124.818 219.115 125.096 219.04C125.379 218.966 125.626 218.856 125.838 218.711C126.05 218.562 126.214 218.369 126.332 218.134C126.45 217.899 126.509 217.63 126.509 217.328C126.509 216.896 126.375 216.545 126.109 216.275C125.842 216.004 125.408 215.792 124.808 215.639L123.82 215.398C123.423 215.3 123.163 215.204 123.037 215.11C122.915 215.016 122.855 214.857 122.855 214.633C122.855 214.457 122.913 214.309 123.031 214.192C123.153 214.07 123.308 213.986 123.496 213.939C123.688 213.888 123.908 213.862 124.155 213.862C124.237 213.862 124.322 213.866 124.408 213.874C124.494 213.882 124.573 213.892 124.643 213.903C124.714 213.915 124.789 213.931 124.867 213.951C124.945 213.966 125.012 213.984 125.067 214.003C125.126 214.019 125.189 214.039 125.255 214.062C125.326 214.082 125.381 214.1 125.42 214.115C125.459 214.131 125.506 214.151 125.561 214.174C125.62 214.194 125.659 214.207 125.679 214.215C125.75 214.239 125.814 214.251 125.873 214.251C125.928 214.251 125.979 214.241 126.026 214.221C126.073 214.202 126.112 214.176 126.144 214.145C126.175 214.109 126.199 214.07 126.214 214.027C126.23 213.98 126.238 213.933 126.238 213.886C126.238 213.717 126.154 213.592 125.985 213.509C125.757 213.392 125.477 213.29 125.144 213.203C124.81 213.113 124.451 213.068 124.067 213.068C123.212 213.068 122.58 213.264 122.172 213.656C121.894 213.927 121.754 214.27 121.754 214.686C121.754 214.839 121.768 214.978 121.796 215.104C121.827 215.229 121.866 215.339 121.913 215.433C121.96 215.527 122.027 215.614 122.113 215.692C122.2 215.771 122.286 215.837 122.372 215.892C122.462 215.947 122.578 216.002 122.719 216.057C122.861 216.108 122.992 216.153 123.114 216.192C123.239 216.228 123.394 216.269 123.578 216.316L124.579 216.569C124.9 216.651 125.134 216.759 125.279 216.893C125.424 217.026 125.497 217.2 125.497 217.416C125.497 217.73 125.367 217.965 125.108 218.122C124.853 218.279 124.524 218.358 124.12 218.358C123.543 218.358 122.982 218.191 122.437 217.858C122.343 217.803 122.251 217.775 122.16 217.775C122.047 217.775 121.952 217.814 121.878 217.893C121.803 217.971 121.766 218.062 121.766 218.164C121.766 218.301 121.827 218.413 121.948 218.499ZM134.208 219.046C134.577 219.046 134.834 218.826 134.979 218.387L136.497 213.898C136.521 213.831 136.532 213.764 136.532 213.697C136.532 213.654 136.526 213.613 136.515 213.574C136.503 213.531 136.487 213.494 136.468 213.462C136.448 213.427 136.424 213.395 136.397 213.368C136.373 213.341 136.344 213.317 136.309 213.297C136.277 213.274 136.242 213.254 136.203 213.239C136.168 213.223 136.13 213.211 136.091 213.203C136.052 213.195 136.013 213.191 135.973 213.191C135.86 213.191 135.756 213.223 135.661 213.286C135.571 213.348 135.507 213.443 135.467 213.568L134.108 217.805L132.725 213.815C132.58 213.392 132.323 213.18 131.955 213.18C131.582 213.18 131.323 213.392 131.178 213.815L129.795 217.805L128.442 213.568C128.402 213.443 128.336 213.348 128.242 213.286C128.148 213.223 128.044 213.191 127.93 213.191C127.891 213.191 127.851 213.195 127.812 213.203C127.773 213.211 127.736 213.223 127.7 213.239C127.665 213.254 127.63 213.274 127.594 213.297C127.563 213.317 127.534 213.341 127.506 213.368C127.483 213.395 127.461 213.427 127.441 213.462C127.422 213.494 127.406 213.531 127.394 213.574C127.383 213.613 127.377 213.654 127.377 213.697C127.377 213.764 127.388 213.831 127.412 213.898L128.93 218.387C129.071 218.826 129.328 219.046 129.701 219.046C130.101 219.046 130.383 218.805 130.548 218.322L131.955 214.309L133.355 218.322C133.524 218.805 133.808 219.046 134.208 219.046ZM140.272 218.334C139.707 218.334 139.264 218.136 138.942 217.74C138.62 217.344 138.46 216.802 138.46 216.116C138.46 215.425 138.618 214.882 138.936 214.486C139.258 214.09 139.703 213.892 140.272 213.892C140.837 213.892 141.28 214.092 141.602 214.492C141.923 214.888 142.084 215.429 142.084 216.116C142.084 216.806 141.925 217.348 141.608 217.74C141.29 218.132 140.845 218.33 140.272 218.334ZM140.272 219.14C140.746 219.14 141.176 219.06 141.56 218.899C141.945 218.734 142.259 218.513 142.502 218.234C142.745 217.956 142.931 217.636 143.061 217.275C143.19 216.91 143.255 216.524 143.255 216.116C143.255 215.551 143.141 215.043 142.914 214.592C142.69 214.137 142.349 213.772 141.89 213.497C141.435 213.223 140.896 213.086 140.272 213.086C139.797 213.086 139.368 213.166 138.983 213.327C138.603 213.488 138.289 213.707 138.042 213.986C137.799 214.264 137.612 214.586 137.483 214.951C137.353 215.312 137.289 215.7 137.289 216.116C137.289 216.528 137.353 216.914 137.483 217.275C137.612 217.636 137.799 217.956 138.042 218.234C138.285 218.513 138.599 218.734 138.983 218.899C139.368 219.06 139.797 219.14 140.272 219.14ZM145.041 219.046C145.202 219.046 145.343 218.997 145.465 218.899C145.586 218.801 145.647 218.664 145.647 218.487V215.61C145.647 215.112 145.794 214.741 146.088 214.498C146.386 214.255 146.796 214.133 147.318 214.133C147.448 214.133 147.548 214.086 147.618 213.992C147.689 213.898 147.724 213.786 147.724 213.656C147.724 213.515 147.685 213.393 147.606 213.291C147.528 213.19 147.418 213.139 147.277 213.139C146.881 213.139 146.532 213.262 146.23 213.509C145.931 213.756 145.733 214.062 145.635 214.427L145.647 213.703C145.647 213.637 145.635 213.576 145.612 213.521C145.592 213.462 145.563 213.413 145.523 213.374C145.488 213.335 145.445 213.301 145.394 213.274C145.347 213.242 145.294 213.221 145.235 213.209C145.18 213.193 145.121 213.186 145.059 213.186C144.898 213.186 144.757 213.235 144.635 213.333C144.517 213.427 144.458 213.56 144.458 213.733V218.487C144.458 218.668 144.515 218.807 144.629 218.905C144.743 218.999 144.88 219.046 145.041 219.046ZM150.858 219.14C151.795 219.14 152.458 218.779 152.846 218.058V218.475C152.846 218.66 152.897 218.801 152.999 218.899C153.101 218.993 153.246 219.04 153.435 219.04C153.596 219.04 153.735 218.991 153.853 218.893C153.97 218.791 154.029 218.652 154.029 218.475V211.173C154.029 210.997 153.97 210.861 153.853 210.767C153.739 210.669 153.601 210.62 153.441 210.62C153.28 210.62 153.141 210.669 153.023 210.767C152.905 210.861 152.846 210.997 152.846 211.173V214.115C152.466 213.429 151.832 213.086 150.946 213.086C150.138 213.086 149.498 213.364 149.028 213.921C148.557 214.478 148.321 215.196 148.321 216.075C148.321 216.487 148.376 216.875 148.486 217.24C148.596 217.605 148.753 217.93 148.957 218.216C149.165 218.499 149.432 218.724 149.757 218.893C150.083 219.058 150.45 219.14 150.858 219.14ZM151.099 218.334C150.805 218.33 150.548 218.26 150.328 218.122C150.112 217.981 149.947 217.797 149.834 217.569C149.72 217.338 149.636 217.1 149.581 216.857C149.53 216.61 149.504 216.355 149.504 216.092C149.504 215.822 149.532 215.563 149.587 215.316C149.645 215.068 149.734 214.835 149.851 214.615C149.973 214.396 150.144 214.221 150.363 214.092C150.583 213.958 150.842 213.892 151.14 213.892C151.379 213.892 151.595 213.933 151.787 214.015C151.983 214.098 152.144 214.209 152.27 214.351C152.399 214.488 152.507 214.653 152.593 214.845C152.684 215.033 152.746 215.231 152.782 215.439C152.821 215.647 152.84 215.865 152.84 216.092C152.84 216.438 152.811 216.742 152.752 217.004C152.693 217.267 152.599 217.501 152.47 217.705C152.34 217.909 152.16 218.065 151.928 218.175C151.701 218.281 151.424 218.334 151.099 218.334Z" fill="#393333"/>
<rect x="55.1357" y="234.097" width="94.5869" height="16.5696" rx="8.28481" fill="#F3F1FF"/>
<path d="M62.8734 243.941L63.4912 242.817L64.1208 243.941C64.1483 243.992 64.1797 244.035 64.215 244.07C64.2542 244.102 64.2934 244.125 64.3327 244.141C64.3719 244.157 64.4111 244.164 64.4503 244.164C64.5523 244.164 64.6426 244.125 64.721 244.047C64.7995 243.968 64.8387 243.874 64.8387 243.764C64.8387 243.725 64.8328 243.686 64.821 243.647C64.8093 243.603 64.7916 243.562 64.7681 243.523L64.1208 242.482L65.4565 242.523C65.5821 242.523 65.6782 242.486 65.7448 242.411C65.8155 242.336 65.8508 242.248 65.8508 242.146C65.8508 242.044 65.8155 241.956 65.7448 241.881C65.6782 241.807 65.5821 241.77 65.4565 241.77L64.1326 241.817L64.7975 240.734C64.8171 240.699 64.8308 240.663 64.8387 240.628C64.8505 240.593 64.8563 240.557 64.8563 240.522C64.8563 240.452 64.8387 240.385 64.8034 240.322C64.7681 240.259 64.721 240.21 64.6622 240.175C64.6073 240.14 64.5465 240.122 64.4798 240.122C64.417 240.122 64.3542 240.142 64.2915 240.181C64.2287 240.22 64.1738 240.279 64.1267 240.357L63.4912 241.505L62.8558 240.34C62.8479 240.324 62.8381 240.308 62.8263 240.293C62.8146 240.277 62.8028 240.263 62.791 240.252C62.7832 240.24 62.7734 240.23 62.7616 240.222C62.7498 240.21 62.7381 240.201 62.7263 240.193C62.7145 240.181 62.7008 240.173 62.6851 240.169C62.6733 240.161 62.6596 240.155 62.6439 240.151C62.6322 240.144 62.6204 240.14 62.6086 240.14C62.5969 240.136 62.5831 240.134 62.5674 240.134C62.5557 240.13 62.5419 240.128 62.5262 240.128C62.4243 240.128 62.3321 240.167 62.2497 240.246C62.1712 240.32 62.132 240.412 62.132 240.522C62.132 240.601 62.1555 240.677 62.2026 240.752L62.8558 241.817L61.5495 241.77C61.4671 241.77 61.3945 241.789 61.3318 241.828C61.2729 241.864 61.2298 241.909 61.2023 241.964C61.1749 242.019 61.1611 242.08 61.1611 242.146C61.1611 242.248 61.1945 242.336 61.2612 242.411C61.3318 242.486 61.4279 242.523 61.5495 242.523L62.8734 242.482L62.2026 243.558C62.1869 243.582 62.1732 243.607 62.1614 243.635C62.1536 243.658 62.1477 243.682 62.1438 243.705C62.1399 243.725 62.1379 243.747 62.1379 243.77C62.1379 243.88 62.1771 243.974 62.2556 244.053C62.338 244.127 62.4301 244.164 62.5321 244.164C62.5988 244.164 62.6616 244.147 62.7204 244.111C62.7793 244.076 62.8303 244.019 62.8734 243.941Z" fill="#FF007A"/>
<path d="M75.848 243.941L76.4658 242.817L77.0954 243.941C77.1229 243.992 77.1543 244.035 77.1896 244.07C77.2288 244.102 77.268 244.125 77.3073 244.141C77.3465 244.157 77.3857 244.164 77.425 244.164C77.5269 244.164 77.6172 244.125 77.6956 244.047C77.7741 243.968 77.8133 243.874 77.8133 243.764C77.8133 243.725 77.8074 243.686 77.7957 243.647C77.7839 243.603 77.7662 243.562 77.7427 243.523L77.0954 242.482L78.4311 242.523C78.5567 242.523 78.6528 242.486 78.7195 242.411C78.7901 242.336 78.8254 242.248 78.8254 242.146C78.8254 242.044 78.7901 241.956 78.7195 241.881C78.6528 241.807 78.5567 241.77 78.4311 241.77L77.1072 241.817L77.7721 240.734C77.7917 240.699 77.8055 240.663 77.8133 240.628C77.8251 240.593 77.831 240.557 77.831 240.522C77.831 240.452 77.8133 240.385 77.778 240.322C77.7427 240.259 77.6956 240.21 77.6368 240.175C77.5819 240.14 77.5211 240.122 77.4544 240.122C77.3916 240.122 77.3288 240.142 77.2661 240.181C77.2033 240.22 77.1484 240.279 77.1013 240.357L76.4658 241.505L75.8304 240.34C75.8225 240.324 75.8127 240.308 75.8009 240.293C75.7892 240.277 75.7774 240.263 75.7656 240.252C75.7578 240.24 75.748 240.23 75.7362 240.222C75.7244 240.21 75.7127 240.201 75.7009 240.193C75.6891 240.181 75.6754 240.173 75.6597 240.169C75.648 240.161 75.6342 240.155 75.6185 240.151C75.6068 240.144 75.595 240.14 75.5832 240.14C75.5715 240.136 75.5577 240.134 75.542 240.134C75.5303 240.13 75.5165 240.128 75.5009 240.128C75.3989 240.128 75.3067 240.167 75.2243 240.246C75.1458 240.32 75.1066 240.412 75.1066 240.522C75.1066 240.601 75.1302 240.677 75.1772 240.752L75.8304 241.817L74.5241 241.77C74.4417 241.77 74.3691 241.789 74.3064 241.828C74.2475 241.864 74.2044 241.909 74.1769 241.964C74.1495 242.019 74.1357 242.08 74.1357 242.146C74.1357 242.248 74.1691 242.336 74.2358 242.411C74.3064 242.486 74.4025 242.523 74.5241 242.523L75.848 242.482L75.1772 243.558C75.1615 243.582 75.1478 243.607 75.136 243.635C75.1282 243.658 75.1223 243.682 75.1184 243.705C75.1145 243.725 75.1125 243.747 75.1125 243.77C75.1125 243.88 75.1517 243.974 75.2302 244.053C75.3126 244.127 75.4047 244.164 75.5067 244.164C75.5734 244.164 75.6362 244.147 75.695 244.111C75.7539 244.076 75.8049 244.019 75.848 243.941Z" fill="#FF007A"/>
<path d="M88.8226 243.941L89.4405 242.817L90.0701 243.941C90.0975 243.992 90.1289 244.035 90.1642 244.07C90.2034 244.102 90.2427 244.125 90.2819 244.141C90.3211 244.157 90.3603 244.164 90.3996 244.164C90.5016 244.164 90.5918 244.125 90.6702 244.047C90.7487 243.968 90.7879 243.874 90.7879 243.764C90.7879 243.725 90.782 243.686 90.7703 243.647C90.7585 243.603 90.7408 243.562 90.7173 243.523L90.0701 242.482L91.4057 242.523C91.5313 242.523 91.6274 242.486 91.6941 242.411C91.7647 242.336 91.8 242.248 91.8 242.146C91.8 242.044 91.7647 241.956 91.6941 241.881C91.6274 241.807 91.5313 241.77 91.4057 241.77L90.0818 241.817L90.7467 240.734C90.7663 240.699 90.7801 240.663 90.7879 240.628C90.7997 240.593 90.8056 240.557 90.8056 240.522C90.8056 240.452 90.7879 240.385 90.7526 240.322C90.7173 240.259 90.6702 240.21 90.6114 240.175C90.5565 240.14 90.4957 240.122 90.429 240.122C90.3662 240.122 90.3035 240.142 90.2407 240.181C90.1779 240.22 90.123 240.279 90.0759 240.357L89.4405 241.505L88.805 240.34C88.7971 240.324 88.7873 240.308 88.7756 240.293C88.7638 240.277 88.752 240.263 88.7402 240.252C88.7324 240.24 88.7226 240.23 88.7108 240.222C88.6991 240.21 88.6873 240.201 88.6755 240.193C88.6638 240.181 88.65 240.173 88.6343 240.169C88.6226 240.161 88.6088 240.155 88.5931 240.151C88.5814 240.144 88.5696 240.14 88.5578 240.14C88.5461 240.136 88.5323 240.134 88.5167 240.134C88.5049 240.13 88.4912 240.128 88.4755 240.128C88.3735 240.128 88.2813 240.167 88.1989 240.246C88.1205 240.32 88.0812 240.412 88.0812 240.522C88.0812 240.601 88.1048 240.677 88.1518 240.752L88.805 241.817L87.4987 241.77C87.4163 241.77 87.3438 241.789 87.281 241.828C87.2221 241.864 87.179 241.909 87.1515 241.964C87.1241 242.019 87.1104 242.08 87.1104 242.146C87.1104 242.248 87.1437 242.336 87.2104 242.411C87.281 242.486 87.3771 242.523 87.4987 242.523L88.8226 242.482L88.1518 243.558C88.1361 243.582 88.1224 243.607 88.1106 243.635C88.1028 243.658 88.0969 243.682 88.093 243.705C88.0891 243.725 88.0871 243.747 88.0871 243.77C88.0871 243.88 88.1263 243.974 88.2048 244.053C88.2872 244.127 88.3794 244.164 88.4813 244.164C88.548 244.164 88.6108 244.147 88.6696 244.111C88.7285 244.076 88.7795 244.019 88.8226 243.941Z" fill="#FF007A"/>
<path d="M101.797 243.941L102.415 242.817L103.045 243.941C103.072 243.992 103.104 244.035 103.139 244.07C103.178 244.102 103.217 244.125 103.256 244.141C103.296 244.157 103.335 244.164 103.374 244.164C103.476 244.164 103.566 244.125 103.645 244.047C103.723 243.968 103.763 243.874 103.763 243.764C103.763 243.725 103.757 243.686 103.745 243.647C103.733 243.603 103.715 243.562 103.692 243.523L103.045 242.482L104.38 242.523C104.506 242.523 104.602 242.486 104.669 242.411C104.739 242.336 104.775 242.248 104.775 242.146C104.775 242.044 104.739 241.956 104.669 241.881C104.602 241.807 104.506 241.77 104.38 241.77L103.056 241.817L103.721 240.734C103.741 240.699 103.755 240.663 103.763 240.628C103.774 240.593 103.78 240.557 103.78 240.522C103.78 240.452 103.763 240.385 103.727 240.322C103.692 240.259 103.645 240.21 103.586 240.175C103.531 240.14 103.47 240.122 103.404 240.122C103.341 240.122 103.278 240.142 103.215 240.181C103.153 240.22 103.098 240.279 103.051 240.357L102.415 241.505L101.78 240.34C101.772 240.324 101.762 240.308 101.75 240.293C101.738 240.277 101.727 240.263 101.715 240.252C101.707 240.24 101.697 240.23 101.685 240.222C101.674 240.21 101.662 240.201 101.65 240.193C101.638 240.181 101.625 240.173 101.609 240.169C101.597 240.161 101.583 240.155 101.568 240.151C101.556 240.144 101.544 240.14 101.532 240.14C101.521 240.136 101.507 240.134 101.491 240.134C101.479 240.13 101.466 240.128 101.45 240.128C101.348 240.128 101.256 240.167 101.174 240.246C101.095 240.32 101.056 240.412 101.056 240.522C101.056 240.601 101.079 240.677 101.126 240.752L101.78 241.817L100.473 241.77C100.391 241.77 100.318 241.789 100.256 241.828C100.197 241.864 100.154 241.909 100.126 241.964C100.099 242.019 100.085 242.08 100.085 242.146C100.085 242.248 100.118 242.336 100.185 242.411C100.256 242.486 100.352 242.523 100.473 242.523L101.797 242.482L101.126 243.558C101.111 243.582 101.097 243.607 101.085 243.635C101.077 243.658 101.072 243.682 101.068 243.705C101.064 243.725 101.062 243.747 101.062 243.77C101.062 243.88 101.101 243.974 101.179 244.053C101.262 244.127 101.354 244.164 101.456 244.164C101.523 244.164 101.585 244.147 101.644 244.111C101.703 244.076 101.754 244.019 101.797 243.941Z" fill="#FF007A"/>
<path d="M114.771 243.941L115.389 242.817L116.018 243.941C116.046 243.992 116.077 244.035 116.112 244.07C116.152 244.102 116.191 244.125 116.23 244.141C116.269 244.157 116.309 244.164 116.348 244.164C116.45 244.164 116.54 244.125 116.618 244.047C116.697 243.968 116.736 243.874 116.736 243.764C116.736 243.725 116.73 243.686 116.719 243.647C116.707 243.603 116.689 243.562 116.666 243.523L116.018 242.482L117.354 242.523C117.48 242.523 117.576 242.486 117.642 242.411C117.713 242.336 117.748 242.248 117.748 242.146C117.748 242.044 117.713 241.956 117.642 241.881C117.576 241.807 117.48 241.77 117.354 241.77L116.03 241.817L116.695 240.734C116.715 240.699 116.728 240.663 116.736 240.628C116.748 240.593 116.754 240.557 116.754 240.522C116.754 240.452 116.736 240.385 116.701 240.322C116.666 240.259 116.618 240.21 116.56 240.175C116.505 240.14 116.444 240.122 116.377 240.122C116.314 240.122 116.252 240.142 116.189 240.181C116.126 240.22 116.071 240.279 116.024 240.357L115.389 241.505L114.753 240.34C114.745 240.324 114.736 240.308 114.724 240.293C114.712 240.277 114.7 240.263 114.688 240.252C114.681 240.24 114.671 240.23 114.659 240.222C114.647 240.21 114.636 240.201 114.624 240.193C114.612 240.181 114.598 240.173 114.583 240.169C114.571 240.161 114.557 240.155 114.541 240.151C114.53 240.144 114.518 240.14 114.506 240.14C114.494 240.136 114.481 240.134 114.465 240.134C114.453 240.13 114.439 240.128 114.424 240.128C114.322 240.128 114.23 240.167 114.147 240.246C114.069 240.32 114.029 240.412 114.029 240.522C114.029 240.601 114.053 240.677 114.1 240.752L114.753 241.817L113.447 241.77C113.365 241.77 113.292 241.789 113.229 241.828C113.17 241.864 113.127 241.909 113.1 241.964C113.072 242.019 113.059 242.08 113.059 242.146C113.059 242.248 113.092 242.336 113.159 242.411C113.229 242.486 113.325 242.523 113.447 242.523L114.771 242.482L114.1 243.558C114.084 243.582 114.071 243.607 114.059 243.635C114.051 243.658 114.045 243.682 114.041 243.705C114.037 243.725 114.035 243.747 114.035 243.77C114.035 243.88 114.075 243.974 114.153 244.053C114.235 244.127 114.328 244.164 114.43 244.164C114.496 244.164 114.559 244.147 114.618 244.111C114.677 244.076 114.728 244.019 114.771 243.941Z" fill="#FF007A"/>
<path d="M127.745 243.941L128.363 242.817L128.993 243.941C129.02 243.992 129.052 244.035 129.087 244.07C129.126 244.102 129.166 244.125 129.205 244.141C129.244 244.157 129.283 244.164 129.322 244.164C129.424 244.164 129.515 244.125 129.593 244.047C129.672 243.968 129.711 243.874 129.711 243.764C129.711 243.725 129.705 243.686 129.693 243.647C129.681 243.603 129.664 243.562 129.64 243.523L128.993 242.482L130.329 242.523C130.454 242.523 130.55 242.486 130.617 242.411C130.688 242.336 130.723 242.248 130.723 242.146C130.723 242.044 130.688 241.956 130.617 241.881C130.55 241.807 130.454 241.77 130.329 241.77L129.005 241.817L129.67 240.734C129.689 240.699 129.703 240.663 129.711 240.628C129.723 240.593 129.728 240.557 129.728 240.522C129.728 240.452 129.711 240.385 129.675 240.322C129.64 240.259 129.593 240.21 129.534 240.175C129.479 240.14 129.419 240.122 129.352 240.122C129.289 240.122 129.226 240.142 129.164 240.181C129.101 240.22 129.046 240.279 128.999 240.357L128.363 241.505L127.728 240.34C127.72 240.324 127.71 240.308 127.698 240.293C127.687 240.277 127.675 240.263 127.663 240.252C127.655 240.24 127.645 240.23 127.634 240.222C127.622 240.21 127.61 240.201 127.598 240.193C127.587 240.181 127.573 240.173 127.557 240.169C127.545 240.161 127.532 240.155 127.516 240.151C127.504 240.144 127.492 240.14 127.481 240.14C127.469 240.136 127.455 240.134 127.44 240.134C127.428 240.13 127.414 240.128 127.398 240.128C127.296 240.128 127.204 240.167 127.122 240.246C127.043 240.32 127.004 240.412 127.004 240.522C127.004 240.601 127.028 240.677 127.075 240.752L127.728 241.817L126.422 241.77C126.339 241.77 126.267 241.789 126.204 241.828C126.145 241.864 126.102 241.909 126.074 241.964C126.047 242.019 126.033 242.08 126.033 242.146C126.033 242.248 126.067 242.336 126.133 242.411C126.204 242.486 126.3 242.523 126.422 242.523L127.745 242.482L127.075 243.558C127.059 243.582 127.045 243.607 127.033 243.635C127.026 243.658 127.02 243.682 127.016 243.705C127.012 243.725 127.01 243.747 127.01 243.77C127.01 243.88 127.049 243.974 127.128 244.053C127.21 244.127 127.302 244.164 127.404 244.164C127.471 244.164 127.534 244.147 127.592 244.111C127.651 244.076 127.702 244.019 127.745 243.941Z" fill="#FF007A"/>
<path d="M140.72 243.941L141.338 242.817L141.968 243.941C141.995 243.992 142.026 244.035 142.062 244.07C142.101 244.102 142.14 244.125 142.179 244.141C142.219 244.157 142.258 244.164 142.297 244.164C142.399 244.164 142.489 244.125 142.568 244.047C142.646 243.968 142.685 243.874 142.685 243.764C142.685 243.725 142.679 243.686 142.668 243.647C142.656 243.603 142.638 243.562 142.615 243.523L141.968 242.482L143.303 242.523C143.429 242.523 143.525 242.486 143.592 242.411C143.662 242.336 143.697 242.248 143.697 242.146C143.697 242.044 143.662 241.956 143.592 241.881C143.525 241.807 143.429 241.77 143.303 241.77L141.979 241.817L142.644 240.734C142.664 240.699 142.678 240.663 142.685 240.628C142.697 240.593 142.703 240.557 142.703 240.522C142.703 240.452 142.685 240.385 142.65 240.322C142.615 240.259 142.568 240.21 142.509 240.175C142.454 240.14 142.393 240.122 142.326 240.122C142.264 240.122 142.201 240.142 142.138 240.181C142.075 240.22 142.02 240.279 141.973 240.357L141.338 241.505L140.702 240.34C140.695 240.324 140.685 240.308 140.673 240.293C140.661 240.277 140.649 240.263 140.638 240.252C140.63 240.24 140.62 240.23 140.608 240.222C140.597 240.21 140.585 240.201 140.573 240.193C140.561 240.181 140.547 240.173 140.532 240.169C140.52 240.161 140.506 240.155 140.491 240.151C140.479 240.144 140.467 240.14 140.455 240.14C140.444 240.136 140.43 240.134 140.414 240.134C140.402 240.13 140.389 240.128 140.373 240.128C140.271 240.128 140.179 240.167 140.096 240.246C140.018 240.32 139.979 240.412 139.979 240.522C139.979 240.601 140.002 240.677 140.049 240.752L140.702 241.817L139.396 241.77C139.314 241.77 139.241 241.789 139.178 241.828C139.12 241.864 139.076 241.909 139.049 241.964C139.022 242.019 139.008 242.08 139.008 242.146C139.008 242.248 139.041 242.336 139.108 242.411C139.178 242.486 139.275 242.523 139.396 242.523L140.72 242.482L140.049 243.558C140.034 243.582 140.02 243.607 140.008 243.635C140 243.658 139.994 243.682 139.99 243.705C139.987 243.725 139.985 243.747 139.985 243.77C139.985 243.88 140.024 243.974 140.102 244.053C140.185 244.127 140.277 244.164 140.379 244.164C140.445 244.164 140.508 244.147 140.567 244.111C140.626 244.076 140.677 244.019 140.72 243.941Z" fill="#FF007A"/>
<g filter="url(#filter1_d_3_67)">
<rect x="66.0469" y="262.717" width="78.1772" height="24.1013" rx="12.0506" fill="#FF007A"/>
<path d="M88.901 279.268H93.1199C93.2964 279.268 93.4337 279.211 93.5318 279.097C93.6298 278.979 93.6789 278.844 93.6789 278.691C93.6789 278.538 93.6279 278.403 93.5259 278.285C93.4278 278.167 93.2925 278.109 93.1199 278.109H89.6188V271.536C89.6188 271.312 89.5482 271.14 89.407 271.018C89.2658 270.893 89.0951 270.83 88.8951 270.83C88.695 270.83 88.5224 270.893 88.3773 271.018C88.2321 271.14 88.1596 271.312 88.1596 271.536V278.538C88.1596 278.738 88.2321 278.911 88.3773 279.056C88.5264 279.197 88.7009 279.268 88.901 279.268ZM97.3534 278.473C96.8081 278.473 96.3805 278.285 96.0706 277.908C95.7647 277.532 95.6117 277.008 95.6117 276.337C95.6117 275.659 95.7647 275.129 96.0706 274.749C96.3805 274.368 96.8081 274.178 97.3534 274.178C97.8986 274.178 98.3242 274.37 98.6302 274.755C98.9401 275.135 99.0951 275.663 99.0951 276.337C99.0951 277.008 98.9421 277.532 98.6361 277.908C98.3301 278.285 97.9025 278.473 97.3534 278.473ZM97.3534 279.35C97.7535 279.35 98.1203 279.295 98.4537 279.185C98.7871 279.072 99.0696 278.921 99.301 278.732C99.5364 278.54 99.7345 278.314 99.8953 278.056C100.06 277.797 100.18 277.524 100.254 277.238C100.333 276.947 100.372 276.647 100.372 276.337C100.372 275.929 100.307 275.545 100.178 275.184C100.048 274.823 99.86 274.502 99.6129 274.219C99.3696 273.937 99.0539 273.715 98.6655 273.554C98.2772 273.389 97.8398 273.307 97.3534 273.307C96.863 273.307 96.4217 273.391 96.0294 273.56C95.6372 273.725 95.3194 273.95 95.0762 274.237C94.8369 274.519 94.6526 274.841 94.5231 275.202C94.3976 275.559 94.3348 275.937 94.3348 276.337C94.3348 276.73 94.3976 277.104 94.5231 277.461C94.6486 277.814 94.831 278.134 95.0703 278.42C95.3135 278.703 95.6313 278.928 96.0236 279.097C96.4158 279.266 96.8591 279.35 97.3534 279.35ZM104.317 281.839C105.208 281.839 105.916 281.617 106.441 281.174C106.971 280.731 107.236 280.064 107.236 279.174V274.001C107.236 273.809 107.175 273.66 107.053 273.554C106.932 273.444 106.79 273.389 106.63 273.389C106.48 273.389 106.347 273.435 106.229 273.525C106.116 273.611 106.049 273.733 106.029 273.89V274.284C105.896 274.076 105.757 273.905 105.612 273.772C105.47 273.639 105.276 273.529 105.029 273.442C104.782 273.352 104.492 273.307 104.158 273.307C103.601 273.307 103.115 273.44 102.699 273.707C102.283 273.974 101.967 274.337 101.752 274.796C101.54 275.255 101.434 275.778 101.434 276.367C101.434 277.242 101.683 277.944 102.181 278.473C102.679 279.003 103.35 279.268 104.194 279.268C105.041 279.268 105.643 278.94 106 278.285V279.268C106 279.805 105.841 280.223 105.523 280.521C105.209 280.819 104.776 280.968 104.223 280.968C104.05 280.968 103.876 280.953 103.699 280.921C103.527 280.894 103.393 280.864 103.299 280.833C103.205 280.805 103.074 280.76 102.905 280.698C102.74 280.635 102.634 280.596 102.587 280.58C102.568 280.572 102.546 280.564 102.522 280.556C102.503 280.552 102.483 280.548 102.464 280.545C102.448 280.545 102.43 280.545 102.411 280.545C102.332 280.545 102.262 280.564 102.199 280.603C102.136 280.647 102.087 280.699 102.052 280.762C102.02 280.829 102.005 280.898 102.005 280.968C102.005 281.043 102.022 281.113 102.058 281.18C102.097 281.251 102.154 281.309 102.228 281.357C102.444 281.49 102.738 281.604 103.111 281.698C103.487 281.792 103.889 281.839 104.317 281.839ZM104.388 278.426C103.917 278.415 103.521 278.234 103.199 277.885C102.881 277.532 102.722 277.014 102.722 276.332C102.722 276.037 102.754 275.765 102.817 275.514C102.883 275.263 102.981 275.035 103.111 274.831C103.24 274.627 103.415 274.468 103.635 274.354C103.858 274.237 104.115 274.178 104.405 274.178C104.696 274.178 104.945 274.233 105.153 274.343C105.364 274.453 105.529 274.609 105.647 274.813C105.768 275.013 105.857 275.239 105.912 275.49C105.967 275.741 105.994 276.026 105.994 276.343C105.99 277.045 105.841 277.567 105.547 277.908C105.253 278.25 104.866 278.422 104.388 278.426ZM113.484 279.256C113.684 279.256 113.857 279.195 114.002 279.074C114.147 278.952 114.22 278.779 114.22 278.556V271.518C114.22 271.295 114.147 271.122 114.002 271.001C113.857 270.875 113.686 270.812 113.49 270.812C113.29 270.812 113.117 270.875 112.972 271.001C112.827 271.122 112.755 271.295 112.755 271.518V278.556C112.755 278.775 112.825 278.948 112.966 279.074C113.112 279.195 113.284 279.256 113.484 279.256ZM116.923 279.268C117.1 279.268 117.251 279.213 117.376 279.103C117.506 278.993 117.571 278.842 117.571 278.65V275.973C117.575 275.435 117.728 275.002 118.03 274.672C118.332 274.343 118.693 274.178 119.112 274.178C119.473 274.178 119.765 274.296 119.989 274.531C120.213 274.766 120.324 275.106 120.324 275.549V278.65C120.324 278.846 120.387 278.999 120.513 279.109C120.638 279.215 120.787 279.268 120.96 279.268C121.136 279.268 121.289 279.215 121.419 279.109C121.548 278.999 121.613 278.846 121.613 278.65V275.561C121.613 275.176 121.556 274.837 121.442 274.543C121.329 274.249 121.172 274.013 120.972 273.837C120.772 273.66 120.544 273.529 120.289 273.442C120.038 273.352 119.767 273.307 119.477 273.307C119.03 273.307 118.642 273.393 118.312 273.566C117.983 273.735 117.735 273.982 117.571 274.307V273.978C117.571 273.794 117.508 273.65 117.382 273.548C117.257 273.442 117.106 273.389 116.929 273.389C116.753 273.389 116.6 273.444 116.47 273.554C116.341 273.66 116.276 273.807 116.276 273.996V278.65C116.276 278.846 116.339 278.999 116.464 279.109C116.594 279.215 116.747 279.268 116.923 279.268Z" fill="white"/>
</g>
</g>
<defs>
<filter id="filter0_d_3_67" x="0.822784" y="103.666" width="208.627" height="238.511" filterUnits="userSpaceOnUse" color-interpolation-filters="sRGB">
<feFlood flood-opacity="0" result="BackgroundImageFix"/>
<feColorMatrix in="SourceAlpha" type="matrix" values="0 0 0 0 0 0 0 0 0 0 0 0 0 0 0 0 0 0 127 0" result="hardAlpha"/>
<feOffset/>
<feGaussianBlur stdDeviation="21.0886"/>
<feComposite in2="hardAlpha" operator="out"/>
<feColorMatrix type="matrix" values="0 0 0 0 0 0 0 0 0 0 0 0 0 0 0 0 0 0 0.1 0"/>
<feBlend mode="normal" in2="BackgroundImageFix" result="effect1_dropShadow_3_67"/>
<feBlend mode="normal" in="SourceGraphic" in2="effect1_dropShadow_3_67" result="shape"/>
</filter>
<filter id="filter1_d_3_67" x="64.5405" y="261.964" width="81.1894" height="27.114" filterUnits="userSpaceOnUse" color-interpolation-filters="sRGB">
<feFlood flood-opacity="0" result="BackgroundImageFix"/>
<feColorMatrix in="SourceAlpha" type="matrix" values="0 0 0 0 0 0 0 0 0 0 0 0 0 0 0 0 0 0 127 0" result="hardAlpha"/>
<feOffset dy="0.753165"/>
<feGaussianBlur stdDeviation="0.753165"/>
<feColorMatrix type="matrix" values="0 0 0 0 0.0627451 0 0 0 0 0.0941176 0 0 0 0 0.156863 0 0 0 0.05 0"/>
<feBlend mode="normal" in2="BackgroundImageFix" result="effect1_dropShadow_3_67"/>
<feBlend mode="normal" in="SourceGraphic" in2="effect1_dropShadow_3_67" result="shape"/>
</filter>
</defs>
</svg>
