<svg width="20" height="19" viewBox="0 0 20 19" fill="none" xmlns="http://www.w3.org/2000/svg">
<path d="M9.43776 1.31578C9.76784 0.531783 10.892 0.531784 11.2221 1.31578L13.1702 5.94307C13.3095 6.27359 13.6241 6.49941 13.9853 6.52802L19.0419 6.92851C19.8986 6.99637 20.246 8.05262 19.5933 8.60502L15.7407 11.8653C15.4655 12.0982 15.3453 12.4636 15.4293 12.8118L16.6064 17.6866C16.8058 18.5125 15.8963 19.1654 15.1628 18.7228L10.8336 16.1104C10.5244 15.9238 10.1355 15.9238 9.82627 16.1104L5.49704 18.7228C4.76353 19.1654 3.85404 18.5125 4.05346 17.6866L5.23051 12.8118C5.31458 12.4636 5.19441 12.0982 4.91923 11.8653L1.06656 8.60502C0.413812 8.05262 0.761213 6.99637 1.61796 6.92851L6.67465 6.52802C7.03584 6.49941 7.35046 6.27359 7.48961 5.94307L9.43776 1.31578Z" fill="#42A8DF"/>
</svg>
