<svg width="385" height="311" viewBox="0 0 385 311" fill="none" xmlns="http://www.w3.org/2000/svg">
<rect width="202.57" height="163.874" rx="2.27607" fill="#F3F1FF"/>
<rect x="9.10547" y="27.3125" width="184.362" height="127.457" rx="2.27607" fill="white"/>
<rect x="18.209" y="36.4169" width="166.153" height="109.249" rx="2.27607" fill="#F3F1FF"/>
<rect x="27.5254" y="45.5946" width="73.9747" height="4.55205" rx="2.27603" fill="white"/>
<rect x="27.5254" y="54.698" width="73.9747" height="4.55205" rx="2.27603" fill="white"/>
<rect x="27.5254" y="63.8024" width="47.4899" height="4.55205" rx="2.27603" fill="white"/>
<rect x="108.381" y="45.5946" width="73.9747" height="4.55205" rx="2.27603" fill="white"/>
<rect x="108.381" y="54.698" width="73.9747" height="4.55205" rx="2.27603" fill="white"/>
<rect x="108.381" y="63.8024" width="47.4899" height="4.55205" rx="2.27603" fill="white"/>
<rect x="27.5254" y="113.802" width="46.0904" height="4.55214" rx="2.27607" fill="white"/>
<rect x="27.5254" y="122.906" width="46.0904" height="4.55214" rx="2.27607" fill="white"/>
<rect x="27.5254" y="132.01" width="29.5889" height="4.55214" rx="2.27607" fill="white"/>
<rect x="82.7197" y="113.802" width="46.0904" height="4.55214" rx="2.27607" fill="white"/>
<rect x="82.7197" y="122.906" width="46.0904" height="4.55214" rx="2.27607" fill="white"/>
<rect x="82.7197" y="132.01" width="29.5889" height="4.55214" rx="2.27607" fill="white"/>
<circle cx="13.6576" cy="13.6559" r="4.55214" fill="#C4C4C4"/>
<circle cx="27.8842" cy="13.656" r="4.55214" fill="#C4C4C4"/>
<circle cx="42.1088" cy="13.656" r="4.55214" fill="#C4C4C4"/>
<rect x="169.569" y="9.67273" width="23.8987" height="7.96625" rx="3.98312" fill="#D9D9D9"/>
<g filter="url(#filter0_d_3_134)">
<rect x="107.445" y="127.411" width="252.915" height="158.866" rx="4.62756" fill="white" shape-rendering="crispEdges"/>
<path d="M133.085 266.328H340.949" stroke="#CCCCCC" stroke-width="0.522271" stroke-dasharray="2.09 1.04"/>
<path d="M133.085 234.942H340.949" stroke="#CCCCCC" stroke-width="0.522271" stroke-dasharray="2.09 1.04"/>
<path d="M133.085 203.555H340.949" stroke="#CCCCCC" stroke-width="0.522271" stroke-dasharray="2.09 1.04"/>
<path d="M133.085 172.168H340.949" stroke="#CCCCCC" stroke-width="0.522271" stroke-dasharray="2.09 1.04"/>
<path d="M133.085 140.783H340.949" stroke="#CCCCCC" stroke-width="0.522271" stroke-dasharray="2.09 1.04"/>
<path d="M133.347 140.521V266.59" stroke="#CCCCCC" stroke-width="0.522271" stroke-dasharray="2.09 1.04"/>
<path d="M167.904 140.521V266.59" stroke="#CCCCCC" stroke-width="0.522271" stroke-dasharray="2.09 1.04"/>
<path d="M202.459 140.521V266.59" stroke="#CCCCCC" stroke-width="0.522271" stroke-dasharray="2.09 1.04"/>
<path d="M237.017 140.521V266.59" stroke="#CCCCCC" stroke-width="0.522271" stroke-dasharray="2.09 1.04"/>
<path d="M271.574 140.521V266.59" stroke="#CCCCCC" stroke-width="0.522271" stroke-dasharray="2.09 1.04"/>
<path d="M306.129 140.521V266.59" stroke="#CCCCCC" stroke-width="0.522271" stroke-dasharray="2.09 1.04"/>
<path d="M340.688 140.521V266.59" stroke="#CCCCCC" stroke-width="0.522271" stroke-dasharray="2.09 1.04"/>
<path d="M127.391 265.823V266.502C127.391 266.867 127.358 267.175 127.293 267.426C127.227 267.677 127.133 267.879 127.011 268.032C126.889 268.185 126.741 268.296 126.567 268.366C126.396 268.433 126.202 268.467 125.986 268.467C125.815 268.467 125.656 268.445 125.512 268.402C125.367 268.36 125.236 268.291 125.12 268.197C125.006 268.102 124.908 267.977 124.826 267.824C124.744 267.671 124.682 267.485 124.639 267.267C124.597 267.049 124.575 266.794 124.575 266.502V265.823C124.575 265.458 124.608 265.152 124.673 264.905C124.74 264.658 124.835 264.46 124.958 264.311C125.08 264.16 125.227 264.052 125.398 263.987C125.572 263.921 125.766 263.889 125.98 263.889C126.153 263.889 126.312 263.91 126.457 263.953C126.604 263.994 126.735 264.06 126.849 264.152C126.963 264.242 127.06 264.362 127.14 264.513C127.221 264.662 127.283 264.844 127.326 265.061C127.369 265.277 127.391 265.531 127.391 265.823ZM126.821 266.594V265.728C126.821 265.528 126.809 265.352 126.785 265.202C126.762 265.048 126.729 264.918 126.684 264.81C126.639 264.702 126.582 264.614 126.512 264.547C126.445 264.479 126.366 264.43 126.277 264.4C126.189 264.367 126.09 264.351 125.98 264.351C125.845 264.351 125.726 264.376 125.622 264.427C125.518 264.476 125.43 264.555 125.359 264.663C125.289 264.771 125.236 264.913 125.199 265.088C125.163 265.264 125.144 265.477 125.144 265.728V266.594C125.144 266.794 125.156 266.97 125.178 267.123C125.202 267.276 125.238 267.409 125.285 267.521C125.332 267.631 125.389 267.722 125.456 267.793C125.524 267.865 125.601 267.918 125.689 267.953C125.779 267.985 125.878 268.002 125.986 268.002C126.125 268.002 126.246 267.975 126.35 267.922C126.454 267.869 126.541 267.786 126.61 267.674C126.682 267.56 126.735 267.414 126.769 267.237C126.804 267.057 126.821 266.843 126.821 266.594Z" fill="#333333"/>
<path d="M123.876 236.554V237.019H120.959V236.612L122.419 234.987C122.599 234.788 122.737 234.618 122.835 234.479C122.935 234.339 123.005 234.213 123.043 234.103C123.084 233.991 123.105 233.877 123.105 233.76C123.105 233.613 123.074 233.481 123.013 233.362C122.954 233.242 122.866 233.146 122.75 233.075C122.633 233.003 122.493 232.968 122.327 232.968C122.129 232.968 121.964 233.006 121.832 233.084C121.701 233.16 121.603 233.266 121.538 233.402C121.473 233.539 121.44 233.696 121.44 233.874H120.874C120.874 233.623 120.929 233.393 121.039 233.185C121.149 232.977 121.312 232.812 121.529 232.689C121.745 232.565 122.011 232.503 122.327 232.503C122.609 232.503 122.85 232.553 123.05 232.653C123.249 232.75 123.402 232.889 123.509 233.069C123.617 233.246 123.671 233.454 123.671 233.693C123.671 233.824 123.648 233.956 123.603 234.091C123.561 234.223 123.5 234.356 123.423 234.489C123.347 234.621 123.259 234.752 123.157 234.88C123.057 235.009 122.95 235.135 122.835 235.26L121.642 236.554H123.876ZM125.198 234.899L124.745 234.782L124.968 232.564H127.254V233.087H125.449L125.314 234.299C125.396 234.252 125.499 234.208 125.623 234.167C125.75 234.127 125.895 234.106 126.058 234.106C126.264 234.106 126.448 234.142 126.612 234.213C126.775 234.283 126.914 234.383 127.028 234.513C127.144 234.644 127.233 234.801 127.294 234.984C127.355 235.168 127.386 235.373 127.386 235.599C127.386 235.814 127.356 236.011 127.297 236.19C127.24 236.37 127.153 236.527 127.037 236.661C126.921 236.794 126.774 236.897 126.596 236.97C126.421 237.044 126.214 237.081 125.975 237.081C125.796 237.081 125.625 237.056 125.464 237.007C125.305 236.956 125.162 236.88 125.036 236.778C124.911 236.674 124.809 236.545 124.73 236.392C124.652 236.237 124.603 236.055 124.583 235.847H125.121C125.146 236.015 125.195 236.155 125.268 236.27C125.342 236.384 125.438 236.471 125.556 236.53C125.676 236.587 125.816 236.615 125.975 236.615C126.11 236.615 126.229 236.592 126.333 236.545C126.437 236.498 126.525 236.431 126.596 236.343C126.668 236.255 126.722 236.149 126.758 236.025C126.797 235.9 126.817 235.761 126.817 235.606C126.817 235.465 126.797 235.334 126.758 235.214C126.72 235.094 126.662 234.988 126.584 234.899C126.509 234.809 126.416 234.74 126.306 234.691C126.195 234.64 126.069 234.614 125.926 234.614C125.736 234.614 125.593 234.64 125.495 234.691C125.399 234.742 125.3 234.811 125.198 234.899Z" fill="#333333"/>
<path d="M121.672 203.511L121.22 203.395L121.443 201.176H123.729V201.7H121.923L121.789 202.912C121.87 202.865 121.973 202.821 122.098 202.78C122.224 202.739 122.369 202.719 122.532 202.719C122.738 202.719 122.923 202.754 123.086 202.826C123.249 202.895 123.388 202.995 123.502 203.126C123.619 203.256 123.707 203.413 123.769 203.597C123.83 203.781 123.861 203.986 123.861 204.212C123.861 204.426 123.831 204.623 123.772 204.803C123.715 204.982 123.628 205.139 123.512 205.274C123.395 205.407 123.248 205.51 123.071 205.583C122.896 205.657 122.688 205.693 122.45 205.693C122.27 205.693 122.1 205.669 121.939 205.62C121.78 205.569 121.637 205.492 121.51 205.39C121.386 205.286 121.284 205.158 121.204 205.005C121.127 204.85 121.078 204.668 121.057 204.46H121.596C121.62 204.627 121.669 204.768 121.743 204.882C121.816 204.997 121.912 205.083 122.031 205.142C122.151 205.2 122.291 205.228 122.45 205.228C122.584 205.228 122.704 205.205 122.808 205.158C122.912 205.111 123 205.044 123.071 204.956C123.142 204.868 123.196 204.762 123.233 204.638C123.272 204.513 123.291 204.373 123.291 204.218C123.291 204.078 123.272 203.947 123.233 203.827C123.194 203.706 123.136 203.601 123.059 203.511C122.983 203.422 122.89 203.352 122.78 203.303C122.67 203.252 122.544 203.227 122.401 203.227C122.211 203.227 122.067 203.252 121.969 203.303C121.873 203.354 121.774 203.424 121.672 203.511ZM127.279 203.049V203.729C127.279 204.094 127.246 204.402 127.181 204.653C127.116 204.904 127.022 205.106 126.899 205.259C126.777 205.412 126.629 205.523 126.456 205.592C126.284 205.66 126.09 205.693 125.874 205.693C125.703 205.693 125.545 205.672 125.4 205.629C125.255 205.586 125.124 205.518 125.008 205.424C124.894 205.328 124.796 205.204 124.714 205.051C124.633 204.898 124.57 204.712 124.528 204.494C124.485 204.275 124.463 204.02 124.463 203.729V203.049C124.463 202.684 124.496 202.378 124.561 202.131C124.629 201.884 124.723 201.686 124.846 201.538C124.968 201.387 125.115 201.278 125.287 201.213C125.46 201.148 125.654 201.115 125.868 201.115C126.041 201.115 126.201 201.137 126.345 201.18C126.492 201.22 126.623 201.287 126.737 201.378C126.851 201.468 126.948 201.589 127.028 201.74C127.109 201.888 127.172 202.071 127.214 202.287C127.257 202.504 127.279 202.758 127.279 203.049ZM126.71 203.82V202.954C126.71 202.754 126.697 202.579 126.673 202.428C126.65 202.275 126.617 202.144 126.572 202.036C126.527 201.928 126.47 201.841 126.4 201.773C126.333 201.706 126.255 201.657 126.165 201.626C126.077 201.594 125.978 201.577 125.868 201.577C125.733 201.577 125.614 201.603 125.51 201.654C125.406 201.703 125.318 201.781 125.247 201.889C125.177 201.998 125.124 202.139 125.088 202.315C125.051 202.49 125.033 202.703 125.033 202.954V203.82C125.033 204.02 125.044 204.197 125.066 204.35C125.091 204.503 125.126 204.635 125.173 204.748C125.22 204.858 125.277 204.949 125.345 205.02C125.412 205.091 125.49 205.144 125.577 205.179C125.667 205.212 125.766 205.228 125.874 205.228C126.013 205.228 126.134 205.202 126.238 205.149C126.342 205.096 126.429 205.013 126.498 204.901C126.57 204.786 126.623 204.641 126.658 204.463C126.692 204.284 126.71 204.069 126.71 203.82Z" fill="#333333"/>
<path d="M123.836 169.791V170.109L121.991 174.246H121.394L123.236 170.256H120.825V169.791H123.836ZM125.198 172.126L124.745 172.009L124.968 169.791H127.254V170.314H125.449L125.314 171.526C125.396 171.479 125.499 171.435 125.623 171.394C125.75 171.354 125.895 171.333 126.058 171.333C126.264 171.333 126.448 171.369 126.612 171.44C126.775 171.51 126.914 171.61 127.028 171.74C127.144 171.871 127.233 172.028 127.294 172.211C127.355 172.395 127.386 172.6 127.386 172.827C127.386 173.041 127.356 173.238 127.297 173.417C127.24 173.597 127.153 173.754 127.037 173.888C126.921 174.021 126.774 174.124 126.596 174.197C126.421 174.271 126.214 174.308 125.975 174.308C125.796 174.308 125.625 174.283 125.464 174.234C125.305 174.183 125.162 174.107 125.036 174.005C124.911 173.901 124.809 173.772 124.73 173.619C124.652 173.464 124.603 173.283 124.583 173.074H125.121C125.146 173.242 125.195 173.382 125.268 173.497C125.342 173.611 125.438 173.698 125.556 173.757C125.676 173.814 125.816 173.843 125.975 173.843C126.11 173.843 126.229 173.819 126.333 173.772C126.437 173.725 126.525 173.658 126.596 173.57C126.668 173.482 126.722 173.376 126.758 173.252C126.797 173.127 126.817 172.988 126.817 172.833C126.817 172.692 126.797 172.561 126.758 172.441C126.72 172.321 126.662 172.216 126.584 172.126C126.509 172.036 126.416 171.967 126.306 171.918C126.195 171.867 126.069 171.841 125.926 171.841C125.736 171.841 125.593 171.867 125.495 171.918C125.399 171.969 125.3 172.038 125.198 172.126Z" fill="#333333"/>
<path d="M119.18 138.38V142.86H118.614V139.087L117.472 139.503V138.992L119.091 138.38H119.18ZM123.642 140.277V140.957C123.642 141.322 123.609 141.63 123.544 141.881C123.478 142.132 123.385 142.334 123.262 142.487C123.14 142.64 122.992 142.751 122.818 142.82C122.647 142.888 122.453 142.921 122.237 142.921C122.066 142.921 121.908 142.9 121.763 142.857C121.618 142.814 121.487 142.746 121.371 142.652C121.257 142.556 121.159 142.432 121.077 142.279C120.996 142.126 120.933 141.94 120.891 141.722C120.848 141.503 120.826 141.248 120.826 140.957V140.277C120.826 139.912 120.859 139.606 120.924 139.359C120.991 139.112 121.086 138.914 121.209 138.765C121.331 138.614 121.478 138.506 121.649 138.441C121.823 138.376 122.017 138.343 122.231 138.343C122.404 138.343 122.563 138.365 122.708 138.407C122.855 138.448 122.986 138.515 123.1 138.606C123.214 138.696 123.311 138.816 123.391 138.967C123.472 139.116 123.535 139.299 123.577 139.515C123.62 139.731 123.642 139.985 123.642 140.277ZM123.072 141.048V140.182C123.072 139.982 123.06 139.807 123.036 139.656C123.013 139.503 122.98 139.372 122.935 139.264C122.89 139.156 122.833 139.068 122.763 139.001C122.696 138.934 122.617 138.885 122.528 138.854C122.44 138.822 122.341 138.805 122.231 138.805C122.096 138.805 121.977 138.831 121.873 138.882C121.769 138.931 121.681 139.009 121.61 139.117C121.54 139.226 121.487 139.367 121.451 139.543C121.414 139.718 121.395 139.931 121.395 140.182V141.048C121.395 141.248 121.407 141.425 121.429 141.578C121.454 141.731 121.489 141.863 121.536 141.976C121.583 142.086 121.64 142.177 121.708 142.248C121.775 142.319 121.852 142.372 121.94 142.407C122.03 142.44 122.129 142.456 122.237 142.456C122.376 142.456 122.497 142.43 122.601 142.376C122.705 142.323 122.792 142.241 122.861 142.129C122.933 142.014 122.986 141.868 123.02 141.691C123.055 141.511 123.072 141.297 123.072 141.048ZM127.167 140.277V140.957C127.167 141.322 127.134 141.63 127.069 141.881C127.004 142.132 126.91 142.334 126.787 142.487C126.665 142.64 126.517 142.751 126.344 142.82C126.172 142.888 125.979 142.921 125.762 142.921C125.591 142.921 125.433 142.9 125.288 142.857C125.143 142.814 125.013 142.746 124.896 142.652C124.782 142.556 124.684 142.432 124.603 142.279C124.521 142.126 124.459 141.94 124.416 141.722C124.373 141.503 124.352 141.248 124.352 140.957V140.277C124.352 139.912 124.384 139.606 124.449 139.359C124.517 139.112 124.612 138.914 124.734 138.765C124.857 138.614 125.003 138.506 125.175 138.441C125.348 138.376 125.542 138.343 125.756 138.343C125.93 138.343 126.089 138.365 126.234 138.407C126.38 138.448 126.511 138.515 126.625 138.606C126.74 138.696 126.836 138.816 126.916 138.967C126.998 139.116 127.06 139.299 127.103 139.515C127.146 139.731 127.167 139.985 127.167 140.277ZM126.598 141.048V140.182C126.598 139.982 126.586 139.807 126.561 139.656C126.539 139.503 126.505 139.372 126.46 139.264C126.415 139.156 126.358 139.068 126.289 139.001C126.221 138.934 126.143 138.885 126.053 138.854C125.965 138.822 125.866 138.805 125.756 138.805C125.622 138.805 125.502 138.831 125.398 138.882C125.294 138.931 125.206 139.009 125.135 139.117C125.066 139.226 125.013 139.367 124.976 139.543C124.939 139.718 124.921 139.931 124.921 140.182V141.048C124.921 141.248 124.932 141.425 124.954 141.578C124.979 141.731 125.015 141.863 125.062 141.976C125.108 142.086 125.166 142.177 125.233 142.248C125.3 142.319 125.378 142.372 125.465 142.407C125.555 142.44 125.654 142.456 125.762 142.456C125.901 142.456 126.022 142.43 126.126 142.376C126.231 142.323 126.317 142.241 126.387 142.129C126.458 142.014 126.511 141.868 126.546 141.691C126.58 141.511 126.598 141.297 126.598 141.048Z" fill="#333333"/>
<path d="M122.25 271.274H122.822L124.282 274.906L125.738 271.274H126.313L124.502 275.729H124.055L122.25 271.274ZM122.063 271.274H122.568L122.65 273.991V275.729H122.063V271.274ZM125.992 271.274H126.497V275.729H125.91V273.991L125.992 271.274ZM127.299 274.11V274.04C127.299 273.801 127.334 273.58 127.403 273.376C127.472 273.17 127.572 272.991 127.703 272.84C127.833 272.687 127.991 272.569 128.177 272.485C128.363 272.4 128.571 272.357 128.801 272.357C129.034 272.357 129.243 272.4 129.429 272.485C129.616 272.569 129.776 272.687 129.906 272.84C130.039 272.991 130.14 273.17 130.209 273.376C130.278 273.58 130.313 273.801 130.313 274.04V274.11C130.313 274.349 130.278 274.57 130.209 274.774C130.14 274.978 130.039 275.157 129.906 275.31C129.776 275.461 129.617 275.579 129.432 275.665C129.248 275.749 129.04 275.79 128.808 275.79C128.575 275.79 128.366 275.749 128.18 275.665C127.995 275.579 127.835 275.461 127.703 275.31C127.572 275.157 127.472 274.978 127.403 274.774C127.334 274.57 127.299 274.349 127.299 274.11ZM127.865 274.04V274.11C127.865 274.276 127.884 274.432 127.923 274.579C127.962 274.723 128.02 274.852 128.098 274.964C128.177 275.076 128.276 275.165 128.394 275.23C128.513 275.294 128.65 275.325 128.808 275.325C128.963 275.325 129.098 275.294 129.215 275.23C129.333 275.165 129.431 275.076 129.508 274.964C129.586 274.852 129.644 274.723 129.683 274.579C129.724 274.432 129.744 274.276 129.744 274.11V274.04C129.744 273.877 129.724 273.723 129.683 273.578C129.644 273.431 129.585 273.302 129.505 273.189C129.428 273.075 129.33 272.985 129.211 272.92C129.095 272.855 128.958 272.822 128.801 272.822C128.646 272.822 128.51 272.855 128.391 272.92C128.275 272.985 128.177 273.075 128.098 273.189C128.02 273.302 127.962 273.431 127.923 273.578C127.884 273.723 127.865 273.877 127.865 274.04ZM131.589 273.125V275.729H131.023V272.418H131.559L131.589 273.125ZM131.455 273.948L131.219 273.939C131.221 273.713 131.255 273.503 131.32 273.312C131.385 273.118 131.477 272.95 131.595 272.807C131.714 272.664 131.854 272.554 132.018 272.476C132.183 272.397 132.365 272.357 132.565 272.357C132.729 272.357 132.876 272.379 133.006 272.424C133.137 272.467 133.248 272.536 133.34 272.632C133.433 272.728 133.505 272.853 133.554 273.006C133.603 273.157 133.627 273.341 133.627 273.56V275.729H133.058V273.553C133.058 273.38 133.033 273.241 132.982 273.137C132.931 273.031 132.856 272.955 132.758 272.908C132.66 272.859 132.54 272.834 132.397 272.834C132.256 272.834 132.128 272.864 132.012 272.923C131.897 272.982 131.798 273.064 131.715 273.168C131.633 273.272 131.569 273.391 131.522 273.526C131.477 273.659 131.455 273.799 131.455 273.948ZM136.574 275.087V271.029H137.143V275.729H136.623L136.574 275.087ZM134.346 274.11V274.046C134.346 273.793 134.377 273.564 134.438 273.358C134.501 273.15 134.59 272.971 134.704 272.822C134.821 272.673 134.958 272.559 135.118 272.479C135.279 272.398 135.458 272.357 135.656 272.357C135.864 272.357 136.046 272.394 136.201 272.467C136.358 272.538 136.491 272.644 136.599 272.782C136.709 272.919 136.796 273.084 136.859 273.278C136.922 273.472 136.966 273.691 136.99 273.936V274.218C136.968 274.46 136.924 274.679 136.859 274.872C136.796 275.066 136.709 275.231 136.599 275.368C136.491 275.505 136.358 275.61 136.201 275.683C136.044 275.755 135.86 275.79 135.65 275.79C135.456 275.79 135.279 275.749 135.118 275.665C134.958 275.581 134.821 275.464 134.704 275.313C134.59 275.162 134.501 274.985 134.438 274.781C134.377 274.575 134.346 274.351 134.346 274.11ZM134.916 274.046V274.11C134.916 274.276 134.932 274.431 134.965 274.576C134.999 274.72 135.052 274.848 135.124 274.958C135.195 275.068 135.286 275.155 135.396 275.218C135.506 275.279 135.638 275.31 135.791 275.31C135.979 275.31 136.133 275.27 136.253 275.191C136.375 275.111 136.473 275.006 136.547 274.875C136.62 274.745 136.677 274.603 136.718 274.45V273.713C136.694 273.6 136.658 273.492 136.611 273.388C136.566 273.282 136.507 273.188 136.433 273.107C136.362 273.023 136.273 272.957 136.167 272.908C136.063 272.859 135.94 272.834 135.797 272.834C135.642 272.834 135.508 272.867 135.396 272.932C135.286 272.995 135.195 273.083 135.124 273.195C135.052 273.306 134.999 273.434 134.965 273.581C134.932 273.726 134.916 273.881 134.916 274.046ZM139.977 275.163V273.459C139.977 273.328 139.951 273.215 139.898 273.119C139.847 273.021 139.769 272.946 139.665 272.892C139.561 272.839 139.432 272.813 139.279 272.813C139.137 272.813 139.011 272.837 138.903 272.886C138.797 272.935 138.713 273 138.652 273.079C138.593 273.159 138.563 273.244 138.563 273.336H137.997C137.997 273.218 138.028 273.101 138.089 272.984C138.15 272.868 138.238 272.763 138.352 272.669C138.469 272.573 138.607 272.498 138.768 272.443C138.932 272.385 139.113 272.357 139.313 272.357C139.554 272.357 139.766 272.398 139.95 272.479C140.135 272.561 140.28 272.684 140.384 272.85C140.49 273.013 140.543 273.218 140.543 273.465V275.007C140.543 275.117 140.552 275.235 140.571 275.359C140.591 275.483 140.621 275.591 140.66 275.68V275.729H140.069C140.04 275.664 140.018 275.577 140.002 275.469C139.985 275.359 139.977 275.257 139.977 275.163ZM140.075 273.722L140.081 274.12H139.509C139.348 274.12 139.204 274.133 139.077 274.159C138.951 274.184 138.845 274.222 138.759 274.273C138.674 274.324 138.608 274.388 138.563 274.465C138.518 274.541 138.496 274.63 138.496 274.732C138.496 274.836 138.52 274.931 138.566 275.016C138.613 275.102 138.684 275.17 138.778 275.221C138.873 275.27 138.991 275.295 139.13 275.295C139.303 275.295 139.456 275.258 139.589 275.185C139.721 275.111 139.826 275.021 139.904 274.915C139.983 274.809 140.026 274.706 140.032 274.606L140.274 274.879C140.26 274.964 140.221 275.059 140.158 275.163C140.094 275.267 140.01 275.367 139.904 275.463C139.8 275.557 139.675 275.635 139.53 275.699C139.388 275.76 139.226 275.79 139.047 275.79C138.822 275.79 138.626 275.747 138.456 275.659C138.289 275.571 138.158 275.454 138.065 275.307C137.973 275.158 137.927 274.992 137.927 274.808C137.927 274.631 137.962 274.475 138.031 274.34C138.1 274.203 138.2 274.09 138.331 274C138.461 273.908 138.618 273.839 138.802 273.792C138.986 273.745 139.191 273.722 139.417 273.722H140.075ZM142.315 275.387L143.236 272.418H143.842L142.514 276.24C142.483 276.322 142.443 276.41 142.392 276.503C142.343 276.599 142.279 276.69 142.202 276.776C142.124 276.862 142.031 276.931 141.92 276.984C141.812 277.039 141.683 277.067 141.532 277.067C141.487 277.067 141.43 277.06 141.36 277.048C141.291 277.036 141.242 277.026 141.213 277.018L141.21 276.559C141.227 276.561 141.252 276.563 141.287 276.565C141.324 276.569 141.349 276.571 141.363 276.571C141.492 276.571 141.601 276.553 141.691 276.519C141.781 276.486 141.856 276.43 141.917 276.35C141.981 276.273 142.035 276.166 142.08 276.029L142.315 275.387ZM141.639 272.418L142.499 274.989L142.646 275.585L142.239 275.794L141.021 272.418H141.639Z" fill="#333333"/>
<path d="M157.953 271.274V275.729H157.372V271.274H157.953ZM159.385 271.274V271.757H155.943V271.274H159.385ZM161.693 274.964V272.418H162.262V275.729H161.72L161.693 274.964ZM161.8 274.266L162.036 274.26C162.036 274.481 162.012 274.685 161.965 274.872C161.92 275.058 161.847 275.219 161.745 275.356C161.643 275.492 161.509 275.6 161.344 275.677C161.179 275.753 160.978 275.79 160.741 275.79C160.58 275.79 160.432 275.767 160.297 275.72C160.165 275.673 160.051 275.601 159.955 275.503C159.859 275.405 159.784 275.277 159.731 275.12C159.68 274.963 159.655 274.774 159.655 274.554V272.418H160.221V274.56C160.221 274.709 160.237 274.832 160.27 274.93C160.305 275.026 160.35 275.103 160.408 275.16C160.467 275.215 160.532 275.254 160.603 275.276C160.677 275.299 160.752 275.31 160.83 275.31C161.071 275.31 161.261 275.264 161.402 275.172C161.543 275.078 161.644 274.953 161.705 274.796C161.768 274.637 161.8 274.46 161.8 274.266ZM164.499 275.79C164.268 275.79 164.059 275.752 163.872 275.674C163.686 275.594 163.526 275.483 163.391 275.34C163.259 275.198 163.157 275.028 163.085 274.832C163.014 274.637 162.978 274.422 162.978 274.19V274.061C162.978 273.792 163.018 273.552 163.097 273.342C163.177 273.13 163.285 272.95 163.422 272.804C163.559 272.657 163.714 272.546 163.887 272.47C164.06 272.395 164.24 272.357 164.426 272.357C164.662 272.357 164.866 272.398 165.038 272.479C165.211 272.561 165.353 272.675 165.463 272.822C165.573 272.967 165.655 273.138 165.708 273.336C165.761 273.532 165.787 273.746 165.787 273.979V274.233H163.315V273.771H165.221V273.728C165.213 273.581 165.182 273.438 165.129 273.299C165.078 273.161 164.997 273.046 164.885 272.957C164.772 272.867 164.619 272.822 164.426 272.822C164.297 272.822 164.179 272.849 164.071 272.905C163.962 272.958 163.87 273.037 163.792 273.143C163.715 273.249 163.654 273.379 163.612 273.532C163.569 273.685 163.547 273.861 163.547 274.061V274.19C163.547 274.347 163.569 274.495 163.612 274.634C163.656 274.77 163.721 274.891 163.804 274.995C163.89 275.099 163.993 275.18 164.113 275.239C164.236 275.299 164.375 275.328 164.53 275.328C164.73 275.328 164.899 275.287 165.038 275.206C165.176 275.124 165.298 275.015 165.402 274.878L165.745 275.151C165.673 275.259 165.582 275.362 165.472 275.46C165.362 275.558 165.226 275.637 165.065 275.699C164.906 275.76 164.717 275.79 164.499 275.79ZM168.376 274.851C168.376 274.769 168.358 274.694 168.321 274.624C168.287 274.553 168.214 274.489 168.104 274.432C167.996 274.372 167.833 274.321 167.614 274.279C167.431 274.24 167.264 274.194 167.115 274.141C166.969 274.088 166.843 274.024 166.739 273.948C166.637 273.873 166.559 273.784 166.503 273.682C166.448 273.58 166.421 273.461 166.421 273.324C166.421 273.193 166.449 273.07 166.507 272.954C166.566 272.837 166.648 272.734 166.754 272.644C166.863 272.555 166.992 272.484 167.143 272.433C167.294 272.382 167.462 272.357 167.648 272.357C167.913 272.357 168.14 272.404 168.327 272.498C168.515 272.591 168.659 272.717 168.759 272.874C168.859 273.029 168.909 273.201 168.909 273.391H168.343C168.343 273.299 168.315 273.211 168.26 273.125C168.207 273.037 168.128 272.965 168.024 272.908C167.922 272.851 167.797 272.822 167.648 272.822C167.491 272.822 167.363 272.846 167.265 272.895C167.17 272.942 167.099 273.003 167.054 273.076C167.011 273.149 166.99 273.227 166.99 273.309C166.99 273.37 167 273.425 167.021 273.474C167.043 273.521 167.082 273.565 167.137 273.605C167.192 273.644 167.27 273.681 167.369 273.716C167.469 273.75 167.597 273.785 167.752 273.82C168.023 273.881 168.247 273.954 168.422 274.04C168.598 274.126 168.728 274.231 168.814 274.355C168.9 274.48 168.942 274.631 168.942 274.808C168.942 274.953 168.912 275.085 168.851 275.206C168.791 275.326 168.705 275.43 168.59 275.518C168.478 275.604 168.344 275.671 168.187 275.72C168.031 275.767 167.857 275.79 167.663 275.79C167.372 275.79 167.125 275.738 166.923 275.634C166.721 275.53 166.568 275.396 166.464 275.23C166.36 275.065 166.308 274.891 166.308 274.707H166.877C166.885 274.862 166.93 274.986 167.011 275.077C167.093 275.167 167.193 275.231 167.311 275.27C167.43 275.307 167.547 275.325 167.663 275.325C167.818 275.325 167.948 275.305 168.052 275.264C168.158 275.223 168.239 275.167 168.294 275.096C168.349 275.024 168.376 274.943 168.376 274.851ZM171.773 275.086V271.029H172.342V275.729H171.822L171.773 275.086ZM169.545 274.11V274.046C169.545 273.793 169.576 273.564 169.637 273.357C169.7 273.149 169.789 272.971 169.903 272.822C170.02 272.673 170.157 272.559 170.316 272.479C170.478 272.398 170.657 272.357 170.855 272.357C171.063 272.357 171.245 272.394 171.4 272.467C171.557 272.538 171.689 272.643 171.798 272.782C171.908 272.919 171.994 273.084 172.058 273.278C172.121 273.472 172.165 273.691 172.189 273.936V274.217C172.167 274.46 172.123 274.678 172.058 274.872C171.994 275.066 171.908 275.231 171.798 275.368C171.689 275.505 171.557 275.61 171.4 275.683C171.243 275.755 171.059 275.79 170.849 275.79C170.655 275.79 170.478 275.749 170.316 275.665C170.157 275.581 170.02 275.464 169.903 275.313C169.789 275.162 169.7 274.984 169.637 274.78C169.576 274.574 169.545 274.351 169.545 274.11ZM170.114 274.046V274.11C170.114 274.276 170.131 274.431 170.163 274.575C170.198 274.72 170.251 274.848 170.323 274.958C170.394 275.068 170.485 275.155 170.595 275.218C170.705 275.279 170.837 275.31 170.99 275.31C171.177 275.31 171.331 275.27 171.452 275.191C171.574 275.111 171.672 275.006 171.746 274.875C171.819 274.745 171.876 274.603 171.917 274.45V273.712C171.892 273.6 171.857 273.492 171.81 273.388C171.765 273.282 171.706 273.188 171.632 273.107C171.561 273.023 171.472 272.957 171.366 272.908C171.262 272.859 171.139 272.834 170.996 272.834C170.841 272.834 170.707 272.867 170.595 272.932C170.485 272.995 170.394 273.083 170.323 273.195C170.251 273.305 170.198 273.434 170.163 273.581C170.131 273.726 170.114 273.881 170.114 274.046ZM175.176 275.163V273.458C175.176 273.328 175.149 273.215 175.096 273.119C175.045 273.021 174.968 272.945 174.864 272.892C174.76 272.839 174.631 272.813 174.478 272.813C174.335 272.813 174.21 272.837 174.102 272.886C173.996 272.935 173.912 272.999 173.851 273.079C173.792 273.159 173.762 273.244 173.762 273.336H173.196C173.196 273.218 173.227 273.1 173.288 272.984C173.349 272.868 173.437 272.763 173.551 272.669C173.667 272.573 173.806 272.498 173.967 272.442C174.13 272.385 174.312 272.357 174.512 272.357C174.753 272.357 174.965 272.398 175.148 272.479C175.334 272.561 175.479 272.684 175.583 272.849C175.689 273.013 175.742 273.218 175.742 273.465V275.007C175.742 275.117 175.751 275.234 175.77 275.359C175.79 275.483 175.82 275.59 175.858 275.68V275.729H175.268C175.239 275.664 175.217 275.577 175.2 275.469C175.184 275.359 175.176 275.257 175.176 275.163ZM175.274 273.722L175.28 274.119H174.708C174.547 274.119 174.403 274.133 174.276 274.159C174.15 274.184 174.044 274.221 173.958 274.272C173.872 274.323 173.807 274.388 173.762 274.465C173.717 274.541 173.695 274.63 173.695 274.732C173.695 274.836 173.718 274.93 173.765 275.016C173.812 275.102 173.883 275.17 173.976 275.221C174.072 275.27 174.19 275.295 174.328 275.295C174.502 275.295 174.655 275.258 174.787 275.184C174.92 275.111 175.025 275.021 175.103 274.915C175.182 274.809 175.225 274.706 175.231 274.606L175.473 274.878C175.459 274.964 175.42 275.059 175.357 275.163C175.293 275.267 175.209 275.367 175.103 275.463C174.999 275.557 174.874 275.635 174.729 275.699C174.586 275.76 174.425 275.79 174.246 275.79C174.021 275.79 173.824 275.746 173.655 275.659C173.488 275.571 173.357 275.454 173.263 275.307C173.172 275.158 173.126 274.992 173.126 274.808C173.126 274.631 173.16 274.474 173.23 274.34C173.299 274.203 173.399 274.09 173.53 274C173.66 273.908 173.817 273.839 174.001 273.792C174.185 273.745 174.39 273.722 174.616 273.722H175.274ZM177.514 275.386L178.435 272.418H179.041L177.713 276.24C177.682 276.322 177.641 276.41 177.59 276.503C177.542 276.599 177.478 276.69 177.401 276.776C177.323 276.861 177.229 276.931 177.119 276.984C177.011 277.039 176.882 277.066 176.731 277.066C176.686 277.066 176.629 277.06 176.559 277.048C176.49 277.036 176.441 277.026 176.412 277.017L176.409 276.558C176.426 276.56 176.451 276.563 176.486 276.565C176.522 276.569 176.548 276.571 176.562 276.571C176.691 276.571 176.8 276.553 176.89 276.519C176.979 276.486 177.055 276.43 177.116 276.35C177.179 276.273 177.233 276.166 177.278 276.029L177.514 275.386ZM176.838 272.418L177.698 274.989L177.844 275.585L177.437 275.793L176.22 272.418H176.838Z" fill="#333333"/>
<path d="M187.138 274.383L188.022 271.274H188.451L188.203 272.482L187.251 275.729H186.826L187.138 274.383ZM186.223 271.274L186.927 274.321L187.138 275.729H186.715L185.635 271.274H186.223ZM189.595 274.318L190.284 271.274H190.874L189.797 275.729H189.375L189.595 274.318ZM188.515 271.274L189.375 274.383L189.687 275.729H189.262L188.344 272.482L188.093 271.274H188.515ZM192.72 275.79C192.489 275.79 192.28 275.752 192.092 275.674C191.907 275.594 191.746 275.483 191.612 275.34C191.479 275.198 191.377 275.028 191.306 274.832C191.234 274.637 191.199 274.422 191.199 274.19V274.061C191.199 273.792 191.238 273.552 191.318 273.342C191.398 273.13 191.506 272.95 191.642 272.804C191.779 272.657 191.934 272.546 192.108 272.47C192.281 272.395 192.46 272.357 192.646 272.357C192.883 272.357 193.087 272.398 193.258 272.479C193.432 272.561 193.573 272.675 193.684 272.822C193.794 272.967 193.875 273.138 193.928 273.336C193.981 273.532 194.008 273.746 194.008 273.979V274.233H191.535V273.771H193.442V273.728C193.434 273.581 193.403 273.438 193.35 273.299C193.299 273.161 193.217 273.046 193.105 272.957C192.993 272.867 192.84 272.822 192.646 272.822C192.518 272.822 192.399 272.849 192.291 272.905C192.183 272.958 192.09 273.037 192.013 273.143C191.935 273.249 191.875 273.379 191.832 273.532C191.789 273.685 191.768 273.861 191.768 274.061V274.19C191.768 274.347 191.789 274.495 191.832 274.634C191.877 274.77 191.941 274.891 192.025 274.995C192.111 275.099 192.214 275.18 192.334 275.239C192.456 275.299 192.595 275.328 192.75 275.328C192.95 275.328 193.119 275.287 193.258 275.206C193.397 275.124 193.518 275.015 193.622 274.878L193.965 275.151C193.894 275.259 193.803 275.362 193.693 275.46C193.583 275.558 193.447 275.637 193.286 275.699C193.127 275.76 192.938 275.79 192.72 275.79ZM196.756 275.086V271.029H197.325V275.729H196.805L196.756 275.086ZM194.528 274.11V274.046C194.528 273.793 194.559 273.564 194.62 273.357C194.683 273.149 194.772 272.971 194.886 272.822C195.002 272.673 195.14 272.559 195.299 272.479C195.46 272.398 195.64 272.357 195.838 272.357C196.046 272.357 196.228 272.394 196.383 272.467C196.54 272.538 196.672 272.643 196.78 272.782C196.891 272.919 196.977 273.084 197.041 273.278C197.104 273.472 197.148 273.691 197.172 273.936V274.217C197.15 274.46 197.106 274.678 197.041 274.872C196.977 275.066 196.891 275.231 196.78 275.368C196.672 275.505 196.54 275.61 196.383 275.683C196.226 275.755 196.042 275.79 195.832 275.79C195.638 275.79 195.46 275.749 195.299 275.665C195.14 275.581 195.002 275.464 194.886 275.313C194.772 275.162 194.683 274.984 194.62 274.78C194.559 274.574 194.528 274.351 194.528 274.11ZM195.097 274.046V274.11C195.097 274.276 195.114 274.431 195.146 274.575C195.181 274.72 195.234 274.848 195.305 274.958C195.377 275.068 195.468 275.155 195.578 275.218C195.688 275.279 195.82 275.31 195.973 275.31C196.16 275.31 196.314 275.27 196.435 275.191C196.557 275.111 196.655 275.006 196.728 274.875C196.802 274.745 196.859 274.603 196.9 274.45V273.712C196.875 273.6 196.84 273.492 196.793 273.388C196.748 273.282 196.689 273.188 196.615 273.107C196.544 273.023 196.455 272.957 196.349 272.908C196.245 272.859 196.121 272.834 195.979 272.834C195.824 272.834 195.69 272.867 195.578 272.932C195.468 272.995 195.377 273.083 195.305 273.195C195.234 273.305 195.181 273.434 195.146 273.581C195.114 273.726 195.097 273.881 195.097 274.046ZM198.773 273.125V275.729H198.206V272.418H198.742L198.773 273.125ZM198.638 273.948L198.402 273.939C198.404 273.712 198.438 273.503 198.503 273.312C198.569 273.118 198.66 272.949 198.779 272.807C198.897 272.664 199.038 272.554 199.201 272.476C199.366 272.397 199.549 272.357 199.749 272.357C199.912 272.357 200.059 272.379 200.189 272.424C200.32 272.467 200.431 272.536 200.523 272.632C200.617 272.728 200.688 272.853 200.737 273.006C200.786 273.157 200.811 273.341 200.811 273.559V275.729H200.241V273.553C200.241 273.38 200.216 273.241 200.165 273.137C200.114 273.031 200.04 272.955 199.942 272.908C199.844 272.859 199.723 272.834 199.58 272.834C199.44 272.834 199.311 272.864 199.195 272.923C199.081 272.982 198.982 273.064 198.898 273.168C198.816 273.272 198.752 273.391 198.705 273.526C198.66 273.658 198.638 273.799 198.638 273.948ZM203.045 275.79C202.814 275.79 202.605 275.752 202.417 275.674C202.232 275.594 202.071 275.483 201.937 275.34C201.804 275.198 201.702 275.028 201.631 274.832C201.559 274.637 201.524 274.422 201.524 274.19V274.061C201.524 273.792 201.563 273.552 201.643 273.342C201.723 273.13 201.831 272.95 201.967 272.804C202.104 272.657 202.259 272.546 202.433 272.47C202.606 272.395 202.786 272.357 202.971 272.357C203.208 272.357 203.412 272.398 203.583 272.479C203.757 272.561 203.898 272.675 204.009 272.822C204.119 272.967 204.2 273.138 204.253 273.336C204.306 273.532 204.333 273.746 204.333 273.979V274.233H201.86V273.771H203.767V273.728C203.759 273.581 203.728 273.438 203.675 273.299C203.624 273.161 203.542 273.046 203.43 272.957C203.318 272.867 203.165 272.822 202.971 272.822C202.843 272.822 202.724 272.849 202.616 272.905C202.508 272.958 202.415 273.037 202.338 273.143C202.26 273.249 202.2 273.379 202.157 273.532C202.114 273.685 202.093 273.861 202.093 274.061V274.19C202.093 274.347 202.114 274.495 202.157 274.634C202.202 274.77 202.266 274.891 202.35 274.995C202.436 275.099 202.539 275.18 202.659 275.239C202.781 275.299 202.92 275.328 203.075 275.328C203.275 275.328 203.444 275.287 203.583 275.206C203.722 275.124 203.843 275.015 203.947 274.878L204.29 275.151C204.219 275.259 204.128 275.362 204.018 275.46C203.908 275.558 203.772 275.637 203.611 275.699C203.452 275.76 203.263 275.79 203.045 275.79ZM206.922 274.851C206.922 274.769 206.904 274.694 206.867 274.624C206.832 274.553 206.76 274.489 206.65 274.432C206.541 274.372 206.378 274.321 206.16 274.279C205.976 274.24 205.81 274.194 205.661 274.141C205.514 274.088 205.389 274.024 205.285 273.948C205.183 273.873 205.104 273.784 205.049 273.682C204.994 273.58 204.966 273.461 204.966 273.324C204.966 273.193 204.995 273.07 205.052 272.954C205.111 272.837 205.194 272.734 205.3 272.644C205.408 272.555 205.538 272.484 205.689 272.433C205.84 272.382 206.008 272.357 206.194 272.357C206.459 272.357 206.685 272.404 206.873 272.498C207.061 272.591 207.204 272.717 207.304 272.874C207.404 273.029 207.454 273.201 207.454 273.391H206.888C206.888 273.299 206.861 273.211 206.806 273.125C206.753 273.037 206.674 272.965 206.57 272.908C206.468 272.851 206.342 272.822 206.194 272.822C206.036 272.822 205.909 272.846 205.811 272.895C205.715 272.942 205.645 273.003 205.6 273.076C205.557 273.149 205.536 273.227 205.536 273.309C205.536 273.37 205.546 273.425 205.566 273.474C205.589 273.521 205.627 273.565 205.682 273.605C205.738 273.644 205.815 273.681 205.915 273.716C206.015 273.75 206.143 273.785 206.298 273.82C206.569 273.881 206.792 273.954 206.968 274.04C207.143 274.126 207.274 274.231 207.359 274.355C207.445 274.48 207.488 274.631 207.488 274.808C207.488 274.953 207.457 275.085 207.396 275.206C207.337 275.326 207.25 275.43 207.136 275.518C207.024 275.604 206.889 275.671 206.732 275.72C206.577 275.767 206.403 275.79 206.209 275.79C205.917 275.79 205.67 275.738 205.468 275.634C205.266 275.53 205.113 275.396 205.009 275.23C204.905 275.065 204.853 274.891 204.853 274.707H205.422C205.431 274.862 205.475 274.986 205.557 275.077C205.639 275.167 205.739 275.231 205.857 275.27C205.975 275.307 206.093 275.325 206.209 275.325C206.364 275.325 206.493 275.305 206.597 275.264C206.704 275.223 206.784 275.167 206.839 275.096C206.894 275.024 206.922 274.943 206.922 274.851ZM210.319 275.086V271.029H210.888V275.729H210.368L210.319 275.086ZM208.091 274.11V274.046C208.091 273.793 208.121 273.564 208.183 273.357C208.246 273.149 208.335 272.971 208.449 272.822C208.565 272.673 208.703 272.559 208.862 272.479C209.023 272.398 209.203 272.357 209.401 272.357C209.609 272.357 209.79 272.394 209.945 272.467C210.102 272.538 210.235 272.643 210.343 272.782C210.453 272.919 210.54 273.084 210.603 273.278C210.667 273.472 210.71 273.691 210.735 273.936V274.217C210.712 274.46 210.669 274.678 210.603 274.872C210.54 275.066 210.453 275.231 210.343 275.368C210.235 275.505 210.102 275.61 209.945 275.683C209.788 275.755 209.605 275.79 209.394 275.79C209.201 275.79 209.023 275.749 208.862 275.665C208.703 275.581 208.565 275.464 208.449 275.313C208.335 275.162 208.246 274.984 208.183 274.78C208.121 274.574 208.091 274.351 208.091 274.11ZM208.66 274.046V274.11C208.66 274.276 208.676 274.431 208.709 274.575C208.744 274.72 208.797 274.848 208.868 274.958C208.94 275.068 209.03 275.155 209.141 275.218C209.251 275.279 209.382 275.31 209.535 275.31C209.723 275.31 209.877 275.27 209.997 275.191C210.12 275.111 210.218 275.006 210.291 274.875C210.365 274.745 210.422 274.603 210.463 274.45V273.712C210.438 273.6 210.402 273.492 210.355 273.388C210.311 273.282 210.251 273.188 210.178 273.107C210.106 273.023 210.018 272.957 209.912 272.908C209.808 272.859 209.684 272.834 209.541 272.834C209.386 272.834 209.253 272.867 209.141 272.932C209.03 272.995 208.94 273.083 208.868 273.195C208.797 273.305 208.744 273.434 208.709 273.581C208.676 273.726 208.66 273.881 208.66 274.046ZM213.722 275.163V273.458C213.722 273.328 213.695 273.215 213.642 273.119C213.591 273.021 213.514 272.945 213.409 272.892C213.305 272.839 213.177 272.813 213.024 272.813C212.881 272.813 212.756 272.837 212.647 272.886C212.541 272.935 212.458 272.999 212.397 273.079C212.337 273.159 212.308 273.244 212.308 273.336H211.742C211.742 273.218 211.772 273.1 211.833 272.984C211.895 272.868 211.982 272.763 212.097 272.669C212.213 272.573 212.352 272.498 212.513 272.442C212.676 272.385 212.858 272.357 213.058 272.357C213.298 272.357 213.51 272.398 213.694 272.479C213.88 272.561 214.025 272.684 214.129 272.849C214.235 273.013 214.288 273.218 214.288 273.465V275.007C214.288 275.117 214.297 275.234 214.315 275.359C214.336 275.483 214.365 275.59 214.404 275.68V275.729H213.813C213.785 275.664 213.762 275.577 213.746 275.469C213.73 275.359 213.722 275.257 213.722 275.163ZM213.82 273.722L213.826 274.119H213.253C213.092 274.119 212.948 274.133 212.822 274.159C212.695 274.184 212.589 274.221 212.504 274.272C212.418 274.323 212.353 274.388 212.308 274.465C212.263 274.541 212.24 274.63 212.24 274.732C212.24 274.836 212.264 274.93 212.311 275.016C212.358 275.102 212.428 275.17 212.522 275.221C212.618 275.27 212.735 275.295 212.874 275.295C213.047 275.295 213.2 275.258 213.333 275.184C213.466 275.111 213.571 275.021 213.648 274.915C213.728 274.809 213.771 274.706 213.777 274.606L214.018 274.878C214.004 274.964 213.965 275.059 213.902 275.163C213.839 275.267 213.754 275.367 213.648 275.463C213.544 275.557 213.42 275.635 213.275 275.699C213.132 275.76 212.971 275.79 212.791 275.79C212.567 275.79 212.37 275.746 212.201 275.659C212.033 275.571 211.903 275.454 211.809 275.307C211.717 275.158 211.671 274.992 211.671 274.808C211.671 274.631 211.706 274.474 211.775 274.34C211.845 274.203 211.945 274.09 212.075 274C212.206 273.908 212.363 273.839 212.546 273.792C212.73 273.745 212.935 273.722 213.162 273.722H213.82ZM216.06 275.386L216.981 272.418H217.587L216.258 276.24C216.228 276.322 216.187 276.41 216.136 276.503C216.087 276.599 216.024 276.69 215.946 276.776C215.869 276.861 215.775 276.931 215.665 276.984C215.557 277.039 215.427 277.066 215.276 277.066C215.231 277.066 215.174 277.06 215.105 277.048C215.035 277.036 214.986 277.026 214.958 277.017L214.955 276.558C214.971 276.56 214.997 276.563 215.031 276.565C215.068 276.569 215.094 276.571 215.108 276.571C215.236 276.571 215.346 276.553 215.435 276.519C215.525 276.486 215.601 276.43 215.662 276.35C215.725 276.273 215.779 276.166 215.824 276.029L216.06 275.386ZM215.383 272.418L216.243 274.989L216.39 275.585L215.983 275.793L214.765 272.418H215.383Z" fill="#333333"/>
<path d="M225.58 271.274V275.729H224.999V271.274H225.58ZM227.012 271.274V271.757H223.57V271.274H227.012ZM228.154 271.029V275.729H227.588V271.029H228.154ZM228.019 273.948L227.784 273.939C227.786 273.712 227.819 273.503 227.884 273.312C227.95 273.118 228.042 272.949 228.16 272.807C228.278 272.664 228.419 272.554 228.582 272.476C228.747 272.397 228.93 272.357 229.13 272.357C229.293 272.357 229.44 272.379 229.571 272.424C229.701 272.467 229.812 272.536 229.904 272.632C229.998 272.728 230.069 272.853 230.118 273.006C230.167 273.157 230.192 273.341 230.192 273.559V275.729H229.623V273.553C229.623 273.38 229.597 273.241 229.546 273.137C229.495 273.031 229.421 272.955 229.323 272.908C229.225 272.859 229.104 272.834 228.962 272.834C228.821 272.834 228.692 272.864 228.576 272.923C228.462 272.982 228.363 273.064 228.279 273.168C228.198 273.272 228.133 273.391 228.086 273.526C228.042 273.658 228.019 273.799 228.019 273.948ZM233.065 274.964V272.418H233.635V275.729H233.093L233.065 274.964ZM233.172 274.266L233.408 274.26C233.408 274.481 233.385 274.685 233.338 274.872C233.293 275.058 233.219 275.219 233.117 275.356C233.015 275.492 232.882 275.6 232.717 275.677C232.551 275.753 232.35 275.79 232.114 275.79C231.952 275.79 231.805 275.767 231.67 275.72C231.537 275.673 231.423 275.601 231.327 275.503C231.231 275.405 231.157 275.277 231.104 275.12C231.053 274.963 231.027 274.774 231.027 274.554V272.418H231.593V274.56C231.593 274.709 231.61 274.832 231.642 274.93C231.677 275.026 231.723 275.103 231.78 275.16C231.839 275.215 231.905 275.254 231.976 275.276C232.049 275.299 232.125 275.31 232.202 275.31C232.443 275.31 232.634 275.264 232.775 275.172C232.915 275.078 233.016 274.953 233.078 274.796C233.141 274.637 233.172 274.46 233.172 274.266ZM235.064 272.938V275.729H234.498V272.418H235.048L235.064 272.938ZM236.098 272.4L236.095 272.926C236.048 272.916 236.003 272.91 235.96 272.908C235.92 272.904 235.873 272.902 235.82 272.902C235.689 272.902 235.574 272.922 235.474 272.963C235.374 273.004 235.289 273.061 235.22 273.134C235.15 273.208 235.095 273.295 235.054 273.397C235.016 273.497 234.99 273.607 234.978 273.728L234.819 273.82C234.819 273.62 234.838 273.432 234.877 273.256C234.918 273.081 234.98 272.926 235.064 272.791C235.147 272.655 235.253 272.549 235.382 272.473C235.513 272.396 235.668 272.357 235.847 272.357C235.888 272.357 235.935 272.362 235.988 272.372C236.041 272.38 236.078 272.389 236.098 272.4ZM238.549 274.851C238.549 274.769 238.531 274.694 238.494 274.624C238.459 274.553 238.387 274.489 238.277 274.432C238.169 274.372 238.006 274.321 237.787 274.279C237.604 274.24 237.437 274.194 237.288 274.141C237.142 274.088 237.016 274.024 236.912 273.948C236.81 273.873 236.731 273.784 236.676 273.682C236.621 273.58 236.594 273.461 236.594 273.324C236.594 273.193 236.622 273.07 236.679 272.954C236.739 272.837 236.821 272.734 236.927 272.644C237.035 272.555 237.165 272.484 237.316 272.433C237.467 272.382 237.635 272.357 237.821 272.357C238.086 272.357 238.313 272.404 238.5 272.498C238.688 272.591 238.832 272.717 238.932 272.874C239.032 273.029 239.082 273.201 239.082 273.391H238.516C238.516 273.299 238.488 273.211 238.433 273.125C238.38 273.037 238.301 272.965 238.197 272.908C238.095 272.851 237.97 272.822 237.821 272.822C237.664 272.822 237.536 272.846 237.438 272.895C237.342 272.942 237.272 273.003 237.227 273.076C237.184 273.149 237.163 273.227 237.163 273.309C237.163 273.37 237.173 273.425 237.194 273.474C237.216 273.521 237.255 273.565 237.31 273.605C237.365 273.644 237.442 273.681 237.542 273.716C237.642 273.75 237.77 273.785 237.925 273.82C238.196 273.881 238.42 273.954 238.595 274.04C238.771 274.126 238.901 274.231 238.987 274.355C239.073 274.48 239.115 274.631 239.115 274.808C239.115 274.953 239.085 275.085 239.024 275.206C238.964 275.326 238.878 275.43 238.763 275.518C238.651 275.604 238.517 275.671 238.359 275.72C238.204 275.767 238.03 275.79 237.836 275.79C237.544 275.79 237.298 275.738 237.096 275.634C236.894 275.53 236.741 275.396 236.637 275.23C236.533 275.065 236.481 274.891 236.481 274.707H237.05C237.058 274.862 237.103 274.986 237.184 275.077C237.266 275.167 237.366 275.231 237.484 275.27C237.603 275.307 237.72 275.325 237.836 275.325C237.991 275.325 238.121 275.305 238.225 275.264C238.331 275.223 238.412 275.167 238.467 275.096C238.522 275.024 238.549 274.943 238.549 274.851ZM241.946 275.086V271.029H242.515V275.729H241.995L241.946 275.086ZM239.718 274.11V274.046C239.718 273.793 239.749 273.564 239.81 273.357C239.873 273.149 239.962 272.971 240.076 272.822C240.193 272.673 240.33 272.559 240.489 272.479C240.651 272.398 240.83 272.357 241.028 272.357C241.236 272.357 241.418 272.394 241.573 272.467C241.73 272.538 241.862 272.643 241.971 272.782C242.081 272.919 242.167 273.084 242.231 273.278C242.294 273.472 242.338 273.691 242.362 273.936V274.217C242.34 274.46 242.296 274.678 242.231 274.872C242.167 275.066 242.081 275.231 241.971 275.368C241.862 275.505 241.73 275.61 241.573 275.683C241.416 275.755 241.232 275.79 241.022 275.79C240.828 275.79 240.651 275.749 240.489 275.665C240.33 275.581 240.193 275.464 240.076 275.313C239.962 275.162 239.873 274.984 239.81 274.78C239.749 274.574 239.718 274.351 239.718 274.11ZM240.287 274.046V274.11C240.287 274.276 240.304 274.431 240.336 274.575C240.371 274.72 240.424 274.848 240.496 274.958C240.567 275.068 240.658 275.155 240.768 275.218C240.878 275.279 241.01 275.31 241.163 275.31C241.35 275.31 241.504 275.27 241.625 275.191C241.747 275.111 241.845 275.006 241.918 274.875C241.992 274.745 242.049 274.603 242.09 274.45V273.712C242.065 273.6 242.03 273.492 241.983 273.388C241.938 273.282 241.879 273.188 241.805 273.107C241.734 273.023 241.645 272.957 241.539 272.908C241.435 272.859 241.312 272.834 241.169 272.834C241.014 272.834 240.88 272.867 240.768 272.932C240.658 272.995 240.567 273.083 240.496 273.195C240.424 273.305 240.371 273.434 240.336 273.581C240.304 273.726 240.287 273.881 240.287 274.046ZM245.349 275.163V273.458C245.349 273.328 245.322 273.215 245.269 273.119C245.218 273.021 245.141 272.945 245.037 272.892C244.933 272.839 244.804 272.813 244.651 272.813C244.508 272.813 244.383 272.837 244.275 272.886C244.169 272.935 244.085 272.999 244.024 273.079C243.965 273.159 243.935 273.244 243.935 273.336H243.369C243.369 273.218 243.4 273.1 243.461 272.984C243.522 272.868 243.61 272.763 243.724 272.669C243.84 272.573 243.979 272.498 244.14 272.442C244.303 272.385 244.485 272.357 244.685 272.357C244.926 272.357 245.138 272.398 245.321 272.479C245.507 272.561 245.652 272.684 245.756 272.849C245.862 273.013 245.915 273.218 245.915 273.465V275.007C245.915 275.117 245.924 275.234 245.943 275.359C245.963 275.483 245.993 275.59 246.031 275.68V275.729H245.441C245.412 275.664 245.39 275.577 245.373 275.469C245.357 275.359 245.349 275.257 245.349 275.163ZM245.447 273.722L245.453 274.119H244.881C244.72 274.119 244.576 274.133 244.449 274.159C244.323 274.184 244.217 274.221 244.131 274.272C244.045 274.323 243.98 274.388 243.935 274.465C243.89 274.541 243.868 274.63 243.868 274.732C243.868 274.836 243.891 274.93 243.938 275.016C243.985 275.102 244.056 275.17 244.149 275.221C244.245 275.27 244.363 275.295 244.501 275.295C244.675 275.295 244.828 275.258 244.96 275.184C245.093 275.111 245.198 275.021 245.276 274.915C245.355 274.809 245.398 274.706 245.404 274.606L245.646 274.878C245.632 274.964 245.593 275.059 245.53 275.163C245.466 275.267 245.382 275.367 245.276 275.463C245.171 275.557 245.047 275.635 244.902 275.699C244.759 275.76 244.598 275.79 244.419 275.79C244.194 275.79 243.997 275.746 243.828 275.659C243.661 275.571 243.53 275.454 243.436 275.307C243.345 275.158 243.299 274.992 243.299 274.808C243.299 274.631 243.333 274.474 243.403 274.34C243.472 274.203 243.572 274.09 243.703 274C243.833 273.908 243.99 273.839 244.174 273.792C244.357 273.745 244.562 273.722 244.789 273.722H245.447ZM247.687 275.386L248.608 272.418H249.214L247.886 276.24C247.855 276.322 247.814 276.41 247.763 276.503C247.714 276.599 247.651 276.69 247.574 276.776C247.496 276.861 247.402 276.931 247.292 276.984C247.184 277.039 247.054 277.066 246.904 277.066C246.859 277.066 246.802 277.06 246.732 277.048C246.663 277.036 246.614 277.026 246.585 277.017L246.582 276.558C246.599 276.56 246.624 276.563 246.659 276.565C246.695 276.569 246.721 276.571 246.735 276.571C246.864 276.571 246.973 276.553 247.063 276.519C247.152 276.486 247.228 276.43 247.289 276.35C247.352 276.273 247.406 276.166 247.451 276.029L247.687 275.386ZM247.011 272.418L247.871 274.989L248.017 275.585L247.61 275.793L246.392 272.418H247.011Z" fill="#333333"/>
<path d="M264.264 271.274V275.729H263.673V271.274H264.264ZM266.131 273.278V273.761H264.136V273.278H266.131ZM266.434 271.274V271.757H264.136V271.274H266.434ZM267.538 272.938V275.729H266.972V272.418H267.523L267.538 272.938ZM268.573 272.4L268.57 272.926C268.523 272.916 268.478 272.91 268.435 272.908C268.394 272.904 268.347 272.902 268.294 272.902C268.164 272.902 268.048 272.922 267.948 272.963C267.849 273.004 267.764 273.061 267.694 273.134C267.625 273.208 267.57 273.295 267.529 273.397C267.49 273.497 267.465 273.607 267.453 273.728L267.294 273.82C267.294 273.62 267.313 273.432 267.352 273.256C267.393 273.081 267.455 272.926 267.538 272.791C267.622 272.655 267.728 272.549 267.857 272.473C267.987 272.396 268.142 272.357 268.322 272.357C268.363 272.357 268.41 272.362 268.463 272.372C268.516 272.38 268.552 272.389 268.573 272.4ZM269.711 272.418V275.729H269.142V272.418H269.711ZM269.099 271.54C269.099 271.448 269.127 271.37 269.182 271.307C269.239 271.244 269.323 271.212 269.433 271.212C269.541 271.212 269.623 271.244 269.681 271.307C269.74 271.37 269.769 271.448 269.769 271.54C269.769 271.627 269.74 271.703 269.681 271.766C269.623 271.827 269.541 271.858 269.433 271.858C269.323 271.858 269.239 271.827 269.182 271.766C269.127 271.703 269.099 271.627 269.099 271.54ZM272.707 275.086V271.029H273.276V275.729H272.756L272.707 275.086ZM270.479 274.11V274.046C270.479 273.793 270.51 273.564 270.571 273.357C270.634 273.149 270.723 272.971 270.837 272.822C270.954 272.673 271.091 272.559 271.25 272.479C271.412 272.398 271.591 272.357 271.789 272.357C271.997 272.357 272.179 272.394 272.334 272.467C272.491 272.538 272.623 272.643 272.732 272.782C272.842 272.919 272.928 273.084 272.992 273.278C273.055 273.472 273.099 273.691 273.123 273.936V274.217C273.101 274.46 273.057 274.678 272.992 274.872C272.928 275.066 272.842 275.231 272.732 275.368C272.623 275.505 272.491 275.61 272.334 275.683C272.177 275.755 271.993 275.79 271.783 275.79C271.589 275.79 271.412 275.749 271.25 275.665C271.091 275.581 270.954 275.464 270.837 275.313C270.723 275.162 270.634 274.984 270.571 274.78C270.51 274.574 270.479 274.351 270.479 274.11ZM271.048 274.046V274.11C271.048 274.276 271.065 274.431 271.097 274.575C271.132 274.72 271.185 274.848 271.257 274.958C271.328 275.068 271.419 275.155 271.529 275.218C271.639 275.279 271.771 275.31 271.924 275.31C272.111 275.31 272.265 275.27 272.386 275.191C272.508 275.111 272.606 275.006 272.68 274.875C272.753 274.745 272.81 274.603 272.851 274.45V273.712C272.826 273.6 272.791 273.492 272.744 273.388C272.699 273.282 272.64 273.188 272.566 273.107C272.495 273.023 272.406 272.957 272.3 272.908C272.196 272.859 272.073 272.834 271.93 272.834C271.775 272.834 271.641 272.867 271.529 272.932C271.419 272.995 271.328 273.083 271.257 273.195C271.185 273.305 271.132 273.434 271.097 273.581C271.065 273.726 271.048 273.881 271.048 274.046ZM276.11 275.163V273.458C276.11 273.328 276.083 273.215 276.03 273.119C275.979 273.021 275.902 272.945 275.798 272.892C275.694 272.839 275.565 272.813 275.412 272.813C275.269 272.813 275.144 272.837 275.036 272.886C274.93 272.935 274.846 272.999 274.785 273.079C274.726 273.159 274.696 273.244 274.696 273.336H274.13C274.13 273.218 274.161 273.1 274.222 272.984C274.283 272.868 274.371 272.763 274.485 272.669C274.601 272.573 274.74 272.498 274.901 272.442C275.064 272.385 275.246 272.357 275.446 272.357C275.687 272.357 275.899 272.398 276.082 272.479C276.268 272.561 276.413 272.684 276.517 272.849C276.623 273.013 276.676 273.218 276.676 273.465V275.007C276.676 275.117 276.685 275.234 276.704 275.359C276.724 275.483 276.754 275.59 276.792 275.68V275.729H276.202C276.173 275.664 276.151 275.577 276.134 275.469C276.118 275.359 276.11 275.257 276.11 275.163ZM276.208 273.722L276.214 274.119H275.642C275.481 274.119 275.337 274.133 275.21 274.159C275.084 274.184 274.978 274.221 274.892 274.272C274.806 274.323 274.741 274.388 274.696 274.465C274.651 274.541 274.629 274.63 274.629 274.732C274.629 274.836 274.652 274.93 274.699 275.016C274.746 275.102 274.817 275.17 274.91 275.221C275.006 275.27 275.124 275.295 275.262 275.295C275.436 275.295 275.589 275.258 275.721 275.184C275.854 275.111 275.959 275.021 276.037 274.915C276.116 274.809 276.159 274.706 276.165 274.606L276.407 274.878C276.393 274.964 276.354 275.059 276.291 275.163C276.227 275.267 276.143 275.367 276.037 275.463C275.933 275.557 275.808 275.635 275.663 275.699C275.52 275.76 275.359 275.79 275.18 275.79C274.955 275.79 274.758 275.746 274.589 275.659C274.422 275.571 274.291 275.454 274.197 275.307C274.106 275.158 274.06 274.992 274.06 274.808C274.06 274.631 274.094 274.474 274.164 274.34C274.233 274.203 274.333 274.09 274.464 274C274.594 273.908 274.751 273.839 274.935 273.792C275.118 273.745 275.324 273.722 275.55 273.722H276.208ZM278.448 275.386L279.369 272.418H279.975L278.647 276.24C278.616 276.322 278.575 276.41 278.524 276.503C278.476 276.599 278.412 276.69 278.335 276.776C278.257 276.861 278.163 276.931 278.053 276.984C277.945 277.039 277.816 277.066 277.665 277.066C277.62 277.066 277.563 277.06 277.493 277.048C277.424 277.036 277.375 277.026 277.346 277.017L277.343 276.558C277.36 276.56 277.385 276.563 277.42 276.565C277.456 276.569 277.482 276.571 277.496 276.571C277.625 276.571 277.734 276.553 277.824 276.519C277.913 276.486 277.989 276.43 278.05 276.35C278.113 276.273 278.167 276.166 278.212 276.029L278.448 275.386ZM277.772 272.418L278.632 274.989L278.778 275.585L278.371 275.793L277.154 272.418H277.772Z" fill="#333333"/>
<path d="M295.924 274.603C295.924 274.499 295.907 274.407 295.875 274.328C295.844 274.246 295.789 274.173 295.709 274.107C295.632 274.042 295.524 273.98 295.385 273.921C295.248 273.861 295.075 273.801 294.865 273.74C294.644 273.675 294.446 273.602 294.268 273.523C294.091 273.441 293.939 273.348 293.812 273.244C293.686 273.14 293.589 273.021 293.521 272.886C293.454 272.752 293.42 272.598 293.42 272.424C293.42 272.251 293.456 272.091 293.527 271.944C293.599 271.797 293.701 271.669 293.833 271.561C293.968 271.451 294.128 271.365 294.314 271.304C294.5 271.243 294.707 271.212 294.935 271.212C295.27 271.212 295.553 271.277 295.786 271.405C296.02 271.532 296.199 271.698 296.321 271.904C296.444 272.108 296.505 272.326 296.505 272.559H295.917C295.917 272.391 295.882 272.244 295.81 272.115C295.739 271.984 295.631 271.882 295.486 271.809C295.341 271.734 295.158 271.696 294.935 271.696C294.725 271.696 294.552 271.727 294.415 271.791C294.278 271.854 294.176 271.94 294.109 272.048C294.044 272.156 294.011 272.279 294.011 272.418C294.011 272.512 294.03 272.598 294.069 272.675C294.11 272.751 294.172 272.821 294.256 272.886C294.341 272.952 294.45 273.012 294.58 273.067C294.713 273.122 294.871 273.175 295.054 273.226C295.307 273.297 295.526 273.377 295.709 273.465C295.893 273.552 296.044 273.651 296.162 273.761C296.283 273.87 296.371 273.993 296.429 274.132C296.488 274.268 296.517 274.423 296.517 274.597C296.517 274.778 296.481 274.943 296.407 275.09C296.334 275.236 296.229 275.362 296.092 275.466C295.955 275.57 295.791 275.651 295.599 275.708C295.409 275.763 295.197 275.79 294.963 275.79C294.757 275.79 294.554 275.762 294.354 275.705C294.156 275.648 293.975 275.562 293.812 275.448C293.651 275.333 293.521 275.193 293.423 275.025C293.328 274.856 293.28 274.66 293.28 274.438H293.867C293.867 274.591 293.897 274.722 293.956 274.832C294.015 274.941 294.096 275.03 294.198 275.102C294.302 275.173 294.419 275.226 294.55 275.261C294.682 275.294 294.82 275.31 294.963 275.31C295.169 275.31 295.343 275.281 295.486 275.224C295.629 275.167 295.737 275.085 295.81 274.979C295.886 274.873 295.924 274.748 295.924 274.603ZM299.137 275.163V273.458C299.137 273.328 299.11 273.215 299.057 273.119C299.006 273.021 298.929 272.945 298.825 272.892C298.721 272.839 298.592 272.813 298.439 272.813C298.296 272.813 298.171 272.837 298.063 272.886C297.957 272.935 297.873 272.999 297.812 273.079C297.753 273.159 297.723 273.244 297.723 273.336H297.157C297.157 273.218 297.187 273.1 297.249 272.984C297.31 272.868 297.398 272.763 297.512 272.669C297.628 272.573 297.767 272.498 297.928 272.442C298.091 272.385 298.273 272.357 298.473 272.357C298.713 272.357 298.926 272.398 299.109 272.479C299.295 272.561 299.44 272.684 299.544 272.849C299.65 273.013 299.703 273.218 299.703 273.465V275.007C299.703 275.117 299.712 275.234 299.73 275.359C299.751 275.483 299.78 275.59 299.819 275.68V275.729H299.229C299.2 275.664 299.178 275.577 299.161 275.469C299.145 275.359 299.137 275.257 299.137 275.163ZM299.235 273.722L299.241 274.119H298.669C298.507 274.119 298.364 274.133 298.237 274.159C298.111 274.184 298.005 274.221 297.919 274.272C297.833 274.323 297.768 274.388 297.723 274.465C297.678 274.541 297.656 274.63 297.656 274.732C297.656 274.836 297.679 274.93 297.726 275.016C297.773 275.102 297.843 275.17 297.937 275.221C298.033 275.27 298.15 275.295 298.289 275.295C298.463 275.295 298.616 275.258 298.748 275.184C298.881 275.111 298.986 275.021 299.063 274.915C299.143 274.809 299.186 274.706 299.192 274.606L299.434 274.878C299.419 274.964 299.381 275.059 299.317 275.163C299.254 275.267 299.169 275.367 299.063 275.463C298.959 275.557 298.835 275.635 298.69 275.699C298.547 275.76 298.386 275.79 298.206 275.79C297.982 275.79 297.785 275.746 297.616 275.659C297.449 275.571 297.318 275.454 297.224 275.307C297.132 275.158 297.086 274.992 297.086 274.808C297.086 274.631 297.121 274.474 297.19 274.34C297.26 274.203 297.36 274.09 297.49 274C297.621 273.908 297.778 273.839 297.962 273.792C298.145 273.745 298.35 273.722 298.577 273.722H299.235ZM301.98 272.418V272.853H300.189V272.418H301.98ZM300.795 271.613H301.362V274.909C301.362 275.021 301.379 275.106 301.414 275.163C301.448 275.22 301.493 275.258 301.548 275.276C301.603 275.295 301.662 275.304 301.726 275.304C301.773 275.304 301.822 275.3 301.873 275.292C301.926 275.281 301.965 275.273 301.992 275.267L301.995 275.729C301.95 275.743 301.891 275.757 301.817 275.769C301.746 275.783 301.659 275.79 301.557 275.79C301.419 275.79 301.291 275.763 301.175 275.708C301.059 275.653 300.966 275.561 300.896 275.432C300.829 275.302 300.795 275.126 300.795 274.906V271.613ZM304.67 274.964V272.418H305.239V275.729H304.697L304.67 274.964ZM304.777 274.266L305.012 274.26C305.012 274.481 304.989 274.685 304.942 274.872C304.897 275.058 304.824 275.219 304.722 275.356C304.62 275.492 304.486 275.6 304.321 275.677C304.155 275.753 303.955 275.79 303.718 275.79C303.557 275.79 303.409 275.767 303.274 275.72C303.142 275.673 303.027 275.601 302.931 275.503C302.836 275.405 302.761 275.277 302.708 275.12C302.657 274.963 302.631 274.774 302.631 274.554V272.418H303.198V274.56C303.198 274.709 303.214 274.832 303.247 274.93C303.281 275.026 303.327 275.103 303.384 275.16C303.443 275.215 303.509 275.254 303.58 275.276C303.654 275.299 303.729 275.31 303.807 275.31C304.047 275.31 304.238 275.264 304.379 275.172C304.52 275.078 304.621 274.953 304.682 274.796C304.745 274.637 304.777 274.46 304.777 274.266ZM306.668 272.938V275.729H306.102V272.418H306.653L306.668 272.938ZM307.702 272.4L307.699 272.926C307.652 272.916 307.607 272.91 307.565 272.908C307.524 272.904 307.477 272.902 307.424 272.902C307.293 272.902 307.178 272.922 307.078 272.963C306.978 273.004 306.893 273.061 306.824 273.134C306.755 273.208 306.699 273.295 306.659 273.397C306.62 273.497 306.594 273.607 306.582 273.728L306.423 273.82C306.423 273.62 306.442 273.432 306.481 273.256C306.522 273.081 306.584 272.926 306.668 272.791C306.752 272.655 306.858 272.549 306.986 272.473C307.117 272.396 307.272 272.357 307.451 272.357C307.492 272.357 307.539 272.362 307.592 272.372C307.645 272.38 307.682 272.389 307.702 272.4ZM310.251 275.086V271.029H310.821V275.729H310.3L310.251 275.086ZM308.024 274.11V274.046C308.024 273.793 308.054 273.564 308.115 273.357C308.179 273.149 308.267 272.971 308.382 272.822C308.498 272.673 308.636 272.559 308.795 272.479C308.956 272.398 309.135 272.357 309.333 272.357C309.541 272.357 309.723 272.394 309.878 272.467C310.035 272.538 310.168 272.643 310.276 272.782C310.386 272.919 310.473 273.084 310.536 273.278C310.599 273.472 310.643 273.691 310.668 273.936V274.217C310.645 274.46 310.601 274.678 310.536 274.872C310.473 275.066 310.386 275.231 310.276 275.368C310.168 275.505 310.035 275.61 309.878 275.683C309.721 275.755 309.537 275.79 309.327 275.79C309.133 275.79 308.956 275.749 308.795 275.665C308.636 275.581 308.498 275.464 308.382 275.313C308.267 275.162 308.179 274.984 308.115 274.78C308.054 274.574 308.024 274.351 308.024 274.11ZM308.593 274.046V274.11C308.593 274.276 308.609 274.431 308.642 274.575C308.676 274.72 308.729 274.848 308.801 274.958C308.872 275.068 308.963 275.155 309.073 275.218C309.183 275.279 309.315 275.31 309.468 275.31C309.656 275.31 309.81 275.27 309.93 275.191C310.052 275.111 310.15 275.006 310.224 274.875C310.297 274.745 310.354 274.603 310.395 274.45V273.712C310.371 273.6 310.335 273.492 310.288 273.388C310.243 273.282 310.184 273.188 310.111 273.107C310.039 273.023 309.95 272.957 309.844 272.908C309.74 272.859 309.617 272.834 309.474 272.834C309.319 272.834 309.185 272.867 309.073 272.932C308.963 272.995 308.872 273.083 308.801 273.195C308.729 273.305 308.676 273.434 308.642 273.581C308.609 273.726 308.593 273.881 308.593 274.046ZM313.654 275.163V273.458C313.654 273.328 313.628 273.215 313.575 273.119C313.524 273.021 313.446 272.945 313.342 272.892C313.238 272.839 313.11 272.813 312.957 272.813C312.814 272.813 312.688 272.837 312.58 272.886C312.474 272.935 312.39 272.999 312.329 273.079C312.27 273.159 312.24 273.244 312.24 273.336H311.674C311.674 273.218 311.705 273.1 311.766 272.984C311.827 272.868 311.915 272.763 312.029 272.669C312.146 272.573 312.284 272.498 312.445 272.442C312.609 272.385 312.79 272.357 312.99 272.357C313.231 272.357 313.443 272.398 313.627 272.479C313.812 272.561 313.957 272.684 314.061 272.849C314.167 273.013 314.22 273.218 314.22 273.465V275.007C314.22 275.117 314.23 275.234 314.248 275.359C314.268 275.483 314.298 275.59 314.337 275.68V275.729H313.746C313.718 275.664 313.695 275.577 313.679 275.469C313.662 275.359 313.654 275.257 313.654 275.163ZM313.752 273.722L313.758 274.119H313.186C313.025 274.119 312.881 274.133 312.755 274.159C312.628 274.184 312.522 274.221 312.436 274.272C312.351 274.323 312.285 274.388 312.24 274.465C312.196 274.541 312.173 274.63 312.173 274.732C312.173 274.836 312.197 274.93 312.244 275.016C312.29 275.102 312.361 275.17 312.455 275.221C312.551 275.27 312.668 275.295 312.807 275.295C312.98 275.295 313.133 275.258 313.266 275.184C313.398 275.111 313.503 275.021 313.581 274.915C313.66 274.809 313.703 274.706 313.709 274.606L313.951 274.878C313.937 274.964 313.898 275.059 313.835 275.163C313.772 275.267 313.687 275.367 313.581 275.463C313.477 275.557 313.352 275.635 313.207 275.699C313.065 275.76 312.904 275.79 312.724 275.79C312.5 275.79 312.303 275.746 312.133 275.659C311.966 275.571 311.836 275.454 311.742 275.307C311.65 275.158 311.604 274.992 311.604 274.808C311.604 274.631 311.639 274.474 311.708 274.34C311.777 274.203 311.877 274.09 312.008 274C312.138 273.908 312.296 273.839 312.479 273.792C312.663 273.745 312.868 273.722 313.094 273.722H313.752ZM315.992 275.386L316.913 272.418H317.519L316.191 276.24C316.161 276.322 316.12 276.41 316.069 276.503C316.02 276.599 315.957 276.69 315.879 276.776C315.801 276.861 315.708 276.931 315.597 276.984C315.489 277.039 315.36 277.066 315.209 277.066C315.164 277.066 315.107 277.06 315.037 277.048C314.968 277.036 314.919 277.026 314.891 277.017L314.888 276.558C314.904 276.56 314.929 276.563 314.964 276.565C315.001 276.569 315.026 276.571 315.041 276.571C315.169 276.571 315.278 276.553 315.368 276.519C315.458 276.486 315.533 276.43 315.594 276.35C315.658 276.273 315.712 276.166 315.757 276.029L315.992 275.386ZM315.316 272.418L316.176 274.989L316.323 275.585L315.916 275.793L314.698 272.418H315.316Z" fill="#333333"/>
<path d="M333.212 274.603C333.212 274.499 333.195 274.407 333.163 274.328C333.132 274.246 333.077 274.173 332.997 274.107C332.92 274.042 332.812 273.98 332.673 273.921C332.536 273.861 332.363 273.801 332.153 273.74C331.932 273.675 331.734 273.602 331.556 273.523C331.379 273.441 331.227 273.348 331.1 273.244C330.974 273.14 330.877 273.021 330.809 272.886C330.742 272.752 330.708 272.598 330.708 272.424C330.708 272.251 330.744 272.091 330.815 271.944C330.887 271.797 330.989 271.669 331.122 271.561C331.256 271.451 331.416 271.365 331.602 271.304C331.788 271.243 331.995 271.212 332.223 271.212C332.558 271.212 332.841 271.277 333.074 271.405C333.309 271.532 333.487 271.698 333.609 271.904C333.732 272.108 333.793 272.326 333.793 272.559H333.205C333.205 272.391 333.17 272.244 333.098 272.115C333.027 271.984 332.919 271.882 332.774 271.809C332.629 271.734 332.446 271.696 332.223 271.696C332.013 271.696 331.84 271.727 331.703 271.791C331.566 271.854 331.464 271.94 331.397 272.048C331.332 272.156 331.299 272.279 331.299 272.418C331.299 272.512 331.318 272.598 331.357 272.675C331.398 272.751 331.46 272.821 331.544 272.886C331.63 272.952 331.738 273.012 331.868 273.067C332.001 273.122 332.159 273.175 332.343 273.226C332.596 273.297 332.814 273.377 332.997 273.465C333.181 273.552 333.332 273.651 333.45 273.761C333.571 273.87 333.659 273.993 333.717 274.132C333.776 274.268 333.805 274.423 333.805 274.597C333.805 274.778 333.769 274.943 333.695 275.09C333.622 275.236 333.517 275.362 333.38 275.466C333.243 275.57 333.079 275.651 332.887 275.708C332.698 275.763 332.485 275.79 332.251 275.79C332.045 275.79 331.842 275.762 331.642 275.705C331.444 275.648 331.263 275.562 331.1 275.448C330.939 275.333 330.809 275.193 330.711 275.025C330.616 274.856 330.568 274.66 330.568 274.438H331.155C331.155 274.591 331.185 274.722 331.244 274.832C331.303 274.941 331.384 275.03 331.486 275.102C331.59 275.173 331.707 275.226 331.838 275.261C331.97 275.294 332.108 275.31 332.251 275.31C332.457 275.31 332.631 275.281 332.774 275.224C332.917 275.167 333.025 275.085 333.098 274.979C333.174 274.873 333.212 274.748 333.212 274.603ZM336.498 274.964V272.418H337.067V275.729H336.526L336.498 274.964ZM336.605 274.266L336.841 274.26C336.841 274.481 336.818 274.685 336.771 274.872C336.726 275.058 336.652 275.219 336.55 275.356C336.448 275.492 336.315 275.6 336.149 275.677C335.984 275.753 335.783 275.79 335.547 275.79C335.385 275.79 335.237 275.767 335.103 275.72C334.97 275.673 334.856 275.601 334.76 275.503C334.664 275.405 334.59 275.277 334.537 275.12C334.486 274.963 334.46 274.774 334.46 274.554V272.418H335.026V274.56C335.026 274.709 335.043 274.832 335.075 274.93C335.11 275.026 335.156 275.103 335.213 275.16C335.272 275.215 335.337 275.254 335.409 275.276C335.482 275.299 335.558 275.31 335.635 275.31C335.876 275.31 336.067 275.264 336.208 275.172C336.348 275.078 336.449 274.953 336.51 274.796C336.574 274.637 336.605 274.46 336.605 274.266ZM338.497 273.125V275.729H337.93V272.418H338.466L338.497 273.125ZM338.362 273.948L338.126 273.939C338.128 273.712 338.162 273.503 338.227 273.312C338.293 273.118 338.384 272.949 338.503 272.807C338.621 272.664 338.762 272.554 338.925 272.476C339.09 272.397 339.273 272.357 339.473 272.357C339.636 272.357 339.783 272.379 339.913 272.424C340.044 272.467 340.155 272.536 340.247 272.632C340.341 272.728 340.412 272.853 340.461 273.006C340.51 273.157 340.535 273.341 340.535 273.559V275.729H339.965V273.553C339.965 273.38 339.94 273.241 339.889 273.137C339.838 273.031 339.763 272.955 339.666 272.908C339.568 272.859 339.447 272.834 339.304 272.834C339.164 272.834 339.035 272.864 338.919 272.923C338.805 272.982 338.706 273.064 338.622 273.168C338.54 273.272 338.476 273.391 338.429 273.526C338.384 273.658 338.362 273.799 338.362 273.948ZM343.482 275.086V271.029H344.051V275.729H343.531L343.482 275.086ZM341.254 274.11V274.046C341.254 273.793 341.284 273.564 341.346 273.357C341.409 273.149 341.498 272.971 341.612 272.822C341.728 272.673 341.866 272.559 342.025 272.479C342.186 272.398 342.366 272.357 342.564 272.357C342.772 272.357 342.953 272.394 343.108 272.467C343.265 272.538 343.398 272.643 343.506 272.782C343.616 272.919 343.703 273.084 343.766 273.278C343.829 273.472 343.873 273.691 343.898 273.936V274.217C343.875 274.46 343.831 274.678 343.766 274.872C343.703 275.066 343.616 275.231 343.506 275.368C343.398 275.505 343.265 275.61 343.108 275.683C342.951 275.755 342.768 275.79 342.557 275.79C342.364 275.79 342.186 275.749 342.025 275.665C341.866 275.581 341.728 275.464 341.612 275.313C341.498 275.162 341.409 274.984 341.346 274.78C341.284 274.574 341.254 274.351 341.254 274.11ZM341.823 274.046V274.11C341.823 274.276 341.839 274.431 341.872 274.575C341.907 274.72 341.96 274.848 342.031 274.958C342.102 275.068 342.193 275.155 342.303 275.218C342.414 275.279 342.545 275.31 342.698 275.31C342.886 275.31 343.04 275.27 343.16 275.191C343.283 275.111 343.381 275.006 343.454 274.875C343.527 274.745 343.585 274.603 343.625 274.45V273.712C343.601 273.6 343.565 273.492 343.518 273.388C343.473 273.282 343.414 273.188 343.341 273.107C343.269 273.023 343.181 272.957 343.075 272.908C342.971 272.859 342.847 272.834 342.704 272.834C342.549 272.834 342.416 272.867 342.303 272.932C342.193 272.995 342.102 273.083 342.031 273.195C341.96 273.305 341.907 273.434 341.872 273.581C341.839 273.726 341.823 273.881 341.823 274.046ZM346.885 275.163V273.458C346.885 273.328 346.858 273.215 346.805 273.119C346.754 273.021 346.676 272.945 346.572 272.892C346.468 272.839 346.34 272.813 346.187 272.813C346.044 272.813 345.919 272.837 345.81 272.886C345.704 272.935 345.621 272.999 345.559 273.079C345.5 273.159 345.471 273.244 345.471 273.336H344.905C344.905 273.218 344.935 273.1 344.996 272.984C345.058 272.868 345.145 272.763 345.26 272.669C345.376 272.573 345.515 272.498 345.676 272.442C345.839 272.385 346.021 272.357 346.22 272.357C346.461 272.357 346.673 272.398 346.857 272.479C347.043 272.561 347.187 272.684 347.292 272.849C347.398 273.013 347.451 273.218 347.451 273.465V275.007C347.451 275.117 347.46 275.234 347.478 275.359C347.499 275.483 347.528 275.59 347.567 275.68V275.729H346.976C346.948 275.664 346.925 275.577 346.909 275.469C346.893 275.359 346.885 275.257 346.885 275.163ZM346.982 273.722L346.989 274.119H346.416C346.255 274.119 346.111 274.133 345.985 274.159C345.858 274.184 345.752 274.221 345.667 274.272C345.581 274.323 345.516 274.388 345.471 274.465C345.426 274.541 345.403 274.63 345.403 274.732C345.403 274.836 345.427 274.93 345.474 275.016C345.521 275.102 345.591 275.17 345.685 275.221C345.781 275.27 345.898 275.295 346.037 275.295C346.21 275.295 346.363 275.258 346.496 275.184C346.628 275.111 346.734 275.021 346.811 274.915C346.891 274.809 346.933 274.706 346.94 274.606L347.181 274.878C347.167 274.964 347.128 275.059 347.065 275.163C347.002 275.267 346.917 275.367 346.811 275.463C346.707 275.557 346.583 275.635 346.438 275.699C346.295 275.76 346.134 275.79 345.954 275.79C345.73 275.79 345.533 275.746 345.364 275.659C345.196 275.571 345.066 275.454 344.972 275.307C344.88 275.158 344.834 274.992 344.834 274.808C344.834 274.631 344.869 274.474 344.938 274.34C345.008 274.203 345.108 274.09 345.238 274C345.369 273.908 345.526 273.839 345.709 273.792C345.893 273.745 346.098 273.722 346.324 273.722H346.982ZM349.222 275.386L350.144 272.418H350.75L349.421 276.24C349.391 276.322 349.35 276.41 349.299 276.503C349.25 276.599 349.187 276.69 349.109 276.776C349.032 276.861 348.938 276.931 348.828 276.984C348.72 277.039 348.59 277.066 348.439 277.066C348.394 277.066 348.337 277.06 348.268 277.048C348.198 277.036 348.149 277.026 348.121 277.017L348.118 276.558C348.134 276.56 348.16 276.563 348.194 276.565C348.231 276.569 348.256 276.571 348.271 276.571C348.399 276.571 348.508 276.553 348.598 276.519C348.688 276.486 348.763 276.43 348.825 276.35C348.888 276.273 348.942 276.166 348.987 276.029L349.222 275.386ZM348.546 272.418L349.406 274.989L349.553 275.585L349.146 275.793L347.928 272.418H348.546Z" fill="#333333"/>
<path opacity="0.2" fill-rule="evenodd" clip-rule="evenodd" d="M133.085 253.982L167.729 228.768L202.373 203.554L237.017 178.341L271.661 241.375L306.305 216.161L340.949 190.948V266.589H133.085V253.982Z" fill="#6B50FF"/>
<path d="M133.085 253.982L167.729 228.768L202.373 203.554L237.017 178.341L271.661 241.375L306.305 216.161L340.949 190.948" stroke="#0E9CFF" stroke-width="1.04454" stroke-linejoin="round"/>
<path d="M133.086 255.813C134.096 255.813 134.914 254.993 134.914 253.983C134.914 252.974 134.096 252.153 133.086 252.153C132.076 252.153 131.258 252.974 131.258 253.983C131.258 254.993 132.076 255.813 133.086 255.813Z" fill="white" stroke="#0E9CFF" stroke-width="1.04454"/>
<path d="M167.73 230.599C168.74 230.599 169.557 229.779 169.557 228.769C169.557 227.76 168.74 226.939 167.73 226.939C166.719 226.939 165.902 227.76 165.902 228.769C165.902 229.779 166.719 230.599 167.73 230.599Z" fill="white" stroke="#0E9CFF" stroke-width="1.04454"/>
<path d="M202.373 205.385C203.383 205.385 204.201 204.565 204.201 203.555C204.201 202.545 203.383 201.725 202.373 201.725C201.363 201.725 200.545 202.545 200.545 203.555C200.545 204.565 201.363 205.385 202.373 205.385Z" fill="white" stroke="#0E9CFF" stroke-width="1.04454"/>
<path d="M237.018 180.172C238.028 180.172 238.846 179.352 238.846 178.342C238.846 177.332 238.028 176.512 237.018 176.512C236.007 176.512 235.19 177.332 235.19 178.342C235.19 179.352 236.007 180.172 237.018 180.172Z" fill="white" stroke="#0E9CFF" stroke-width="1.04454"/>
<path d="M271.661 243.207C272.671 243.207 273.489 242.387 273.489 241.377C273.489 240.367 272.671 239.547 271.661 239.547C270.651 239.547 269.833 240.367 269.833 241.377C269.833 242.387 270.651 243.207 271.661 243.207Z" fill="white" stroke="#0E9CFF" stroke-width="1.04454"/>
<path d="M306.305 217.993C307.315 217.993 308.133 217.173 308.133 216.163C308.133 215.153 307.315 214.333 306.305 214.333C305.294 214.333 304.477 215.153 304.477 216.163C304.477 217.173 305.294 217.993 306.305 217.993Z" fill="white" stroke="#0E9CFF" stroke-width="1.04454"/>
<path d="M340.95 192.779C341.961 192.779 342.778 191.959 342.778 190.949C342.778 189.939 341.961 189.119 340.95 189.119C339.94 189.119 339.122 189.939 339.122 190.949C339.122 191.959 339.94 192.779 340.95 192.779Z" fill="white" stroke="#0E9CFF" stroke-width="1.04454"/>
</g>
<defs>
<filter id="filter0_d_3_134" x="83.0481" y="103.013" width="301.709" height="207.661" filterUnits="userSpaceOnUse" color-interpolation-filters="sRGB">
<feFlood flood-opacity="0" result="BackgroundImageFix"/>
<feColorMatrix in="SourceAlpha" type="matrix" values="0 0 0 0 0 0 0 0 0 0 0 0 0 0 0 0 0 0 127 0" result="hardAlpha"/>
<feOffset/>
<feGaussianBlur stdDeviation="12.1986"/>
<feComposite in2="hardAlpha" operator="out"/>
<feColorMatrix type="matrix" values="0 0 0 0 0 0 0 0 0 0 0 0 0 0 0 0 0 0 0.1 0"/>
<feBlend mode="normal" in2="BackgroundImageFix" result="effect1_dropShadow_3_134"/>
<feBlend mode="normal" in="SourceGraphic" in2="effect1_dropShadow_3_134" result="shape"/>
</filter>
</defs>
</svg>
