<svg width="160" height="32" viewBox="0 0 160 32" fill="none" xmlns="http://www.w3.org/2000/svg">
<g clip-path="url(#clip0_3_14)">
<path d="M48.0732 24.2377V7.94974H51.1446V21.4455H58.5905V24.2377H48.0732Z" fill="white"/>
<path d="M65.2217 24.5635C64.0738 24.5635 63.0422 24.3308 62.127 23.8654C61.2117 23.4001 60.4904 22.7253 59.963 21.8411C59.4356 20.9569 59.1719 19.8943 59.1719 18.6533V18.281C59.1719 17.04 59.4356 15.9774 59.963 15.0932C60.4904 14.209 61.2117 13.5342 62.127 13.0688C63.0422 12.6035 64.0738 12.3708 65.2217 12.3708C66.3696 12.3708 67.4012 12.6035 68.3164 13.0688C69.2316 13.5342 69.9529 14.209 70.4804 15.0932C71.0078 15.9774 71.2715 17.04 71.2715 18.281V18.6533C71.2715 19.8943 71.0078 20.9569 70.4804 21.8411C69.9529 22.7253 69.2316 23.4001 68.3164 23.8654C67.4012 24.3308 66.3696 24.5635 65.2217 24.5635ZM65.2217 21.9574C66.1214 21.9574 66.866 21.6704 67.4555 21.0965C68.0449 20.507 68.3397 19.6693 68.3397 18.5835V18.3508C68.3397 17.2649 68.0449 16.435 67.4555 15.861C66.8815 15.2716 66.1369 14.9768 65.2217 14.9768C64.322 14.9768 63.5774 15.2716 62.9879 15.861C62.3984 16.435 62.1037 17.2649 62.1037 18.3508V18.5835C62.1037 19.6693 62.3984 20.507 62.9879 21.0965C63.5774 21.6704 64.322 21.9574 65.2217 21.9574Z" fill="white"/>
<path d="M72.3721 18.5137V18.1414C72.3721 16.9314 72.6125 15.8998 73.0934 15.0466C73.5743 14.178 74.2103 13.5187 75.0014 13.0688C75.8081 12.6035 76.6845 12.3708 77.6308 12.3708C78.6856 12.3708 79.4845 12.5569 80.0274 12.9292C80.5704 13.3015 80.9659 13.6893 81.2141 14.0926H81.633V12.6965H84.5183V26.2853C84.5183 27.0765 84.2856 27.7047 83.8202 28.1701C83.3548 28.651 82.7344 28.8914 81.9587 28.8914H74.2336V26.3319H80.9349C81.3693 26.3319 81.5864 26.0992 81.5864 25.6338V22.6322H81.1676C81.0125 22.8804 80.7953 23.1363 80.5161 23.4001C80.2369 23.6482 79.8646 23.8577 79.3992 24.0283C78.9338 24.1989 78.3444 24.2843 77.6308 24.2843C76.6845 24.2843 75.8081 24.0593 75.0014 23.6095C74.2103 23.1441 73.5743 22.4848 73.0934 21.6316C72.6125 20.763 72.3721 19.7236 72.3721 18.5137ZM78.4685 21.7247C79.3682 21.7247 80.1205 21.4377 80.7255 20.8638C81.3305 20.2898 81.633 19.4832 81.633 18.4439V18.2112C81.633 17.1563 81.3305 16.3497 80.7255 15.7912C80.136 15.2173 79.3837 14.9303 78.4685 14.9303C77.5687 14.9303 76.8164 15.2173 76.2114 15.7912C75.6064 16.3497 75.3039 17.1563 75.3039 18.2112V18.4439C75.3039 19.4832 75.6064 20.2898 76.2114 20.8638C76.8164 21.4377 77.5687 21.7247 78.4685 21.7247Z" fill="white"/>
<path d="M92.213 24.5635C91.0651 24.5635 90.0335 24.3308 89.1182 23.8654C88.203 23.4001 87.4817 22.7253 86.9543 21.8411C86.4269 20.9569 86.1631 19.8943 86.1631 18.6533V18.281C86.1631 17.04 86.4269 15.9774 86.9543 15.0932C87.4817 14.209 88.203 13.5342 89.1182 13.0688C90.0335 12.6035 91.0651 12.3708 92.213 12.3708C93.3609 12.3708 94.3924 12.6035 95.3077 13.0688C96.2229 13.5342 96.9442 14.209 97.4717 15.0932C97.9991 15.9774 98.2628 17.04 98.2628 18.281V18.6533C98.2628 19.8943 97.9991 20.9569 97.4717 21.8411C96.9442 22.7253 96.2229 23.4001 95.3077 23.8654C94.3924 24.3308 93.3609 24.5635 92.213 24.5635ZM92.213 21.9574C93.1127 21.9574 93.8573 21.6704 94.4467 21.0965C95.0362 20.507 95.3309 19.6693 95.3309 18.5835V18.3508C95.3309 17.2649 95.0362 16.435 94.4467 15.861C93.8728 15.2716 93.1282 14.9768 92.213 14.9768C91.3132 14.9768 90.5687 15.2716 89.9792 15.861C89.3897 16.435 89.095 17.2649 89.095 18.3508V18.5835C89.095 19.6693 89.3897 20.507 89.9792 21.0965C90.5687 21.6704 91.3132 21.9574 92.213 21.9574Z" fill="white"/>
<path d="M99.9217 24.2377V12.6965H102.854V24.2377H99.9217ZM101.388 11.347C100.86 11.347 100.411 11.1763 100.038 10.835C99.6813 10.4938 99.5029 10.0439 99.5029 9.48544C99.5029 8.927 99.6813 8.47714 100.038 8.13587C100.411 7.7946 100.86 7.62396 101.388 7.62396C101.931 7.62396 102.381 7.7946 102.737 8.13587C103.094 8.47714 103.273 8.927 103.273 9.48544C103.273 10.0439 103.094 10.4938 102.737 10.835C102.381 11.1763 101.931 11.347 101.388 11.347Z" fill="white"/>
<path d="M105.056 28.8914V12.6965H107.941V14.0926H108.36C108.623 13.6428 109.034 13.2472 109.593 12.9059C110.151 12.5492 110.95 12.3708 111.99 12.3708C112.92 12.3708 113.781 12.6035 114.572 13.0688C115.364 13.5187 116 14.1857 116.48 15.0699C116.961 15.9541 117.202 17.0245 117.202 18.281V18.6533C117.202 19.9098 116.961 20.9801 116.48 21.8643C116 22.7485 115.364 23.4233 114.572 23.8887C113.781 24.3385 112.92 24.5635 111.99 24.5635C111.292 24.5635 110.702 24.4782 110.221 24.3075C109.756 24.1524 109.376 23.9507 109.081 23.7025C108.802 23.4388 108.577 23.1751 108.406 22.9114H107.987V28.8914H105.056ZM111.105 22.0039C112.021 22.0039 112.773 21.717 113.362 21.143C113.967 20.5535 114.27 19.7004 114.27 18.5835V18.3508C114.27 17.2339 113.967 16.3885 113.362 15.8145C112.757 15.225 112.005 14.9303 111.105 14.9303C110.206 14.9303 109.453 15.225 108.848 15.8145C108.243 16.3885 107.941 17.2339 107.941 18.3508V18.5835C107.941 19.7004 108.243 20.5535 108.848 21.143C109.453 21.717 110.206 22.0039 111.105 22.0039Z" fill="white"/>
<path d="M123.64 24.5635C122.135 24.5635 120.902 24.2377 119.94 23.5862C118.979 22.9347 118.397 22.0039 118.195 20.794L120.894 20.0959C121.003 20.6389 121.181 21.0654 121.43 21.3757C121.693 21.6859 122.011 21.9109 122.384 22.0505C122.771 22.1746 123.19 22.2366 123.64 22.2366C124.323 22.2366 124.827 22.1203 125.152 21.8876C125.478 21.6394 125.641 21.3369 125.641 20.9801C125.641 20.6233 125.486 20.3519 125.176 20.1657C124.865 19.9641 124.369 19.8012 123.687 19.6771L123.035 19.5607C122.228 19.4056 121.492 19.1962 120.825 18.9325C120.157 18.6533 119.622 18.2732 119.219 17.7923C118.816 17.3115 118.614 16.691 118.614 15.9309C118.614 14.7829 119.033 13.9065 119.871 13.3015C120.708 12.681 121.81 12.3708 123.175 12.3708C124.462 12.3708 125.533 12.6577 126.386 13.2317C127.239 13.8057 127.797 14.558 128.061 15.4888L125.339 16.3264C125.215 15.737 124.959 15.3181 124.571 15.0699C124.198 14.8217 123.733 14.6976 123.175 14.6976C122.616 14.6976 122.19 14.7985 121.895 15.0001C121.6 15.1863 121.453 15.45 121.453 15.7912C121.453 16.1635 121.608 16.4428 121.918 16.6289C122.228 16.7995 122.647 16.9314 123.175 17.0245L123.826 17.1408C124.695 17.2959 125.478 17.5054 126.176 17.7691C126.89 18.0173 127.448 18.3818 127.852 18.8627C128.27 19.3281 128.48 19.9641 128.48 20.7707C128.48 21.9807 128.038 22.9192 127.154 23.5862C126.285 24.2377 125.114 24.5635 123.64 24.5635Z" fill="white"/>
<path d="M134.4 24.4239C133.5 24.4239 132.709 24.2222 132.026 23.8189C131.359 23.4001 130.84 22.8261 130.467 22.097C130.095 21.3679 129.909 20.5303 129.909 19.584V12.6965H132.841V19.3513C132.841 20.22 133.05 20.8715 133.469 21.3059C133.903 21.7402 134.516 21.9574 135.307 21.9574C136.207 21.9574 136.905 21.6627 137.401 21.0732C137.898 20.4682 138.146 19.6305 138.146 18.5602V12.6965H141.078V24.2377H138.192V22.7253H137.774C137.588 23.1131 137.238 23.4931 136.727 23.8654C136.215 24.2377 135.439 24.4239 134.4 24.4239Z" fill="white"/>
<path d="M143.293 24.2377V12.6965H146.178V13.953H146.597C146.799 13.5652 147.133 13.2317 147.598 12.9525C148.063 12.6577 148.676 12.5104 149.436 12.5104C150.258 12.5104 150.918 12.6733 151.414 12.999C151.91 13.3093 152.29 13.7203 152.554 14.2323H152.973C153.237 13.7359 153.609 13.3248 154.09 12.999C154.571 12.6733 155.253 12.5104 156.137 12.5104C156.851 12.5104 157.495 12.6655 158.069 12.9758C158.658 13.2705 159.124 13.7281 159.465 14.3486C159.822 14.9536 160 15.7214 160 16.6522V24.2377H157.068V16.8616C157.068 16.2256 156.905 15.7525 156.58 15.4422C156.254 15.1165 155.796 14.9536 155.207 14.9536C154.54 14.9536 154.02 15.1707 153.648 15.6051C153.291 16.0239 153.113 16.6289 153.113 17.42V24.2377H150.181V16.8616C150.181 16.2256 150.018 15.7525 149.692 15.4422C149.366 15.1165 148.909 14.9536 148.319 14.9536C147.652 14.9536 147.132 15.1707 146.76 15.6051C146.403 16.0239 146.225 16.6289 146.225 17.42V24.2377H143.293Z" fill="white"/>
<path d="M38.7812 15.5123C38.7812 11.3981 37.1468 7.45232 34.2376 4.54313C31.3284 1.63394 27.3827 -0.000426707 23.2685 -0.000427246C19.1543 -0.000427786 15.2086 1.63394 12.2994 4.54313C9.39023 7.45232 7.75586 11.3981 7.75586 15.5123H12.6036C14.21 15.5123 15.4628 14.1661 16.0512 12.6713C16.4375 11.6899 17.0237 10.788 17.7839 10.0277C19.2385 8.57309 21.2114 7.75591 23.2685 7.75591C25.3256 7.75591 27.2985 8.57309 28.7531 10.0277C30.2077 11.4823 31.0248 13.4552 31.0248 15.5123H38.7812Z" fill="url(#paint0_linear_3_14)"/>
<path d="M29.8444 21.4487C30.624 19.5666 31.0253 17.5494 31.0253 15.5123H38.7808C38.7808 24.0797 31.8355 31.0249 23.2681 31.0249C21.9264 31.0249 20.6244 30.8546 19.3828 30.5344C20.0853 30.3534 20.7758 30.1229 21.449 29.8441C23.3311 29.0645 25.0412 27.9219 26.4817 26.4814C27.9222 25.0409 29.0649 23.3308 29.8444 21.4487Z" fill="#FBCF8E"/>
<path d="M0 15.5122C-2.91433e-07 17.5494 0.401247 19.5666 1.18083 21.4487C1.96042 23.3308 3.10307 25.0409 4.54356 26.4814C5.98404 27.9218 7.69415 29.0645 9.57623 29.8441C11.4583 30.6237 13.4755 31.0249 15.5127 31.0249C17.5498 31.0249 19.567 30.6237 21.4491 29.8441C23.3312 29.0645 25.0413 27.9218 26.4818 26.4814C27.9223 25.0409 29.0649 23.3308 29.8445 21.4487C30.6241 19.5666 31.0254 17.5494 31.0254 15.5122H26.1776C24.5712 15.5122 23.3184 16.8584 22.73 18.3531C22.7133 18.3957 22.6961 18.4381 22.6786 18.4805C22.2888 19.4215 21.7175 20.2766 20.9972 20.9968C20.277 21.717 19.4219 22.2884 18.4809 22.6782C17.5399 23.068 16.5313 23.2686 15.5127 23.2686C14.4941 23.2686 13.4855 23.068 12.5445 22.6782C11.6034 22.2884 10.7484 21.717 10.0281 20.9968C9.30787 20.2766 8.73655 19.4215 8.34676 18.4805C7.95696 17.5394 7.75634 16.5308 7.75634 15.5122H0Z" fill="url(#paint1_linear_3_14)"/>
<path d="M0.00195312 15.5123C0.00195312 6.94481 6.9472 -0.000427246 15.5146 -0.000427246C16.856 -0.000427246 18.1576 0.169819 19.3991 0.489896C16.7352 1.17614 14.2778 2.56492 12.2995 4.54314C9.39029 7.4523 7.75594 11.3981 7.75594 15.5123H0.00195312Z" fill="#73E5E2"/>
</g>
<defs>
<linearGradient id="paint0_linear_3_14" x1="38.7812" y1="7.75591" x2="7.75586" y2="7.75591" gradientUnits="userSpaceOnUse">
<stop stop-color="#73E5E2"/>
<stop offset="1" stop-color="#394F87"/>
</linearGradient>
<linearGradient id="paint1_linear_3_14" x1="1.01712e-06" y1="23.2686" x2="31.0254" y2="23.2686" gradientUnits="userSpaceOnUse">
<stop stop-color="#FBDC8E"/>
<stop offset="1" stop-color="#FB958E"/>
</linearGradient>
<clipPath id="clip0_3_14">
<rect width="160" height="32" fill="white" transform="translate(0 -0.000427246)"/>
</clipPath>
</defs>
</svg>
