<svg width="24" height="25" viewBox="0 0 24 25" fill="none" xmlns="http://www.w3.org/2000/svg">
<path d="M20.0708 8.23273L9.7293 18.5742C9.63771 18.6665 9.51303 18.7185 9.38296 18.7185C9.25289 18.7185 9.12821 18.6665 9.03662 18.5742L3.77808 13.3156C3.68573 13.2241 3.63379 13.0994 3.63379 12.9693C3.63379 12.8392 3.68573 12.7145 3.77808 12.6229L4.46101 11.94C4.5526 11.8477 4.67728 11.7957 4.80735 11.7957C4.93742 11.7957 5.0621 11.8477 5.15369 11.94L9.37808 16.1644L18.6952 6.84737C18.8881 6.66025 19.1949 6.66025 19.3878 6.84737L20.0708 7.54005C20.1632 7.63164 20.2151 7.75632 20.2151 7.88639C20.2151 8.01646 20.1632 8.14113 20.0708 8.23273Z" fill="#3D3A41"/>
</svg>
